{"glyphs":{"0":{"ha":833,"x_min":111,"x_max":722,"o":"m 111 715 q 133 839 111 783 q 194 933 154 894 q 290 993 233 972 q 417 1014 346 1014 q 544 993 488 1014 q 640 933 600 972 q 701 839 679 894 q 722 715 722 783 l 722 285 q 701 162 722 217 q 640 68 679 107 q 543 8 600 29 q 417 -14 486 -14 q 290 7 346 -14 q 194 67 233 28 q 133 161 154 106 q 111 285 111 217 l 111 715 m 236 285 q 285 148 236 199 q 417 97 333 97 q 549 148 500 97 q 597 285 597 199 l 597 715 q 549 852 597 801 q 417 903 500 903 q 285 852 333 903 q 236 715 236 801 l 236 285 m 347 604 q 366 660 347 639 q 417 681 385 681 q 467 660 449 681 q 486 604 486 639 l 486 382 q 467 326 486 347 q 417 306 449 306 q 366 326 385 306 q 347 382 347 347 l 347 604 z "},"1":{"ha":833,"x_min":125,"x_max":743,"o":"m 125 0 l 125 111 l 393 111 l 393 813 q 394 838 393 824 q 394 865 394 853 q 395 887 394 878 q 396 896 396 896 l 393 896 q 374 881 383 888 q 356 867 365 874 q 339 854 347 860 l 143 721 l 143 847 l 358 1000 l 518 1000 l 518 111 l 743 111 l 743 0 l 125 0 z "},"2":{"ha":833,"x_min":90,"x_max":722,"o":"m 90 736 q 117 850 93 799 q 183 938 140 901 q 283 994 225 974 q 411 1014 340 1014 q 536 994 481 1014 q 631 939 592 975 q 691 851 669 903 q 713 736 713 800 q 651 519 713 624 q 454 297 589 414 l 286 151 q 271 140 279 146 q 254 129 263 135 q 233 117 243 122 l 233 111 q 276 113 256 113 q 316 114 296 114 q 353 114 336 114 l 722 114 l 722 0 l 97 0 l 97 139 l 361 365 q 463 463 421 417 q 532 553 506 508 q 571 642 558 597 q 583 735 583 686 q 537 858 583 813 q 411 903 490 903 q 272 857 324 903 q 219 736 219 811 l 90 736 z "},"3":{"ha":833,"x_min":94,"x_max":728,"o":"m 408 -14 q 288 6 343 -14 q 192 60 233 25 q 126 146 151 96 q 94 257 100 196 l 219 257 q 282 141 231 185 q 408 97 333 97 q 549 151 496 97 q 601 292 601 204 q 547 433 601 379 q 403 486 493 486 l 286 486 l 286 618 l 485 819 q 514 846 499 833 q 543 868 529 858 q 575 892 558 881 l 575 894 q 543 892 560 893 q 510 890 528 890 q 474 889 493 889 l 125 889 l 125 1000 l 681 1000 l 681 861 l 446 638 q 429 622 438 629 q 414 610 421 615 q 400 597 407 603 q 535 576 475 597 q 638 515 596 554 q 704 418 681 475 q 728 292 728 361 q 706 165 728 221 q 642 69 683 108 q 541 8 600 29 q 408 -14 482 -14 z "},"4":{"ha":833,"x_min":118,"x_max":694,"o":"m 513 1000 l 649 1000 l 243 382 l 243 326 l 569 326 l 569 569 l 694 569 l 694 0 l 569 0 l 569 215 l 118 215 l 118 396 l 513 1000 z "},"5":{"ha":833,"x_min":104,"x_max":729,"o":"m 236 208 q 297 128 250 158 q 415 97 343 97 q 550 146 500 97 q 600 278 600 194 l 600 347 q 550 479 600 431 q 414 528 500 528 q 256 451 307 528 l 128 451 l 135 1000 l 685 1000 l 685 886 l 256 886 l 251 533 l 260 533 q 299 586 272 563 q 359 622 321 606 q 460 639 397 639 q 658 560 586 639 q 729 347 729 482 l 729 278 q 707 157 729 211 q 644 65 685 103 q 544 7 603 28 q 414 -14 486 -14 q 204 47 286 -14 q 104 208 122 107 l 236 208 z "},"6":{"ha":833,"x_min":97,"x_max":736,"o":"m 97 299 q 136 476 97 382 q 243 685 175 571 l 432 1000 l 583 1000 l 372 667 q 326 594 344 622 q 296 551 307 567 q 276 528 283 535 l 297 528 q 329 567 308 550 q 379 594 349 582 q 457 606 410 606 q 569 583 518 606 q 658 521 621 561 q 715 424 694 481 q 736 299 736 368 q 713 172 736 229 q 647 73 689 114 q 546 9 604 32 q 418 -14 488 -14 q 288 8 347 -14 q 187 72 229 31 q 121 170 144 113 q 97 299 97 228 m 222 299 q 276 152 222 207 q 418 97 331 97 q 495 112 460 97 q 556 153 531 126 q 597 216 582 179 q 611 299 611 253 q 597 381 611 344 q 556 444 582 418 q 495 485 531 471 q 418 500 460 500 q 277 444 332 500 q 222 299 222 389 z "},"7":{"ha":833,"x_min":104,"x_max":729,"o":"m 104 1000 l 729 1000 l 729 858 l 378 0 l 238 0 l 575 797 q 592 836 585 821 q 606 861 600 851 q 618 881 613 874 l 618 889 q 575 888 596 888 q 538 887 557 888 q 506 886 519 886 l 229 886 l 229 736 l 104 736 l 104 1000 z "},"8":{"ha":833,"x_min":97,"x_max":736,"o":"m 97 274 q 112 364 97 322 q 153 438 126 406 q 216 491 179 469 q 299 519 253 513 l 299 526 q 225 553 258 533 q 168 603 192 574 q 131 669 144 632 q 118 749 118 707 q 140 857 118 808 q 201 940 161 906 q 295 994 240 975 q 417 1014 350 1014 q 538 994 483 1014 q 633 940 593 975 q 694 857 672 906 q 715 749 715 808 q 702 669 715 707 q 665 602 689 632 q 608 553 642 572 q 535 526 575 533 l 535 519 q 681 439 626 504 q 736 278 736 374 q 714 160 736 214 q 650 67 692 106 q 549 8 608 29 q 417 -14 490 -14 q 284 7 343 -14 q 183 65 225 28 q 119 156 142 103 q 97 274 97 210 m 417 475 q 278 423 331 475 q 226 285 226 371 q 278 145 226 200 q 417 90 331 90 q 555 145 503 90 q 607 285 607 200 q 555 423 607 371 q 417 475 503 475 m 417 910 q 292 864 338 910 q 247 743 247 818 q 294 617 247 667 q 417 567 340 567 q 540 617 493 567 q 586 743 586 667 q 541 864 586 818 q 417 910 496 910 z "},"9":{"ha":833,"x_min":97,"x_max":736,"o":"m 97 701 q 121 828 97 771 q 187 927 144 886 q 288 991 229 968 q 415 1014 346 1014 q 545 992 486 1014 q 647 928 604 969 q 713 830 689 888 q 736 701 736 772 q 697 524 736 618 q 590 315 658 429 l 401 0 l 250 0 l 461 333 q 508 406 490 379 q 538 449 526 433 q 557 472 550 465 l 536 472 q 504 433 525 450 q 455 406 485 418 q 376 394 425 394 q 264 417 315 394 q 176 479 213 439 q 118 576 139 519 q 97 701 97 632 m 415 500 q 556 556 501 500 q 611 701 611 611 q 557 848 611 793 q 415 903 503 903 q 338 888 374 903 q 277 847 303 874 q 237 784 251 821 q 222 701 222 747 q 237 619 222 656 q 277 556 251 582 q 338 515 303 529 q 415 500 374 500 z "},"\u0000":{"ha":0,"x_min":0,"x_max":0,"o":""},"\r":{"ha":833,"x_min":0,"x_max":0,"o":""}," ":{"ha":833,"x_min":0,"x_max":0,"o":""}," ":{"ha":833,"x_min":0,"x_max":0,"o":""},"H":{"ha":833,"x_min":125,"x_max":708,"o":"m 125 0 l 125 1000 l 250 1000 l 250 578 l 583 578 l 583 1000 l 708 1000 l 708 0 l 583 0 l 583 464 l 250 464 l 250 0 l 125 0 z "},"n":{"ha":833,"x_min":122,"x_max":713,"o":"m 122 764 l 240 764 l 240 632 l 251 632 q 324 740 269 703 q 461 778 378 778 q 567 758 521 778 q 647 701 614 738 q 696 616 679 665 q 713 508 713 567 l 713 0 l 588 0 l 588 488 q 543 624 588 575 q 419 672 499 672 q 294 620 340 672 q 247 479 247 568 l 247 0 l 122 0 l 122 764 z "},"p":{"ha":833,"x_min":122,"x_max":722,"o":"m 122 764 l 240 764 l 240 632 l 251 632 q 325 740 269 701 q 465 778 381 778 q 571 757 524 778 q 651 698 618 736 q 703 604 685 660 q 722 479 722 549 l 722 285 q 703 160 722 215 q 651 66 685 104 q 571 7 618 28 q 465 -14 524 -14 q 325 24 381 -14 q 251 132 269 63 l 240 132 q 244 85 242 108 q 247 42 246 64 q 247 0 247 19 l 247 -236 l 122 -236 l 122 764 m 247 479 l 247 285 q 294 146 247 197 q 418 94 340 94 q 549 146 501 94 q 597 285 597 197 l 597 479 q 550 619 597 569 q 418 669 503 669 q 294 618 340 669 q 247 479 247 567 z "},"(":{"ha":833,"x_min":257,"x_max":674,"o":"m 257 632 q 286 822 257 733 q 369 980 315 910 q 501 1100 424 1050 q 674 1174 578 1150 l 674 1056 q 553 1003 607 1040 q 461 910 499 965 q 403 784 424 854 q 382 632 382 714 l 382 368 q 402 218 382 288 q 460 94 422 149 q 553 3 499 40 q 674 -50 607 -35 l 674 -174 q 498 -100 575 -149 q 367 18 421 -51 q 285 176 314 88 q 257 368 257 264 l 257 632 z "},"o":{"ha":833,"x_min":111,"x_max":722,"o":"m 417 -14 q 290 7 346 -14 q 194 67 233 28 q 133 161 154 106 q 111 285 111 217 l 111 479 q 133 603 111 549 q 194 697 154 658 q 290 757 233 736 q 417 778 346 778 q 640 699 558 778 q 722 481 722 619 l 722 285 q 641 66 722 146 q 417 -14 560 -14 m 236 285 q 284 147 236 197 q 417 97 332 97 q 549 147 500 97 q 597 285 597 197 l 597 479 q 549 617 597 567 q 417 667 500 667 q 285 617 333 667 q 236 479 236 567 l 236 285 z "},"i":{"ha":833,"x_min":132,"x_max":764,"o":"m 132 0 l 132 114 l 410 114 l 410 650 l 167 650 l 167 764 l 535 764 l 535 114 l 764 114 l 764 0 l 132 0 m 438 1063 l 465 1063 q 531 1039 506 1063 q 556 978 556 1015 q 531 918 556 940 q 465 896 506 896 l 438 896 q 372 917 397 896 q 347 978 347 939 q 372 1039 347 1015 q 438 1063 397 1063 z "},"l":{"ha":833,"x_min":56,"x_max":764,"o":"m 56 900 l 56 1014 l 433 1014 l 433 222 q 461 142 433 171 q 538 114 489 114 l 764 114 l 764 0 l 538 0 q 369 59 431 0 q 308 222 308 118 l 308 900 l 56 900 z "},"O":{"ha":833,"x_min":111,"x_max":722,"o":"m 417 -14 q 290 7 346 -14 q 194 67 233 28 q 133 161 154 106 q 111 285 111 217 l 111 715 q 133 839 111 783 q 194 933 154 894 q 290 993 233 972 q 417 1014 346 1014 q 544 993 488 1014 q 640 933 600 972 q 701 839 679 894 q 722 715 722 783 l 722 285 q 701 162 722 217 q 640 68 679 107 q 543 8 600 29 q 417 -14 486 -14 m 236 285 q 285 148 236 199 q 417 97 333 97 q 549 148 500 97 q 597 285 597 199 l 597 715 q 549 852 597 801 q 417 903 500 903 q 285 852 333 903 q 236 715 236 801 l 236 285 z "},"h":{"ha":833,"x_min":122,"x_max":713,"o":"m 122 0 l 122 1000 l 247 1000 l 247 764 q 247 722 247 744 q 244 679 246 699 q 240 632 242 656 l 251 632 q 324 740 269 701 q 461 778 379 778 q 565 758 518 778 q 644 703 611 739 q 694 619 676 668 q 713 508 713 569 l 713 0 l 588 0 l 588 488 q 543 624 588 575 q 419 672 499 672 q 294 620 340 672 q 247 479 247 568 l 247 0 l 122 0 z "},"k":{"ha":833,"x_min":129,"x_max":785,"o":"m 129 1000 l 254 1000 l 254 444 l 404 444 l 638 764 l 781 764 l 510 394 l 785 0 l 639 0 l 406 333 l 254 333 l 254 0 l 129 0 l 129 1000 z "},"g":{"ha":833,"x_min":101,"x_max":711,"o":"m 101 486 q 119 607 101 553 q 172 699 138 661 q 254 757 206 736 q 363 778 303 778 q 504 738 446 778 q 583 625 563 699 l 593 625 l 593 764 l 711 764 l 711 49 q 632 -161 711 -86 q 410 -236 553 -236 l 222 -236 l 222 -122 l 410 -122 q 540 -78 493 -122 q 586 49 586 -33 l 586 83 l 592 215 l 583 215 q 504 102 563 142 q 363 63 446 63 q 255 83 303 63 q 173 142 207 104 q 120 233 139 179 q 101 354 101 288 l 101 486 m 229 354 q 277 219 229 268 q 408 171 325 171 q 539 219 492 171 q 586 354 586 268 l 586 486 q 539 621 586 572 q 408 669 492 669 q 277 621 325 669 q 229 486 229 572 l 229 354 z "},">":{"ha":833,"x_min":118,"x_max":715,"o":"m 118 90 l 118 215 l 549 425 q 579 439 565 433 q 604 447 593 444 q 625 453 615 451 l 625 463 q 604 468 615 464 q 549 489 581 472 l 118 703 l 118 826 l 715 528 l 715 389 l 118 90 z "},"}":{"ha":833,"x_min":118,"x_max":715,"o":"m 181 1153 q 291 1138 242 1153 q 374 1092 340 1122 q 424 1019 407 1063 q 438 922 440 976 l 424 694 q 426 631 422 657 q 446 588 431 604 q 489 563 461 571 q 563 556 517 556 l 715 556 l 715 444 l 563 444 q 490 437 518 444 q 446 413 461 429 q 426 369 431 396 q 424 306 422 343 l 438 78 q 424 -19 440 24 q 374 -92 407 -62 q 291 -137 340 -122 q 181 -153 242 -153 l 118 -153 l 118 -42 l 181 -42 q 281 -12 247 -42 q 313 78 315 18 l 299 306 q 306 377 297 343 q 335 437 315 411 q 386 478 356 463 q 458 494 417 493 l 458 501 q 385 519 417 503 q 335 561 354 535 q 306 622 315 588 q 299 694 297 657 l 313 922 q 281 1012 315 982 q 181 1042 247 1042 l 118 1042 l 118 1153 l 181 1153 z "},"A":{"ha":833,"x_min":61,"x_max":772,"o":"m 333 1000 l 508 1000 l 772 0 l 639 0 l 569 282 l 263 282 l 192 0 l 61 0 l 333 1000 m 544 386 l 447 782 q 435 835 440 811 q 426 879 429 860 q 421 917 424 900 l 415 917 q 408 879 413 900 q 400 835 406 860 q 388 782 394 811 l 289 386 l 544 386 z "},"B":{"ha":833,"x_min":125,"x_max":739,"o":"m 418 1000 q 640 929 560 1000 q 721 736 721 858 q 670 591 721 647 q 536 528 619 535 l 536 519 q 685 451 632 514 q 739 282 739 389 q 718 165 739 217 q 658 76 697 113 q 561 19 618 39 q 433 0 504 0 l 125 0 l 125 1000 l 418 1000 m 249 458 l 249 114 l 419 114 q 558 160 508 114 q 607 286 607 206 q 557 413 607 367 q 419 458 507 458 l 249 458 m 417 567 q 542 609 496 567 q 589 726 589 651 q 543 844 589 801 q 418 886 497 886 l 249 886 l 249 567 l 417 567 z "},"C":{"ha":833,"x_min":119,"x_max":731,"o":"m 425 -14 q 298 7 354 -14 q 202 67 242 28 q 141 161 163 106 q 119 285 119 217 l 119 715 q 141 839 119 783 q 202 933 163 894 q 298 993 242 972 q 425 1014 354 1014 q 635 942 556 1014 q 731 743 715 871 l 606 743 q 549 860 597 818 q 425 903 501 903 q 293 853 342 903 q 244 715 244 803 l 244 285 q 292 147 244 197 q 425 97 340 97 q 549 140 501 97 q 606 257 597 182 l 731 257 q 635 58 715 129 q 425 -14 556 -14 z "},"D":{"ha":833,"x_min":122,"x_max":722,"o":"m 122 1000 l 401 1000 q 533 978 474 1000 q 634 916 592 956 q 699 820 676 876 q 722 696 722 764 l 722 306 q 699 181 722 238 q 634 84 676 124 q 533 22 592 44 q 401 0 474 0 l 122 0 l 122 1000 m 247 111 l 401 111 q 542 165 489 111 q 596 306 596 218 l 596 696 q 542 836 596 783 q 401 889 489 889 l 247 889 l 247 111 z "},"E":{"ha":833,"x_min":132,"x_max":722,"o":"m 132 0 l 132 1000 l 722 1000 l 722 886 l 257 886 l 257 572 l 674 572 l 674 458 l 257 458 l 257 114 l 722 114 l 722 0 l 132 0 z "},"F":{"ha":833,"x_min":132,"x_max":729,"o":"m 132 1001 l 729 1001 l 729 890 l 254 890 l 254 567 l 693 567 l 693 456 l 257 456 l 257 0 l 132 0 l 132 1001 z "},"G":{"ha":833,"x_min":111,"x_max":729,"o":"m 111 285 l 111 715 q 133 838 111 782 q 195 932 156 893 q 292 992 235 971 q 417 1014 349 1014 q 624 950 543 1014 q 729 764 704 886 l 601 764 q 539 866 588 829 q 417 903 490 903 q 285 853 333 903 q 236 715 236 803 l 236 285 q 285 147 236 197 q 417 97 333 97 q 549 147 500 97 q 597 285 597 197 l 597 403 l 394 403 l 394 514 l 722 514 l 722 285 q 701 161 722 217 q 640 67 679 106 q 544 7 600 28 q 417 -14 488 -14 q 290 7 347 -14 q 194 67 233 28 q 133 161 154 106 q 111 285 111 217 z "},"I":{"ha":833,"x_min":132,"x_max":701,"o":"m 353 110 l 353 890 l 132 890 l 132 1000 l 701 1000 l 701 890 l 481 890 l 481 110 l 701 110 l 701 0 l 132 0 l 132 110 l 353 110 z "},"J":{"ha":833,"x_min":63,"x_max":694,"o":"m 188 243 q 251 137 200 176 q 375 97 303 97 q 517 148 464 97 q 569 285 569 199 l 569 889 l 181 889 l 181 1000 l 694 1000 l 694 285 q 672 161 694 217 q 608 67 650 106 q 508 7 567 28 q 375 -14 449 -14 q 261 4 314 -14 q 167 56 208 22 q 99 138 126 90 q 63 243 72 185 l 188 243 z "},"K":{"ha":833,"x_min":125,"x_max":799,"o":"m 125 1000 l 250 1000 l 250 575 l 410 575 l 638 1000 l 785 1000 l 519 525 l 799 0 l 650 0 l 410 465 l 250 465 l 250 0 l 125 0 l 125 1000 z "},"L":{"ha":833,"x_min":146,"x_max":743,"o":"m 271 1000 l 271 114 l 743 114 l 743 0 l 146 0 l 146 1000 l 271 1000 z "},"M":{"ha":833,"x_min":104,"x_max":729,"o":"m 260 1000 l 379 661 q 392 617 386 640 q 404 574 399 593 q 414 528 410 550 l 425 528 q 436 574 431 550 q 448 617 442 593 q 461 661 454 640 l 574 1000 l 729 1000 l 729 0 l 614 0 l 614 701 q 616 772 614 738 q 621 835 618 807 q 626 894 622 867 l 613 894 q 597 838 606 868 q 580 776 590 810 q 556 701 569 742 l 469 444 l 367 444 l 281 701 q 254 782 265 746 q 235 843 243 818 q 219 896 226 874 l 210 896 q 215 835 213 867 q 218 772 217 807 q 219 701 219 738 l 219 0 l 104 0 l 104 1000 l 260 1000 z "},"N":{"ha":833,"x_min":118,"x_max":715,"o":"m 276 1000 l 542 329 q 563 272 553 304 q 579 210 572 239 q 597 139 589 175 l 608 139 q 607 153 608 139 q 603 193 606 168 q 598 251 600 218 q 596 319 596 283 l 596 1000 l 715 1000 l 715 0 l 557 0 l 296 672 q 274 738 285 704 q 256 799 263 771 q 239 863 246 831 l 228 863 q 233 813 231 840 q 236 756 235 789 q 238 683 238 724 l 238 0 l 118 0 l 118 1000 l 276 1000 z "},"P":{"ha":833,"x_min":125,"x_max":764,"o":"m 463 1000 q 586 979 531 1000 q 681 919 642 958 q 742 827 721 881 q 764 708 764 774 q 742 590 764 643 q 680 497 719 536 q 585 438 640 458 q 463 417 529 417 l 250 417 l 250 0 l 125 0 l 125 1000 l 463 1000 m 250 528 l 463 528 q 588 577 540 528 q 635 708 635 626 q 588 840 635 790 q 463 889 540 889 l 250 889 l 250 528 z "},"Q":{"ha":833,"x_min":111,"x_max":731,"o":"m 111 285 l 111 715 q 133 839 111 783 q 194 933 154 894 q 290 993 233 972 q 417 1014 346 1014 q 544 993 488 1014 q 640 933 600 972 q 701 839 679 894 q 722 715 722 783 l 722 285 q 682 122 722 190 q 568 18 642 53 l 731 -229 l 586 -229 l 443 -12 q 432 -14 439 -14 q 417 -14 425 -14 q 290 7 346 -14 q 194 67 233 28 q 133 161 154 106 q 111 285 111 217 m 417 97 q 549 148 500 97 q 597 285 597 199 l 597 715 q 549 852 597 801 q 417 903 500 903 q 285 852 333 903 q 236 715 236 801 l 236 285 q 285 148 236 199 q 417 97 333 97 z "},"R":{"ha":833,"x_min":125,"x_max":760,"o":"m 125 1000 l 444 1000 q 568 979 513 1000 q 663 919 624 958 q 724 827 703 881 q 746 708 746 774 q 692 531 746 604 q 547 431 639 458 l 760 0 l 613 0 l 418 417 l 250 417 l 250 0 l 125 0 l 125 1000 m 250 528 l 444 528 q 570 577 524 528 q 617 708 617 626 q 569 840 617 790 q 444 889 522 889 l 250 889 l 250 528 z "},"S":{"ha":833,"x_min":97,"x_max":736,"o":"m 97 257 l 229 257 q 281 141 229 185 q 419 97 333 97 q 558 138 508 97 q 608 250 608 179 q 572 358 608 311 q 474 426 536 404 l 356 468 q 128 750 128 550 q 207 943 128 872 q 424 1014 286 1014 q 545 995 490 1014 q 640 942 600 976 q 701 858 679 907 q 724 749 722 808 l 592 749 q 545 861 592 819 q 422 903 499 903 q 299 865 344 903 q 253 761 253 826 q 286 660 253 700 q 394 592 319 619 l 518 547 q 680 434 624 510 q 736 254 736 358 q 651 58 736 129 q 417 -14 565 -14 q 288 6 346 -14 q 188 60 229 25 q 122 146 146 96 q 97 257 99 196 z "},"T":{"ha":833,"x_min":63,"x_max":771,"o":"m 63 890 l 63 1000 l 771 1000 l 771 890 l 481 890 l 481 0 l 353 0 l 353 890 l 63 890 z "},"U":{"ha":833,"x_min":118,"x_max":715,"o":"m 417 -14 q 196 64 274 -14 q 118 278 118 142 l 118 1000 l 243 1000 l 243 278 q 288 146 243 194 q 417 97 332 97 q 545 146 500 97 q 590 278 590 194 l 590 1000 l 715 1000 l 715 278 q 638 63 715 140 q 417 -14 560 -14 z "},"V":{"ha":833,"x_min":61,"x_max":772,"o":"m 61 1000 l 194 1000 l 386 218 q 399 165 393 189 q 407 122 404 140 q 413 83 410 100 l 418 83 q 425 122 421 100 q 433 165 428 140 q 446 218 439 189 l 642 1000 l 772 1000 l 500 0 l 325 0 l 61 1000 z "},"W":{"ha":833,"x_min":35,"x_max":799,"o":"m 35 1000 l 153 1000 l 218 269 q 222 203 221 238 q 225 142 224 169 q 228 76 226 108 l 246 76 q 250 142 247 108 q 254 203 251 169 q 261 269 257 238 l 357 1000 l 479 1000 l 571 269 q 578 205 575 239 q 583 142 581 171 q 588 76 585 108 l 607 76 q 611 142 608 108 q 616 203 614 169 q 621 269 618 238 l 685 1000 l 799 1000 l 697 0 l 519 0 l 438 735 q 429 867 429 817 q 431 919 429 896 l 407 919 q 407 867 408 896 q 406 809 407 843 q 399 735 404 775 l 310 0 l 132 0 l 35 1000 z "},"X":{"ha":833,"x_min":56,"x_max":778,"o":"m 347 510 l 71 1000 l 215 1000 l 372 710 q 403 649 392 676 q 417 621 411 635 l 421 621 q 435 649 426 633 l 465 710 l 625 1000 l 763 1000 l 486 518 l 778 0 l 635 0 l 461 318 l 431 379 q 417 408 422 394 l 413 408 q 400 379 407 394 q 385 351 393 367 q 369 319 378 335 l 194 0 l 56 0 l 347 510 z "},"Y":{"ha":833,"x_min":42,"x_max":792,"o":"m 174 1000 l 379 560 q 395 521 389 540 q 407 486 401 501 q 417 450 413 468 l 422 450 q 433 486 426 468 q 444 521 438 501 q 460 560 451 540 l 658 1000 l 792 1000 l 479 347 l 479 0 l 354 0 l 354 347 l 42 1000 l 174 1000 z "},"Z":{"ha":833,"x_min":118,"x_max":715,"o":"m 700 1000 l 700 888 l 243 107 l 243 104 l 340 110 l 715 110 l 715 0 l 118 0 l 118 111 l 575 892 l 575 894 l 475 890 l 129 890 l 129 1000 l 700 1000 z "},".":{"ha":833,"x_min":297,"x_max":536,"o":"m 297 110 q 330 197 297 164 q 417 229 363 229 q 503 197 471 229 q 536 110 536 164 q 503 20 536 54 q 417 -14 471 -14 q 330 20 363 -14 q 297 110 297 54 z "},"a":{"ha":833,"x_min":88,"x_max":711,"o":"m 88 222 q 106 320 88 276 q 160 394 125 364 q 246 442 196 425 q 358 458 296 458 l 586 458 l 586 521 q 540 631 586 592 q 406 671 493 671 q 297 647 342 671 q 236 582 251 624 l 111 582 q 210 725 131 672 q 408 778 290 778 q 631 712 550 778 q 711 528 711 646 l 711 0 l 597 0 l 597 146 l 586 146 q 501 29 568 72 q 339 -14 435 -14 q 156 50 224 -14 q 88 222 88 114 m 213 225 q 253 125 213 161 q 367 89 293 89 q 454 101 414 89 q 524 137 494 114 q 569 190 553 160 q 586 257 586 221 l 586 361 l 361 361 q 252 325 292 361 q 213 225 213 289 z "},"b":{"ha":833,"x_min":122,"x_max":722,"o":"m 122 1000 l 247 1000 l 247 778 q 247 733 247 758 q 244 685 246 707 q 240 632 242 658 l 251 632 q 325 740 269 701 q 465 778 381 778 q 571 757 524 778 q 651 698 618 736 q 703 604 685 660 q 722 479 722 549 l 722 285 q 703 160 722 215 q 651 66 685 104 q 571 7 618 28 q 465 -14 524 -14 q 325 24 381 -14 q 251 132 269 63 l 240 132 l 240 0 l 122 0 l 122 1000 m 247 285 q 294 146 247 197 q 418 94 340 94 q 549 146 501 94 q 597 285 597 197 l 597 479 q 550 619 597 569 q 418 669 503 669 q 294 618 340 669 q 247 479 247 567 l 247 285 z "},"c":{"ha":833,"x_min":122,"x_max":733,"o":"m 428 -14 q 301 7 357 -14 q 205 67 244 28 q 144 161 165 106 q 122 285 122 217 l 122 479 q 144 603 122 547 q 205 697 165 658 q 301 757 244 736 q 428 778 357 778 q 635 709 554 778 q 733 521 717 640 l 608 521 q 549 627 599 588 q 428 667 500 667 q 296 617 344 667 q 247 479 247 567 l 247 285 q 295 147 247 197 q 428 97 343 97 q 549 137 500 97 q 608 243 599 176 l 733 243 q 634 54 715 122 q 428 -14 553 -14 z "},"e":{"ha":833,"x_min":111,"x_max":722,"o":"m 111 486 q 192 700 111 622 q 417 778 274 778 q 641 700 560 778 q 722 486 722 622 l 722 346 l 236 346 l 236 285 q 284 147 236 197 q 417 97 332 97 q 525 117 479 97 q 593 174 571 136 l 718 174 q 613 36 694 86 q 417 -14 532 -14 q 192 64 274 -14 q 111 278 111 142 l 111 486 m 236 450 l 597 450 l 597 486 q 550 619 597 572 q 417 667 503 667 q 283 619 331 667 q 236 486 236 572 l 236 450 z "},"f":{"ha":833,"x_min":83,"x_max":743,"o":"m 83 574 l 83 688 l 306 688 l 306 806 q 363 949 306 897 q 519 1000 419 1000 l 743 1000 l 743 886 l 519 886 q 431 806 431 886 l 431 688 l 743 688 l 743 574 l 431 574 l 431 0 l 306 0 l 306 574 l 83 574 z "},"j":{"ha":833,"x_min":118,"x_max":632,"o":"m 118 -121 l 285 -121 q 426 -68 372 -121 q 479 69 479 -15 l 479 650 l 160 650 l 160 764 l 604 764 l 604 69 q 581 -53 604 3 q 515 -151 557 -110 q 414 -214 472 -192 q 285 -236 356 -236 l 118 -236 l 118 -121 m 424 978 q 449 1039 424 1015 q 514 1063 474 1063 l 542 1063 q 607 1039 582 1063 q 632 978 632 1015 q 607 918 632 940 q 542 896 582 896 l 514 896 q 449 917 474 896 q 424 978 424 939 z "},"m":{"ha":833,"x_min":86,"x_max":747,"o":"m 86 0 l 86 764 l 194 764 l 194 651 l 204 651 q 240 745 210 713 q 326 778 271 778 q 458 651 429 778 l 467 651 q 506 745 472 713 q 594 778 539 778 q 706 726 665 778 q 747 582 747 674 l 747 0 l 628 0 l 628 582 q 608 656 628 631 q 550 682 588 682 q 488 654 510 682 q 465 575 465 626 l 465 0 l 368 0 l 368 582 q 347 656 368 631 q 286 682 325 682 q 225 654 246 682 q 204 575 204 626 l 204 0 l 86 0 z "},"r":{"ha":833,"x_min":156,"x_max":758,"o":"m 274 764 l 274 632 l 285 632 q 360 739 303 700 q 500 778 417 778 q 690 702 621 778 q 758 494 758 626 l 758 451 l 633 451 l 633 479 q 588 619 633 569 q 460 668 543 668 q 329 617 378 668 q 281 479 281 567 l 281 0 l 156 0 l 156 764 l 274 764 z "},"s":{"ha":833,"x_min":107,"x_max":719,"o":"m 107 188 l 239 188 q 290 122 247 147 q 396 97 333 97 l 435 97 q 551 128 510 97 q 593 213 593 160 q 465 322 593 303 l 350 339 q 182 410 238 356 q 126 561 126 464 q 199 721 126 664 q 403 778 272 778 l 442 778 q 544 764 497 778 q 628 724 592 750 q 687 663 664 699 q 717 585 710 628 l 585 585 q 538 644 576 621 q 442 667 499 667 l 403 667 q 292 639 332 667 q 253 556 253 611 q 280 488 253 511 q 368 457 307 465 l 483 440 q 663 368 607 422 q 719 214 719 314 q 645 47 719 107 q 435 -14 571 -14 l 396 -14 q 197 41 275 -14 q 107 188 118 96 z "},"t":{"ha":833,"x_min":83,"x_max":729,"o":"m 83 764 l 306 764 l 306 1000 l 431 1000 l 431 764 l 729 764 l 729 650 l 431 650 l 431 197 q 455 136 431 158 q 521 114 479 114 l 715 114 l 715 0 l 521 0 q 364 54 422 0 q 306 197 306 108 l 306 650 l 83 650 l 83 764 z "},"v":{"ha":833,"x_min":69,"x_max":764,"o":"m 69 764 l 201 764 l 388 224 q 404 167 399 192 q 413 126 410 143 q 415 90 415 106 l 428 90 q 429 126 426 106 q 436 167 432 143 q 451 224 440 192 l 628 764 l 764 764 l 490 0 l 349 0 l 69 764 z "},"w":{"ha":833,"x_min":42,"x_max":792,"o":"m 42 764 l 153 764 l 221 240 q 226 185 224 215 q 232 128 229 154 q 238 67 235 97 l 253 67 q 260 128 256 97 q 267 185 263 154 q 275 240 271 215 l 356 764 l 475 764 l 556 240 q 564 183 560 214 q 571 126 568 153 q 578 67 575 96 l 594 67 q 600 128 597 97 q 607 184 603 154 q 614 240 611 214 l 683 764 l 792 764 l 683 0 l 513 0 l 433 540 q 428 590 431 564 q 425 638 426 615 q 425 688 425 663 l 407 688 q 406 638 407 663 q 403 590 404 615 q 397 540 401 564 l 315 0 l 149 0 l 42 764 z "},"x":{"ha":833,"x_min":67,"x_max":767,"o":"m 67 0 l 343 392 l 83 764 l 233 764 l 393 521 q 404 502 400 511 q 411 486 408 493 q 415 472 414 479 l 421 472 q 425 486 422 479 q 432 502 428 493 q 443 521 436 511 l 603 764 l 751 764 l 492 393 l 767 0 l 617 0 l 446 258 q 435 277 440 268 q 426 294 431 286 q 419 313 422 304 l 414 313 q 407 294 411 303 q 399 276 403 286 q 388 258 394 267 l 215 0 l 67 0 z "},"y":{"ha":833,"x_min":69,"x_max":764,"o":"m 69 764 l 208 764 l 383 325 q 403 265 396 293 q 415 217 411 238 q 422 169 421 190 l 432 169 q 439 215 433 190 q 450 265 443 238 q 468 325 457 293 l 629 764 l 764 764 l 392 -236 l 258 -236 l 365 56 l 69 764 z "},"z":{"ha":833,"x_min":111,"x_max":722,"o":"m 111 139 l 576 649 l 576 657 q 544 656 561 656 q 512 653 531 654 q 474 653 493 653 l 122 653 l 122 764 l 707 764 l 707 624 l 236 114 l 236 106 q 269 108 251 107 q 303 110 285 110 q 340 111 321 111 l 722 111 l 722 0 l 111 0 l 111 139 z "},",":{"ha":833,"x_min":229,"x_max":521,"o":"m 521 210 l 340 -222 l 229 -222 l 340 210 l 521 210 z "},"-":{"ha":833,"x_min":139,"x_max":694,"o":"m 139 514 l 694 514 l 694 403 l 139 403 l 139 514 z "},"+":{"ha":833,"x_min":90,"x_max":743,"o":"m 90 514 l 356 514 l 356 785 l 478 785 l 478 514 l 743 514 l 743 403 l 478 403 l 478 132 l 356 132 l 356 403 l 90 403 l 90 514 z "},"*":{"ha":833,"x_min":47,"x_max":785,"o":"m 47 538 l 89 653 l 213 608 q 258 588 235 600 q 303 563 281 576 q 347 536 326 550 q 383 510 367 522 l 390 515 q 367 610 379 554 q 356 715 356 667 l 356 847 l 478 847 l 478 715 q 465 610 478 667 q 442 515 453 554 l 449 510 q 485 536 465 522 q 528 563 506 550 q 574 588 551 576 q 619 608 597 600 l 743 653 l 785 538 l 661 493 q 565 469 618 478 q 472 458 513 461 l 467 447 q 538 384 499 422 q 604 308 578 346 l 681 200 l 581 131 l 504 239 q 456 328 478 276 q 421 417 433 379 l 411 417 q 375 328 397 379 q 326 239 353 278 l 251 131 l 151 200 l 226 308 q 294 385 254 347 q 365 449 335 424 l 361 458 q 267 469 321 461 q 171 493 214 478 l 47 538 z "},"/":{"ha":833,"x_min":104,"x_max":729,"o":"m 597 1153 l 729 1153 l 236 -153 l 104 -153 l 597 1153 z "},"\\":{"ha":833,"x_min":104,"x_max":729,"o":"m 729 -153 l 597 -153 l 104 1153 l 236 1153 l 729 -153 z "},":":{"ha":833,"x_min":303,"x_max":531,"o":"m 303 99 q 335 180 303 149 q 417 211 367 211 q 499 180 467 211 q 531 99 531 149 q 499 17 531 49 q 417 -14 467 -14 q 335 17 367 -14 q 303 99 303 49 m 303 665 q 335 747 303 715 q 417 778 367 778 q 499 747 467 778 q 531 665 531 715 q 499 584 531 615 q 417 553 467 553 q 335 584 367 553 q 303 665 303 615 z "},";":{"ha":833,"x_min":229,"x_max":531,"o":"m 229 -222 l 340 210 l 521 210 l 340 -222 l 229 -222 m 417 778 q 499 746 468 778 q 531 665 531 714 q 499 583 531 614 q 417 553 467 553 q 334 584 365 553 q 303 665 303 615 q 334 746 303 714 q 417 778 365 778 z "},"<":{"ha":833,"x_min":118,"x_max":715,"o":"m 118 528 l 715 826 l 715 701 l 285 492 q 254 478 268 483 q 231 469 240 472 q 208 464 218 465 l 208 454 q 231 450 218 453 q 254 442 240 447 q 285 428 268 436 l 715 214 l 715 90 l 118 389 l 118 528 z "},"=":{"ha":833,"x_min":111,"x_max":722,"o":"m 111 347 l 722 347 l 722 236 l 111 236 l 111 347 m 722 681 l 722 569 l 111 569 l 111 681 l 722 681 z "},"!":{"ha":833,"x_min":313,"x_max":521,"o":"m 490 1000 l 490 833 l 461 299 l 372 299 l 343 833 l 343 1000 l 490 1000 m 313 75 q 338 136 313 113 q 403 160 363 160 l 431 160 q 496 136 471 160 q 521 75 521 113 q 496 15 521 38 q 431 -7 471 -7 l 403 -7 q 338 15 363 -7 q 313 75 313 36 z "},"?":{"ha":833,"x_min":188,"x_max":681,"o":"m 188 1000 l 361 1000 q 494 980 435 1000 q 594 922 553 960 q 658 829 636 883 q 681 708 681 775 q 662 599 681 649 q 608 513 643 550 q 525 455 574 476 q 418 431 476 433 l 418 285 l 293 285 l 293 535 l 363 535 q 504 581 453 535 q 556 708 556 626 q 504 836 556 790 q 361 882 453 882 l 188 882 l 188 1000 m 250 75 q 275 136 250 113 q 340 160 300 160 l 368 160 q 433 136 408 160 q 458 75 458 113 q 433 15 458 38 q 368 -7 408 -7 l 340 -7 q 275 15 300 -7 q 250 75 250 36 z "},"'":{"ha":833,"x_min":342,"x_max":476,"o":"m 342 1014 l 476 1014 l 476 806 l 461 597 l 358 597 l 342 806 l 342 1014 z "},"\"":{"ha":833,"x_min":208,"x_max":625,"o":"m 490 1014 l 625 1014 l 625 806 l 610 597 l 507 597 l 490 806 l 490 1014 m 208 806 l 208 1014 l 343 1014 l 343 806 l 328 597 l 225 597 l 208 806 z "},"#":{"ha":833,"x_min":49,"x_max":785,"o":"m 183 368 l 233 632 l 96 632 l 96 722 l 250 722 l 301 1000 l 399 1000 l 347 722 l 569 722 l 621 1000 l 718 1000 l 667 722 l 785 722 l 785 632 l 650 632 l 600 368 l 736 368 l 736 278 l 583 278 l 532 0 l 435 0 l 486 278 l 264 278 l 213 0 l 115 0 l 167 278 l 49 278 l 49 368 l 183 368 m 281 368 l 503 368 l 553 632 l 331 632 l 281 368 z "},"%":{"ha":833,"x_min":42,"x_max":792,"o":"m 49 729 l 49 819 q 95 957 49 907 q 229 1007 142 1007 q 363 957 317 1007 q 410 819 410 907 l 410 729 q 363 592 410 642 q 229 542 317 542 q 95 592 142 542 q 49 729 49 642 m 424 181 l 424 271 q 470 408 424 358 q 604 458 517 458 q 738 408 692 458 q 785 271 785 358 l 785 181 q 738 43 785 93 q 604 -7 692 -7 q 470 43 517 -7 q 424 181 424 93 m 42 293 l 792 790 l 792 703 l 42 206 l 42 293 m 507 271 l 507 181 q 531 99 507 129 q 604 69 556 69 q 679 102 657 69 q 701 181 701 135 l 701 271 q 677 352 701 322 q 604 382 653 382 q 531 352 556 382 q 507 271 507 322 m 132 729 q 156 648 132 678 q 229 618 181 618 q 304 651 282 618 q 326 729 326 683 l 326 819 q 302 901 326 871 q 229 931 278 931 q 156 901 181 931 q 132 819 132 871 l 132 729 z "},"{":{"ha":833,"x_min":118,"x_max":715,"o":"m 118 443 l 118 554 l 271 554 q 344 562 315 554 q 388 586 372 569 q 408 629 403 603 q 410 693 413 656 l 396 922 q 410 1019 393 976 q 460 1092 426 1063 q 542 1138 493 1122 q 653 1153 592 1153 l 715 1153 l 715 1042 l 653 1042 q 552 1012 586 1042 q 521 922 518 982 l 535 693 q 528 622 538 656 q 498 562 518 588 q 447 521 478 536 q 375 504 417 506 l 375 497 q 448 480 417 496 q 499 438 479 464 q 528 376 518 411 q 535 304 538 342 l 521 78 q 552 -12 518 18 q 653 -42 586 -42 l 715 -42 l 715 -153 l 653 -153 q 542 -137 592 -153 q 460 -92 493 -122 q 410 -19 426 -62 q 396 78 393 24 l 410 304 q 408 368 413 342 q 388 411 403 394 q 344 435 372 428 q 271 443 317 443 l 118 443 z "},"|":{"ha":833,"x_min":354,"x_max":479,"o":"m 354 1153 l 479 1153 l 479 -153 l 354 -153 l 354 1153 z "},"[":{"ha":833,"x_min":292,"x_max":632,"o":"m 292 -153 l 292 1153 l 632 1153 l 632 1042 l 417 1042 l 417 -42 l 632 -42 l 632 -153 l 292 -153 z "},"_":{"ha":833,"x_min":83,"x_max":750,"o":"m 83 -35 l 750 -35 l 750 -139 l 83 -139 l 83 -35 z "},")":{"ha":833,"x_min":160,"x_max":576,"o":"m 160 1174 q 333 1100 256 1150 q 464 980 410 1050 q 547 822 518 910 q 576 632 576 733 l 576 368 q 548 176 576 264 q 466 18 519 88 q 335 -100 413 -51 q 160 -174 258 -149 l 160 -50 q 281 3 226 -35 q 373 94 335 40 q 431 218 411 149 q 451 368 451 288 l 451 632 q 431 784 451 714 q 372 910 410 854 q 281 1003 335 965 q 160 1056 226 1040 l 160 1174 z "},"d":{"ha":833,"x_min":111,"x_max":711,"o":"m 111 479 q 130 604 111 549 q 182 698 149 660 q 263 757 215 736 q 368 778 310 778 q 508 740 453 778 q 582 632 564 701 l 593 632 q 590 679 592 656 q 587 723 588 700 q 586 764 586 746 l 586 1000 l 711 1000 l 711 0 l 593 0 l 593 132 l 582 132 q 508 24 564 63 q 368 -14 453 -14 q 263 7 310 -14 q 182 66 215 28 q 130 160 149 104 q 111 285 111 215 l 111 479 m 236 479 l 236 285 q 284 146 236 197 q 415 94 332 94 q 540 146 493 94 q 586 285 586 197 l 586 479 q 540 618 586 567 q 415 669 493 669 q 283 619 331 669 q 236 479 236 569 z "},"q":{"ha":833,"x_min":122,"x_max":722,"o":"m 122 493 q 141 610 122 557 q 193 700 160 663 q 274 758 226 738 q 379 778 321 778 q 519 740 464 778 q 593 632 575 701 l 604 632 l 604 764 l 722 764 l 722 -236 l 597 -236 l 597 0 q 598 42 597 19 q 601 85 599 64 q 604 132 603 108 l 593 132 q 519 24 575 63 q 379 -14 464 -14 q 274 6 321 -14 q 193 64 226 26 q 141 154 160 101 q 122 271 122 207 l 122 493 m 247 285 q 295 146 247 197 q 426 94 343 94 q 551 146 504 94 q 597 285 597 197 l 597 479 q 551 618 597 567 q 426 669 504 669 q 294 619 342 669 q 247 479 247 569 l 247 285 z "},"u":{"ha":833,"x_min":125,"x_max":708,"o":"m 250 764 l 250 269 q 415 96 250 96 q 583 269 583 96 l 583 764 l 708 764 l 708 269 q 633 60 708 133 q 415 -14 557 -14 q 201 60 276 -14 q 125 269 125 135 l 125 764 l 250 764 z "},"—":{"ha":833,"x_min":21,"x_max":813,"o":"m 21 514 l 813 514 l 813 403 l 21 403 l 21 514 z "},"^":{"ha":833,"x_min":111,"x_max":722,"o":"m 360 1000 l 476 1000 l 722 458 l 608 458 l 451 819 q 439 856 444 839 q 429 886 433 872 q 424 917 426 903 l 415 917 q 408 886 413 903 q 400 856 406 872 q 386 819 394 839 l 226 458 l 111 458 l 360 1000 z "},"÷":{"ha":833,"x_min":139,"x_max":694,"o":"m 139 514 l 694 514 l 694 410 l 139 410 l 139 514 m 403 806 l 431 806 q 496 782 471 806 q 521 721 521 758 q 496 661 521 683 q 431 639 471 639 l 403 639 q 338 660 363 639 q 313 721 313 682 q 338 782 313 758 q 403 806 363 806 m 403 285 l 431 285 q 496 261 471 285 q 521 200 521 238 q 496 140 521 163 q 431 118 471 118 l 403 118 q 338 140 363 118 q 313 200 313 161 q 338 261 313 238 q 403 285 363 285 z "},"×":{"ha":833,"x_min":142,"x_max":682,"o":"m 142 261 l 338 457 l 142 654 l 213 725 l 410 529 l 611 731 l 682 658 l 481 457 l 678 261 l 606 189 l 410 386 l 213 189 l 142 261 z "},"±":{"ha":833,"x_min":90,"x_max":743,"o":"m 90 439 l 90 550 l 356 550 l 356 821 l 478 821 l 478 550 l 743 550 l 743 439 l 478 439 l 478 168 l 356 168 l 356 439 l 90 439 m 736 97 l 736 0 l 97 0 l 97 97 l 736 97 z "},"−":{"ha":833,"x_min":139,"x_max":694,"o":"m 139 514 l 694 514 l 694 403 l 139 403 l 139 514 z "},"@":{"ha":833,"x_min":63,"x_max":778,"o":"m 63 174 l 63 611 q 88 780 63 706 q 163 906 114 854 q 281 986 211 958 q 438 1014 350 1014 q 688 936 597 1014 q 778 708 778 858 l 778 104 l 679 104 l 678 240 q 514 90 644 90 q 380 153 426 90 q 333 333 333 217 l 333 444 q 381 624 333 560 q 514 688 428 688 q 616 652 574 688 q 672 558 658 617 q 669 610 671 576 q 667 681 667 643 l 667 708 q 606 865 667 814 q 438 917 546 917 q 242 837 311 917 q 174 611 174 757 l 174 174 q 194 51 174 107 q 250 -43 214 -4 q 338 -103 286 -82 q 451 -125 389 -125 l 549 -125 l 549 -229 l 451 -229 q 290 -201 363 -229 q 167 -120 218 -172 q 90 7 117 -68 q 63 174 63 82 m 444 444 l 444 333 q 470 218 444 258 q 543 178 496 178 q 667 347 667 178 l 667 432 q 543 600 667 600 q 470 560 496 600 q 444 444 444 519 z "},"&":{"ha":833,"x_min":76,"x_max":786,"o":"m 76 389 q 115 510 76 463 q 224 578 153 558 l 214 592 q 156 695 174 650 q 139 785 139 740 q 156 877 139 835 q 206 950 174 919 q 285 997 239 981 q 389 1014 331 1014 q 582 949 513 1014 q 651 776 651 885 l 526 776 q 490 869 526 833 q 389 906 453 906 q 297 870 331 906 q 264 782 264 835 q 313 653 264 721 l 551 324 l 650 500 l 781 500 l 624 224 l 786 0 l 649 0 l 560 121 q 449 20 510 54 q 319 -14 388 -14 q 141 47 206 -14 q 76 215 76 107 l 76 389 m 326 97 q 417 128 374 97 q 492 214 461 160 l 276 507 q 201 389 201 483 l 201 215 q 234 128 201 158 q 326 97 267 97 z "},"]":{"ha":833,"x_min":208,"x_max":549,"o":"m 208 -153 l 208 -42 l 424 -42 l 424 1042 l 208 1042 l 208 1153 l 549 1153 l 549 -153 l 208 -153 z "},"$":{"ha":833,"x_min":97,"x_max":736,"o":"m 225 257 q 267 149 225 190 q 382 97 310 107 l 382 464 l 350 475 q 183 584 239 514 q 126 751 126 654 q 194 932 126 863 q 382 1013 263 1001 l 382 1181 l 465 1181 l 465 1013 q 651 931 582 1001 q 724 749 721 860 l 596 749 q 560 850 596 810 q 465 901 525 890 l 465 567 l 518 547 q 680 433 624 508 q 736 254 736 357 q 664 71 736 142 q 465 -11 592 0 l 465 -194 l 382 -194 l 382 -12 q 176 68 251 -3 q 97 257 100 139 l 225 257 m 465 433 l 465 97 q 575 147 536 108 q 614 250 614 186 q 578 360 614 314 q 474 431 542 407 l 465 433 m 249 760 q 382 597 249 649 l 382 903 q 284 856 319 893 q 249 760 249 818 z "},"\n":{"ha":833,"x_min":0,"x_max":0,"o":""},"–":{"ha":833,"x_min":97,"x_max":736,"o":"m 97 514 l 736 514 l 736 403 l 97 403 l 97 514 z "},"·":{"ha":833,"x_min":297,"x_max":536,"o":"m 297 485 q 330 572 297 539 q 417 604 363 604 q 503 572 471 604 q 536 485 536 539 q 503 395 536 429 q 417 361 471 361 q 330 395 363 361 q 297 485 297 429 z "},"ı":{"ha":833,"x_min":125,"x_max":757,"o":"m 125 114 l 410 114 l 410 650 l 160 650 l 160 764 l 535 764 l 535 114 l 757 114 l 757 0 l 125 0 l 125 114 z "},"€":{"ha":833,"x_min":35,"x_max":744,"o":"m 479 653 l 479 569 l 258 569 l 258 431 l 479 431 l 479 347 l 258 347 l 258 285 q 306 147 258 197 q 439 97 354 97 q 563 140 515 97 q 619 257 611 182 l 744 257 q 649 58 729 129 q 439 -14 569 -14 q 312 7 368 -14 q 216 67 256 28 q 155 161 176 106 q 133 285 133 217 l 133 347 l 35 347 l 35 431 l 133 431 l 133 569 l 35 569 l 35 653 l 133 653 l 133 715 q 155 839 133 783 q 216 933 176 894 q 312 993 256 972 q 439 1014 368 1014 q 649 942 569 1014 q 744 743 729 871 l 619 743 q 563 860 611 818 q 439 903 515 903 q 307 853 356 903 q 258 715 258 803 l 258 653 l 479 653 z "},"•":{"ha":833,"x_min":243,"x_max":590,"o":"m 243 493 q 256 561 243 529 q 293 617 269 593 q 349 653 317 640 q 417 667 381 667 q 485 653 453 667 q 540 617 517 640 q 577 561 564 593 q 590 493 590 529 q 577 425 590 457 q 540 369 564 393 q 485 333 517 346 q 417 319 453 319 q 349 333 381 319 q 293 369 317 346 q 256 425 269 393 q 243 493 243 457 z "},"¦":{"ha":833,"x_min":354,"x_max":479,"o":"m 354 1153 l 479 1153 l 479 625 l 354 625 l 354 1153 m 479 375 l 479 -153 l 354 -153 l 354 375 l 479 375 z "},"»":{"ha":833,"x_min":42,"x_max":792,"o":"m 365 722 l 513 722 l 792 389 l 511 56 l 365 56 l 611 339 q 631 360 622 351 q 646 376 639 369 q 660 388 654 383 l 660 390 q 646 401 654 394 q 631 417 639 408 q 611 439 622 426 l 365 722 m 42 56 l 288 339 q 307 360 299 351 q 322 376 315 369 q 336 388 331 383 l 336 390 q 322 401 331 394 q 307 417 315 408 q 288 439 299 426 l 42 722 l 189 722 l 468 389 l 188 56 l 42 56 z "},"«":{"ha":833,"x_min":42,"x_max":792,"o":"m 644 722 l 792 722 l 546 439 q 526 417 535 426 q 511 401 518 408 q 497 390 503 394 l 497 388 q 511 376 503 383 q 526 360 518 369 q 546 339 535 351 l 792 56 l 646 56 l 365 389 l 644 722 m 42 389 l 321 722 l 468 722 l 222 439 q 203 417 211 426 q 188 401 194 408 q 174 390 179 394 l 174 388 q 188 376 179 383 q 203 360 194 369 q 222 339 211 351 l 468 56 l 322 56 l 42 389 z "},"‹":{"ha":833,"x_min":204,"x_max":631,"o":"m 483 722 l 631 722 l 385 439 q 365 417 374 426 q 350 401 357 408 q 336 390 342 394 l 336 388 q 350 376 342 383 q 365 360 357 369 q 385 339 374 351 l 631 56 l 485 56 l 204 389 l 483 722 z "},"›":{"ha":833,"x_min":203,"x_max":629,"o":"m 203 56 l 449 339 q 468 360 460 351 q 483 376 476 369 q 497 388 492 383 l 497 390 q 483 401 492 394 q 468 417 476 408 q 449 439 460 426 l 203 722 l 350 722 l 629 389 l 349 56 l 203 56 z "},"‘":{"ha":833,"x_min":313,"x_max":604,"o":"m 313 644 l 493 1076 l 604 1076 l 493 644 l 313 644 z "},"’":{"ha":833,"x_min":229,"x_max":521,"o":"m 521 1078 l 340 646 l 229 646 l 340 1078 l 521 1078 z "},"“":{"ha":833,"x_min":111,"x_max":785,"o":"m 674 1076 l 785 1076 l 674 644 l 493 644 l 674 1076 m 111 644 l 292 1076 l 403 1076 l 292 644 l 111 644 z "},"”":{"ha":833,"x_min":49,"x_max":722,"o":"m 431 646 l 542 1078 l 722 1078 l 542 646 l 431 646 m 160 1078 l 340 1078 l 160 646 l 49 646 l 160 1078 z "},"‚":{"ha":833,"x_min":229,"x_max":521,"o":"m 521 210 l 340 -222 l 229 -222 l 340 210 l 521 210 z "},"„":{"ha":833,"x_min":49,"x_max":722,"o":"m 431 -222 l 542 210 l 722 210 l 542 -222 l 431 -222 m 160 210 l 340 210 l 160 -222 l 49 -222 l 160 210 z "},"˜":{"ha":833,"x_min":146,"x_max":688,"o":"m 146 938 q 186 1061 146 1018 q 299 1104 226 1104 q 376 1087 346 1104 q 432 1049 407 1069 q 481 1010 457 1028 q 535 993 504 993 q 581 1013 564 993 q 597 1069 597 1033 l 597 1097 l 688 1097 l 688 1069 q 647 946 688 989 q 535 903 607 903 q 457 920 488 903 q 401 958 426 938 q 353 997 376 979 q 299 1014 331 1014 q 253 994 269 1014 q 236 938 236 974 l 236 910 l 146 910 l 146 938 z "},"¯":{"ha":833,"x_min":236,"x_max":597,"o":"m 236 1069 l 597 1069 l 597 965 l 236 965 l 236 1069 z "},"~":{"ha":833,"x_min":90,"x_max":743,"o":"m 90 354 l 90 451 q 140 583 90 533 q 271 632 189 632 q 346 619 314 632 q 402 585 378 606 q 445 542 426 565 q 481 498 464 518 q 517 465 499 478 q 560 451 536 451 q 625 528 625 451 l 625 625 l 743 625 l 743 528 q 694 397 743 447 q 563 347 644 347 q 488 360 519 347 q 431 394 456 374 q 388 438 407 414 q 352 481 369 461 q 316 515 335 501 q 274 528 297 528 q 208 451 208 528 l 208 354 l 90 354 z "},"˘":{"ha":833,"x_min":181,"x_max":653,"o":"m 181 1097 l 285 1097 q 321 1025 285 1050 q 415 1000 357 1000 q 511 1025 474 1000 q 549 1097 549 1050 l 653 1097 q 635 1021 653 1056 q 585 961 617 986 q 510 923 553 936 q 417 910 467 910 q 324 923 367 910 q 249 961 281 936 q 199 1021 217 986 q 181 1097 181 1056 z "},"˙":{"ha":833,"x_min":299,"x_max":507,"o":"m 389 1118 l 417 1118 q 482 1094 457 1118 q 507 1033 507 1071 q 482 974 507 996 q 417 951 457 951 l 389 951 q 324 973 349 951 q 299 1033 299 994 q 324 1094 299 1071 q 389 1118 349 1118 z "},"˚":{"ha":833,"x_min":250,"x_max":583,"o":"m 417 1125 q 538 1087 492 1125 q 583 986 583 1049 q 538 885 583 924 q 417 847 492 847 q 296 885 342 847 q 250 986 250 924 q 296 1087 250 1049 q 417 1125 342 1125 m 333 986 q 356 937 333 956 q 415 918 379 918 q 477 937 454 918 q 500 986 500 956 q 478 1039 500 1022 q 415 1056 456 1056 q 356 1037 379 1056 q 333 986 333 1018 z "},"`":{"ha":833,"x_min":236,"x_max":542,"o":"m 236 1106 l 389 1106 l 542 903 l 417 903 l 236 1106 z "},"´":{"ha":833,"x_min":319,"x_max":625,"o":"m 444 903 l 319 903 l 472 1106 l 625 1106 l 444 903 z "},"˝":{"ha":833,"x_min":167,"x_max":750,"o":"m 472 1106 l 319 1106 l 167 903 l 292 903 l 472 1106 m 750 1106 l 597 1106 l 444 903 l 569 903 l 750 1106 z "},"à":{"ha":833,"x_min":88,"x_max":711,"o":"m 88 222 q 106 320 88 276 q 160 394 125 364 q 246 442 196 425 q 358 458 296 458 l 586 458 l 586 521 q 540 631 586 592 q 406 671 493 671 q 297 647 342 671 q 236 582 251 624 l 111 582 q 210 725 131 672 q 408 778 290 778 q 631 712 550 778 q 711 528 711 646 l 711 0 l 597 0 l 597 146 l 586 146 q 501 29 568 72 q 339 -14 435 -14 q 156 50 224 -14 q 88 222 88 114 m 213 225 q 253 125 213 161 q 367 89 293 89 q 454 101 414 89 q 524 137 494 114 q 569 190 553 160 q 586 257 586 221 l 586 361 l 361 361 q 252 325 292 361 q 213 225 213 289 m 236 1106 l 389 1106 l 542 903 l 417 903 l 236 1106 z "},"ñ":{"ha":833,"x_min":122,"x_max":713,"o":"m 122 764 l 240 764 l 240 632 l 251 632 q 324 740 269 703 q 461 778 378 778 q 567 758 521 778 q 647 701 614 738 q 696 616 679 665 q 713 508 713 567 l 713 0 l 588 0 l 588 488 q 543 624 588 575 q 419 672 499 672 q 294 620 340 672 q 247 479 247 568 l 247 0 l 122 0 l 122 764 m 146 938 q 186 1061 146 1018 q 299 1104 226 1104 q 376 1087 346 1104 q 432 1049 407 1069 q 481 1010 457 1028 q 535 993 504 993 q 581 1013 564 993 q 597 1069 597 1033 l 597 1097 l 688 1097 l 688 1069 q 647 946 688 989 q 535 903 607 903 q 457 920 488 903 q 401 958 426 938 q 353 997 376 979 q 299 1014 331 1014 q 253 994 269 1014 q 236 938 236 974 l 236 910 l 146 910 l 146 938 z "},"Ű":{"ha":833,"x_min":118,"x_max":715,"o":"m 417 -14 q 196 64 274 -14 q 118 278 118 142 l 118 1000 l 243 1000 l 243 278 q 288 146 243 194 q 417 97 332 97 q 545 146 500 97 q 590 278 590 194 l 590 1000 l 715 1000 l 715 278 q 638 63 715 140 q 417 -14 560 -14 m 472 1328 l 319 1328 l 167 1125 l 292 1125 l 472 1328 m 750 1328 l 597 1328 l 444 1125 l 569 1125 l 750 1328 z "},"ű":{"ha":833,"x_min":125,"x_max":708,"o":"m 250 764 l 250 269 q 415 96 250 96 q 583 269 583 96 l 583 764 l 708 764 l 708 269 q 633 60 708 133 q 415 -14 557 -14 q 201 60 276 -14 q 125 269 125 135 l 125 764 l 250 764 m 472 1106 l 319 1106 l 167 903 l 292 903 l 472 1106 m 750 1106 l 597 1106 l 444 903 l 569 903 l 750 1106 z "},"¨":{"ha":833,"x_min":194,"x_max":639,"o":"m 556 1093 q 616 1070 593 1093 q 639 1010 639 1047 q 616 949 639 972 q 556 926 593 926 q 495 949 518 926 q 472 1010 472 972 q 495 1070 472 1047 q 556 1093 518 1093 m 194 1010 q 217 1070 194 1047 q 278 1093 240 1093 q 338 1070 315 1093 q 361 1010 361 1047 q 338 949 361 972 q 278 926 315 926 q 217 949 240 926 q 194 1010 194 972 z "},"ä":{"ha":833,"x_min":88,"x_max":711,"o":"m 88 222 q 106 320 88 276 q 160 394 125 364 q 246 442 196 425 q 358 458 296 458 l 586 458 l 586 521 q 540 631 586 592 q 406 671 493 671 q 297 647 342 671 q 236 582 251 624 l 111 582 q 210 725 131 672 q 408 778 290 778 q 631 712 550 778 q 711 528 711 646 l 711 0 l 597 0 l 597 146 l 586 146 q 501 29 568 72 q 339 -14 435 -14 q 156 50 224 -14 q 88 222 88 114 m 213 225 q 253 125 213 161 q 367 89 293 89 q 454 101 414 89 q 524 137 494 114 q 569 190 553 160 q 586 257 586 221 l 586 361 l 361 361 q 252 325 292 361 q 213 225 213 289 m 556 1093 q 616 1070 593 1093 q 639 1010 639 1047 q 616 949 639 972 q 556 926 593 926 q 495 949 518 926 q 472 1010 472 972 q 495 1070 472 1047 q 556 1093 518 1093 m 194 1010 q 217 1070 194 1047 q 278 1093 240 1093 q 338 1070 315 1093 q 361 1010 361 1047 q 338 949 361 972 q 278 926 315 926 q 217 949 240 926 q 194 1010 194 972 z "},"ˆ":{"ha":833,"x_min":188,"x_max":646,"o":"m 368 1104 l 465 1104 l 646 903 l 538 903 l 461 982 q 441 1004 449 996 q 428 1018 433 1013 q 419 1029 422 1025 l 415 1029 q 407 1019 413 1025 q 394 1004 401 1013 q 374 983 386 996 l 296 903 l 188 903 l 368 1104 z "},"ˇ":{"ha":833,"x_min":188,"x_max":646,"o":"m 188 1104 l 296 1104 l 374 1024 q 394 1003 386 1011 q 407 989 401 994 q 415 978 413 982 l 419 978 q 428 989 422 982 q 441 1003 433 994 q 461 1025 449 1013 l 538 1104 l 646 1104 l 465 903 l 368 903 l 188 1104 z "},"č":{"ha":833,"x_min":122,"x_max":733,"o":"m 428 -14 q 301 7 357 -14 q 205 67 244 28 q 144 161 165 106 q 122 285 122 217 l 122 479 q 144 603 122 547 q 205 697 165 658 q 301 757 244 736 q 428 778 357 778 q 635 709 554 778 q 733 521 717 640 l 608 521 q 549 627 599 588 q 428 667 500 667 q 296 617 344 667 q 247 479 247 567 l 247 285 q 295 147 247 197 q 428 97 343 97 q 549 137 500 97 q 608 243 599 176 l 733 243 q 634 54 715 122 q 428 -14 553 -14 m 188 1104 l 296 1104 l 374 1024 q 394 1003 386 1011 q 407 989 401 994 q 415 978 413 982 l 419 978 q 428 989 422 982 q 441 1003 433 994 q 461 1025 449 1013 l 538 1104 l 646 1104 l 465 903 l 368 903 l 188 1104 z "},"¸":{"ha":833,"x_min":285,"x_max":569,"o":"m 285 -264 l 285 -187 l 382 -187 q 431 -176 413 -187 q 450 -146 450 -165 q 413 -109 450 -122 q 304 -96 375 -96 l 353 36 l 432 36 l 403 -49 q 486 -65 450 -53 q 544 -99 518 -76 q 569 -157 569 -121 q 524 -235 569 -206 q 403 -264 478 -264 l 285 -264 z "},"˛":{"ha":833,"x_min":257,"x_max":535,"o":"m 375 14 l 479 14 l 464 1 q 396 -69 417 -37 q 375 -129 375 -100 q 395 -177 375 -160 q 451 -194 415 -194 l 535 -194 l 535 -278 l 426 -278 q 303 -244 349 -278 q 257 -153 257 -210 q 283 -72 257 -112 q 375 14 308 -32 z "},"Ų":{"ha":833,"x_min":118,"x_max":715,"o":"m 417 -14 q 196 64 274 -14 q 118 278 118 142 l 118 1000 l 243 1000 l 243 278 q 288 146 243 194 q 417 97 332 97 q 545 146 500 97 q 590 278 590 194 l 590 1000 l 715 1000 l 715 278 q 638 63 715 140 q 417 -14 560 -14 m 479 14 l 583 14 l 568 1 q 500 -69 521 -37 q 479 -129 479 -100 q 499 -177 479 -160 q 556 -194 519 -194 l 639 -194 l 639 -278 l 531 -278 q 407 -244 453 -278 q 361 -153 361 -210 q 387 -72 361 -112 q 479 14 413 -32 z "},"ų":{"ha":833,"x_min":125,"x_max":708,"o":"m 250 764 l 250 269 q 415 96 250 96 q 583 269 583 96 l 583 764 l 708 764 l 708 269 q 633 60 708 133 q 415 -14 557 -14 q 201 60 276 -14 q 125 269 125 135 l 125 764 l 250 764 m 465 14 l 569 14 l 554 1 q 486 -69 507 -37 q 465 -129 465 -100 q 485 -177 465 -160 q 542 -194 506 -194 l 625 -194 l 625 -278 l 517 -278 q 393 -244 439 -278 q 347 -153 347 -210 q 373 -72 347 -112 q 465 14 399 -32 z "},"ç":{"ha":833,"x_min":122,"x_max":733,"o":"m 428 -14 q 301 7 357 -14 q 205 67 244 28 q 144 161 165 106 q 122 285 122 217 l 122 479 q 144 603 122 547 q 205 697 165 658 q 301 757 244 736 q 428 778 357 778 q 635 709 554 778 q 733 521 717 640 l 608 521 q 549 627 599 588 q 428 667 500 667 q 296 617 344 667 q 247 479 247 567 l 247 285 q 295 147 247 197 q 428 97 343 97 q 549 137 500 97 q 608 243 599 176 l 733 243 q 634 54 715 122 q 428 -14 553 -14 m 285 -264 l 285 -187 l 382 -187 q 431 -176 413 -187 q 450 -146 450 -165 q 413 -109 450 -122 q 304 -96 375 -96 l 353 36 l 432 36 l 403 -49 q 486 -65 450 -53 q 544 -99 518 -76 q 569 -157 569 -121 q 524 -235 569 -206 q 403 -264 478 -264 l 285 -264 z "},"À":{"ha":833,"x_min":61,"x_max":772,"o":"m 333 1000 l 508 1000 l 772 0 l 639 0 l 569 282 l 263 282 l 192 0 l 61 0 l 333 1000 m 544 386 l 447 782 q 435 835 440 811 q 426 879 429 860 q 421 917 424 900 l 415 917 q 408 879 413 900 q 400 835 406 860 q 388 782 394 811 l 289 386 l 544 386 m 236 1314 l 389 1314 l 542 1111 l 417 1111 l 236 1314 z "},"Á":{"ha":833,"x_min":61,"x_max":772,"o":"m 333 1000 l 508 1000 l 772 0 l 639 0 l 569 282 l 263 282 l 192 0 l 61 0 l 333 1000 m 544 386 l 447 782 q 435 835 440 811 q 426 879 429 860 q 421 917 424 900 l 415 917 q 408 879 413 900 q 400 835 406 860 q 388 782 394 811 l 289 386 l 544 386 m 444 1125 l 319 1125 l 472 1328 l 625 1328 l 444 1125 z "},"Â":{"ha":833,"x_min":61,"x_max":772,"o":"m 333 1000 l 508 1000 l 772 0 l 639 0 l 569 282 l 263 282 l 192 0 l 61 0 l 333 1000 m 544 386 l 447 782 q 435 835 440 811 q 426 879 429 860 q 421 917 424 900 l 415 917 q 408 879 413 900 q 400 835 406 860 q 388 782 394 811 l 289 386 l 544 386 m 368 1326 l 465 1326 l 646 1125 l 538 1125 l 461 1204 q 441 1226 449 1218 q 428 1240 433 1235 q 419 1251 422 1247 l 415 1251 q 407 1242 413 1247 q 394 1226 401 1235 q 374 1206 386 1218 l 296 1125 l 188 1125 l 368 1326 z "},"Ã":{"ha":833,"x_min":61,"x_max":772,"o":"m 333 1000 l 508 1000 l 772 0 l 639 0 l 569 282 l 263 282 l 192 0 l 61 0 l 333 1000 m 544 386 l 447 782 q 435 835 440 811 q 426 879 429 860 q 421 917 424 900 l 415 917 q 408 879 413 900 q 400 835 406 860 q 388 782 394 811 l 289 386 l 544 386 m 146 1160 q 186 1283 146 1240 q 299 1326 226 1326 q 376 1309 346 1326 q 432 1271 407 1292 q 481 1233 457 1250 q 535 1215 504 1215 q 581 1235 564 1215 q 597 1292 597 1256 l 597 1319 l 688 1319 l 688 1292 q 647 1168 688 1211 q 535 1125 607 1125 q 457 1142 488 1125 q 401 1181 426 1160 q 353 1219 376 1201 q 299 1236 331 1236 q 253 1216 269 1236 q 236 1160 236 1196 l 236 1132 l 146 1132 l 146 1160 z "},"Ä":{"ha":833,"x_min":61,"x_max":772,"o":"m 333 1000 l 508 1000 l 772 0 l 639 0 l 569 282 l 263 282 l 192 0 l 61 0 l 333 1000 m 544 386 l 447 782 q 435 835 440 811 q 426 879 429 860 q 421 917 424 900 l 415 917 q 408 879 413 900 q 400 835 406 860 q 388 782 394 811 l 289 386 l 544 386 m 556 1315 q 616 1292 593 1315 q 639 1232 639 1269 q 616 1172 639 1194 q 556 1149 593 1149 q 495 1172 518 1149 q 472 1232 472 1194 q 495 1292 472 1269 q 556 1315 518 1315 m 194 1232 q 217 1292 194 1269 q 278 1315 240 1315 q 338 1292 315 1315 q 361 1232 361 1269 q 338 1172 361 1194 q 278 1149 315 1149 q 217 1172 240 1149 q 194 1232 194 1194 z "},"Å":{"ha":833,"x_min":61,"x_max":772,"o":"m 333 1000 l 508 1000 l 772 0 l 639 0 l 569 282 l 263 282 l 192 0 l 61 0 l 333 1000 m 544 386 l 447 782 q 435 835 440 811 q 426 879 429 860 q 421 917 424 900 l 415 917 q 408 879 413 900 q 400 835 406 860 q 388 782 394 811 l 289 386 l 544 386 m 417 1333 q 538 1295 492 1333 q 583 1194 583 1257 q 538 1094 583 1132 q 417 1056 492 1056 q 296 1094 342 1056 q 250 1194 250 1132 q 296 1295 250 1257 q 417 1333 342 1333 m 333 1194 q 356 1145 333 1164 q 415 1126 379 1126 q 477 1145 454 1126 q 500 1194 500 1164 q 478 1247 500 1231 q 415 1264 456 1264 q 356 1245 379 1264 q 333 1194 333 1226 z "},"Ç":{"ha":833,"x_min":119,"x_max":731,"o":"m 425 -14 q 298 7 354 -14 q 202 67 242 28 q 141 161 163 106 q 119 285 119 217 l 119 715 q 141 839 119 783 q 202 933 163 894 q 298 993 242 972 q 425 1014 354 1014 q 635 942 556 1014 q 731 743 715 871 l 606 743 q 549 860 597 818 q 425 903 501 903 q 293 853 342 903 q 244 715 244 803 l 244 285 q 292 147 244 197 q 425 97 340 97 q 549 140 501 97 q 606 257 597 182 l 731 257 q 635 58 715 129 q 425 -14 556 -14 m 285 -264 l 285 -187 l 382 -187 q 431 -176 413 -187 q 450 -146 450 -165 q 413 -109 450 -122 q 304 -96 375 -96 l 353 36 l 432 36 l 403 -49 q 486 -65 450 -53 q 544 -99 518 -76 q 569 -157 569 -121 q 524 -235 569 -206 q 403 -264 478 -264 l 285 -264 z "},"È":{"ha":833,"x_min":132,"x_max":722,"o":"m 132 0 l 132 1000 l 722 1000 l 722 886 l 257 886 l 257 572 l 674 572 l 674 458 l 257 458 l 257 114 l 722 114 l 722 0 l 132 0 m 236 1328 l 389 1328 l 542 1125 l 417 1125 l 236 1328 z "},"É":{"ha":833,"x_min":132,"x_max":722,"o":"m 132 0 l 132 1000 l 722 1000 l 722 886 l 257 886 l 257 572 l 674 572 l 674 458 l 257 458 l 257 114 l 722 114 l 722 0 l 132 0 m 444 1125 l 319 1125 l 472 1328 l 625 1328 l 444 1125 z "},"Ê":{"ha":833,"x_min":132,"x_max":722,"o":"m 132 0 l 132 1000 l 722 1000 l 722 886 l 257 886 l 257 572 l 674 572 l 674 458 l 257 458 l 257 114 l 722 114 l 722 0 l 132 0 m 368 1326 l 465 1326 l 646 1125 l 538 1125 l 461 1204 q 441 1226 449 1218 q 428 1240 433 1235 q 419 1251 422 1247 l 415 1251 q 407 1242 413 1247 q 394 1226 401 1235 q 374 1206 386 1218 l 296 1125 l 188 1125 l 368 1326 z "},"Ë":{"ha":833,"x_min":132,"x_max":722,"o":"m 132 0 l 132 1000 l 722 1000 l 722 886 l 257 886 l 257 572 l 674 572 l 674 458 l 257 458 l 257 114 l 722 114 l 722 0 l 132 0 m 556 1315 q 616 1292 593 1315 q 639 1232 639 1269 q 616 1172 639 1194 q 556 1149 593 1149 q 495 1172 518 1149 q 472 1232 472 1194 q 495 1292 472 1269 q 556 1315 518 1315 m 194 1232 q 217 1292 194 1269 q 278 1315 240 1315 q 338 1292 315 1315 q 361 1232 361 1269 q 338 1172 361 1194 q 278 1149 315 1149 q 217 1172 240 1149 q 194 1232 194 1194 z "},"Ì":{"ha":833,"x_min":132,"x_max":701,"o":"m 353 110 l 353 890 l 132 890 l 132 1000 l 701 1000 l 701 890 l 481 890 l 481 110 l 701 110 l 701 0 l 132 0 l 132 110 l 353 110 m 236 1328 l 389 1328 l 542 1125 l 417 1125 l 236 1328 z "},"Í":{"ha":833,"x_min":132,"x_max":701,"o":"m 353 110 l 353 890 l 132 890 l 132 1000 l 701 1000 l 701 890 l 481 890 l 481 110 l 701 110 l 701 0 l 132 0 l 132 110 l 353 110 m 444 1125 l 319 1125 l 472 1328 l 625 1328 l 444 1125 z "},"Î":{"ha":833,"x_min":132,"x_max":701,"o":"m 353 110 l 353 890 l 132 890 l 132 1000 l 701 1000 l 701 890 l 481 890 l 481 110 l 701 110 l 701 0 l 132 0 l 132 110 l 353 110 m 368 1326 l 465 1326 l 646 1125 l 538 1125 l 461 1204 q 441 1226 449 1218 q 428 1240 433 1235 q 419 1251 422 1247 l 415 1251 q 407 1242 413 1247 q 394 1226 401 1235 q 374 1206 386 1218 l 296 1125 l 188 1125 l 368 1326 z "},"Ï":{"ha":833,"x_min":132,"x_max":701,"o":"m 353 110 l 353 890 l 132 890 l 132 1000 l 701 1000 l 701 890 l 481 890 l 481 110 l 701 110 l 701 0 l 132 0 l 132 110 l 353 110 m 556 1315 q 616 1292 593 1315 q 639 1232 639 1269 q 616 1172 639 1194 q 556 1149 593 1149 q 495 1172 518 1149 q 472 1232 472 1194 q 495 1292 472 1269 q 556 1315 518 1315 m 194 1232 q 217 1292 194 1269 q 278 1315 240 1315 q 338 1292 315 1315 q 361 1232 361 1269 q 338 1172 361 1194 q 278 1149 315 1149 q 217 1172 240 1149 q 194 1232 194 1194 z "},"Ò":{"ha":833,"x_min":111,"x_max":722,"o":"m 417 -14 q 290 7 346 -14 q 194 67 233 28 q 133 161 154 106 q 111 285 111 217 l 111 715 q 133 839 111 783 q 194 933 154 894 q 290 993 233 972 q 417 1014 346 1014 q 544 993 488 1014 q 640 933 600 972 q 701 839 679 894 q 722 715 722 783 l 722 285 q 701 162 722 217 q 640 68 679 107 q 543 8 600 29 q 417 -14 486 -14 m 236 285 q 285 148 236 199 q 417 97 333 97 q 549 148 500 97 q 597 285 597 199 l 597 715 q 549 852 597 801 q 417 903 500 903 q 285 852 333 903 q 236 715 236 801 l 236 285 m 236 1328 l 389 1328 l 542 1125 l 417 1125 l 236 1328 z "},"Ó":{"ha":833,"x_min":111,"x_max":722,"o":"m 417 -14 q 290 7 346 -14 q 194 67 233 28 q 133 161 154 106 q 111 285 111 217 l 111 715 q 133 839 111 783 q 194 933 154 894 q 290 993 233 972 q 417 1014 346 1014 q 544 993 488 1014 q 640 933 600 972 q 701 839 679 894 q 722 715 722 783 l 722 285 q 701 162 722 217 q 640 68 679 107 q 543 8 600 29 q 417 -14 486 -14 m 236 285 q 285 148 236 199 q 417 97 333 97 q 549 148 500 97 q 597 285 597 199 l 597 715 q 549 852 597 801 q 417 903 500 903 q 285 852 333 903 q 236 715 236 801 l 236 285 m 444 1125 l 319 1125 l 472 1328 l 625 1328 l 444 1125 z "},"Ô":{"ha":833,"x_min":111,"x_max":722,"o":"m 417 -14 q 290 7 346 -14 q 194 67 233 28 q 133 161 154 106 q 111 285 111 217 l 111 715 q 133 839 111 783 q 194 933 154 894 q 290 993 233 972 q 417 1014 346 1014 q 544 993 488 1014 q 640 933 600 972 q 701 839 679 894 q 722 715 722 783 l 722 285 q 701 162 722 217 q 640 68 679 107 q 543 8 600 29 q 417 -14 486 -14 m 236 285 q 285 148 236 199 q 417 97 333 97 q 549 148 500 97 q 597 285 597 199 l 597 715 q 549 852 597 801 q 417 903 500 903 q 285 852 333 903 q 236 715 236 801 l 236 285 m 368 1326 l 465 1326 l 646 1125 l 538 1125 l 461 1204 q 441 1226 449 1218 q 428 1240 433 1235 q 419 1251 422 1247 l 415 1251 q 407 1242 413 1247 q 394 1226 401 1235 q 374 1206 386 1218 l 296 1125 l 188 1125 l 368 1326 z "},"Õ":{"ha":833,"x_min":111,"x_max":722,"o":"m 417 -14 q 290 7 346 -14 q 194 67 233 28 q 133 161 154 106 q 111 285 111 217 l 111 715 q 133 839 111 783 q 194 933 154 894 q 290 993 233 972 q 417 1014 346 1014 q 544 993 488 1014 q 640 933 600 972 q 701 839 679 894 q 722 715 722 783 l 722 285 q 701 162 722 217 q 640 68 679 107 q 543 8 600 29 q 417 -14 486 -14 m 236 285 q 285 148 236 199 q 417 97 333 97 q 549 148 500 97 q 597 285 597 199 l 597 715 q 549 852 597 801 q 417 903 500 903 q 285 852 333 903 q 236 715 236 801 l 236 285 m 146 1160 q 186 1283 146 1240 q 299 1326 226 1326 q 376 1309 346 1326 q 432 1271 407 1292 q 481 1233 457 1250 q 535 1215 504 1215 q 581 1235 564 1215 q 597 1292 597 1256 l 597 1319 l 688 1319 l 688 1292 q 647 1168 688 1211 q 535 1125 607 1125 q 457 1142 488 1125 q 401 1181 426 1160 q 353 1219 376 1201 q 299 1236 331 1236 q 253 1216 269 1236 q 236 1160 236 1196 l 236 1132 l 146 1132 l 146 1160 z "},"Ö":{"ha":833,"x_min":111,"x_max":722,"o":"m 417 -14 q 290 7 346 -14 q 194 67 233 28 q 133 161 154 106 q 111 285 111 217 l 111 715 q 133 839 111 783 q 194 933 154 894 q 290 993 233 972 q 417 1014 346 1014 q 544 993 488 1014 q 640 933 600 972 q 701 839 679 894 q 722 715 722 783 l 722 285 q 701 162 722 217 q 640 68 679 107 q 543 8 600 29 q 417 -14 486 -14 m 236 285 q 285 148 236 199 q 417 97 333 97 q 549 148 500 97 q 597 285 597 199 l 597 715 q 549 852 597 801 q 417 903 500 903 q 285 852 333 903 q 236 715 236 801 l 236 285 m 556 1315 q 616 1292 593 1315 q 639 1232 639 1269 q 616 1172 639 1194 q 556 1149 593 1149 q 495 1172 518 1149 q 472 1232 472 1194 q 495 1292 472 1269 q 556 1315 518 1315 m 194 1232 q 217 1292 194 1269 q 278 1315 240 1315 q 338 1292 315 1315 q 361 1232 361 1269 q 338 1172 361 1194 q 278 1149 315 1149 q 217 1172 240 1149 q 194 1232 194 1194 z "},"Š":{"ha":833,"x_min":97,"x_max":736,"o":"m 97 257 l 229 257 q 281 141 229 185 q 419 97 333 97 q 558 138 508 97 q 608 250 608 179 q 572 358 608 311 q 474 426 536 404 l 356 468 q 128 750 128 550 q 207 943 128 872 q 424 1014 286 1014 q 545 995 490 1014 q 640 942 600 976 q 701 858 679 907 q 724 749 722 808 l 592 749 q 545 861 592 819 q 422 903 499 903 q 299 865 344 903 q 253 761 253 826 q 286 660 253 700 q 394 592 319 619 l 518 547 q 680 434 624 510 q 736 254 736 358 q 651 58 736 129 q 417 -14 565 -14 q 288 6 346 -14 q 188 60 229 25 q 122 146 146 96 q 97 257 99 196 m 188 1326 l 296 1326 l 374 1246 q 394 1225 386 1233 q 407 1211 401 1217 q 415 1200 413 1204 l 419 1200 q 428 1211 422 1204 q 441 1226 433 1217 q 461 1247 449 1235 l 538 1326 l 646 1326 l 465 1125 l 368 1125 l 188 1326 z "},"Ù":{"ha":833,"x_min":118,"x_max":715,"o":"m 417 -14 q 196 64 274 -14 q 118 278 118 142 l 118 1000 l 243 1000 l 243 278 q 288 146 243 194 q 417 97 332 97 q 545 146 500 97 q 590 278 590 194 l 590 1000 l 715 1000 l 715 278 q 638 63 715 140 q 417 -14 560 -14 m 236 1328 l 389 1328 l 542 1125 l 417 1125 l 236 1328 z "},"Ú":{"ha":833,"x_min":118,"x_max":715,"o":"m 417 -14 q 196 64 274 -14 q 118 278 118 142 l 118 1000 l 243 1000 l 243 278 q 288 146 243 194 q 417 97 332 97 q 545 146 500 97 q 590 278 590 194 l 590 1000 l 715 1000 l 715 278 q 638 63 715 140 q 417 -14 560 -14 m 444 1125 l 319 1125 l 472 1328 l 625 1328 l 444 1125 z "},"Û":{"ha":833,"x_min":118,"x_max":715,"o":"m 417 -14 q 196 64 274 -14 q 118 278 118 142 l 118 1000 l 243 1000 l 243 278 q 288 146 243 194 q 417 97 332 97 q 545 146 500 97 q 590 278 590 194 l 590 1000 l 715 1000 l 715 278 q 638 63 715 140 q 417 -14 560 -14 m 368 1326 l 465 1326 l 646 1125 l 538 1125 l 461 1204 q 441 1226 449 1218 q 428 1240 433 1235 q 419 1251 422 1247 l 415 1251 q 407 1242 413 1247 q 394 1226 401 1235 q 374 1206 386 1218 l 296 1125 l 188 1125 l 368 1326 z "},"Ü":{"ha":833,"x_min":118,"x_max":715,"o":"m 417 -14 q 196 64 274 -14 q 118 278 118 142 l 118 1000 l 243 1000 l 243 278 q 288 146 243 194 q 417 97 332 97 q 545 146 500 97 q 590 278 590 194 l 590 1000 l 715 1000 l 715 278 q 638 63 715 140 q 417 -14 560 -14 m 556 1315 q 616 1292 593 1315 q 639 1232 639 1269 q 616 1172 639 1194 q 556 1149 593 1149 q 495 1172 518 1149 q 472 1232 472 1194 q 495 1292 472 1269 q 556 1315 518 1315 m 194 1232 q 217 1292 194 1269 q 278 1315 240 1315 q 338 1292 315 1315 q 361 1232 361 1269 q 338 1172 361 1194 q 278 1149 315 1149 q 217 1172 240 1149 q 194 1232 194 1194 z "},"Ÿ":{"ha":833,"x_min":42,"x_max":792,"o":"m 174 1000 l 379 560 q 395 521 389 540 q 407 486 401 501 q 417 450 413 468 l 422 450 q 433 486 426 468 q 444 521 438 501 q 460 560 451 540 l 658 1000 l 792 1000 l 479 347 l 479 0 l 354 0 l 354 347 l 42 1000 l 174 1000 m 556 1315 q 616 1292 593 1315 q 639 1232 639 1269 q 616 1172 639 1194 q 556 1149 593 1149 q 495 1172 518 1149 q 472 1232 472 1194 q 495 1292 472 1269 q 556 1315 518 1315 m 194 1232 q 217 1292 194 1269 q 278 1315 240 1315 q 338 1292 315 1315 q 361 1232 361 1269 q 338 1172 361 1194 q 278 1149 315 1149 q 217 1172 240 1149 q 194 1232 194 1194 z "},"Ý":{"ha":833,"x_min":42,"x_max":792,"o":"m 174 1000 l 379 560 q 395 521 389 540 q 407 486 401 501 q 417 450 413 468 l 422 450 q 433 486 426 468 q 444 521 438 501 q 460 560 451 540 l 658 1000 l 792 1000 l 479 347 l 479 0 l 354 0 l 354 347 l 42 1000 l 174 1000 m 444 1125 l 319 1125 l 472 1328 l 625 1328 l 444 1125 z "},"Ž":{"ha":833,"x_min":118,"x_max":715,"o":"m 700 1000 l 700 888 l 243 107 l 243 104 l 340 110 l 715 110 l 715 0 l 118 0 l 118 111 l 575 892 l 575 894 l 475 890 l 129 890 l 129 1000 l 700 1000 m 188 1326 l 296 1326 l 374 1246 q 394 1225 386 1233 q 407 1211 401 1217 q 415 1200 413 1204 l 419 1200 q 428 1211 422 1204 q 441 1226 433 1217 q 461 1247 449 1235 l 538 1326 l 646 1326 l 465 1125 l 368 1125 l 188 1326 z "},"á":{"ha":833,"x_min":88,"x_max":711,"o":"m 88 222 q 106 320 88 276 q 160 394 125 364 q 246 442 196 425 q 358 458 296 458 l 586 458 l 586 521 q 540 631 586 592 q 406 671 493 671 q 297 647 342 671 q 236 582 251 624 l 111 582 q 210 725 131 672 q 408 778 290 778 q 631 712 550 778 q 711 528 711 646 l 711 0 l 597 0 l 597 146 l 586 146 q 501 29 568 72 q 339 -14 435 -14 q 156 50 224 -14 q 88 222 88 114 m 213 225 q 253 125 213 161 q 367 89 293 89 q 454 101 414 89 q 524 137 494 114 q 569 190 553 160 q 586 257 586 221 l 586 361 l 361 361 q 252 325 292 361 q 213 225 213 289 m 444 903 l 319 903 l 472 1106 l 625 1106 l 444 903 z "},"â":{"ha":833,"x_min":88,"x_max":711,"o":"m 88 222 q 106 320 88 276 q 160 394 125 364 q 246 442 196 425 q 358 458 296 458 l 586 458 l 586 521 q 540 631 586 592 q 406 671 493 671 q 297 647 342 671 q 236 582 251 624 l 111 582 q 210 725 131 672 q 408 778 290 778 q 631 712 550 778 q 711 528 711 646 l 711 0 l 597 0 l 597 146 l 586 146 q 501 29 568 72 q 339 -14 435 -14 q 156 50 224 -14 q 88 222 88 114 m 213 225 q 253 125 213 161 q 367 89 293 89 q 454 101 414 89 q 524 137 494 114 q 569 190 553 160 q 586 257 586 221 l 586 361 l 361 361 q 252 325 292 361 q 213 225 213 289 m 368 1104 l 465 1104 l 646 903 l 538 903 l 461 982 q 441 1004 449 996 q 428 1018 433 1013 q 419 1029 422 1025 l 415 1029 q 407 1019 413 1025 q 394 1004 401 1013 q 374 983 386 996 l 296 903 l 188 903 l 368 1104 z "},"ã":{"ha":833,"x_min":88,"x_max":711,"o":"m 88 222 q 106 320 88 276 q 160 394 125 364 q 246 442 196 425 q 358 458 296 458 l 586 458 l 586 521 q 540 631 586 592 q 406 671 493 671 q 297 647 342 671 q 236 582 251 624 l 111 582 q 210 725 131 672 q 408 778 290 778 q 631 712 550 778 q 711 528 711 646 l 711 0 l 597 0 l 597 146 l 586 146 q 501 29 568 72 q 339 -14 435 -14 q 156 50 224 -14 q 88 222 88 114 m 213 225 q 253 125 213 161 q 367 89 293 89 q 454 101 414 89 q 524 137 494 114 q 569 190 553 160 q 586 257 586 221 l 586 361 l 361 361 q 252 325 292 361 q 213 225 213 289 m 146 938 q 186 1061 146 1018 q 299 1104 226 1104 q 376 1087 346 1104 q 432 1049 407 1069 q 481 1010 457 1028 q 535 993 504 993 q 581 1013 564 993 q 597 1069 597 1033 l 597 1097 l 688 1097 l 688 1069 q 647 946 688 989 q 535 903 607 903 q 457 920 488 903 q 401 958 426 938 q 353 997 376 979 q 299 1014 331 1014 q 253 994 269 1014 q 236 938 236 974 l 236 910 l 146 910 l 146 938 z "},"å":{"ha":833,"x_min":88,"x_max":711,"o":"m 88 222 q 106 320 88 276 q 160 394 125 364 q 246 442 196 425 q 358 458 296 458 l 586 458 l 586 521 q 540 631 586 592 q 406 671 493 671 q 297 647 342 671 q 236 582 251 624 l 111 582 q 210 725 131 672 q 408 778 290 778 q 631 712 550 778 q 711 528 711 646 l 711 0 l 597 0 l 597 146 l 586 146 q 501 29 568 72 q 339 -14 435 -14 q 156 50 224 -14 q 88 222 88 114 m 213 225 q 253 125 213 161 q 367 89 293 89 q 454 101 414 89 q 524 137 494 114 q 569 190 553 160 q 586 257 586 221 l 586 361 l 361 361 q 252 325 292 361 q 213 225 213 289 m 417 1125 q 538 1087 492 1125 q 583 986 583 1049 q 538 885 583 924 q 417 847 492 847 q 296 885 342 847 q 250 986 250 924 q 296 1087 250 1049 q 417 1125 342 1125 m 333 986 q 356 937 333 956 q 415 918 379 918 q 477 937 454 918 q 500 986 500 956 q 478 1039 500 1022 q 415 1056 456 1056 q 356 1037 379 1056 q 333 986 333 1018 z "},"è":{"ha":833,"x_min":111,"x_max":722,"o":"m 111 486 q 192 700 111 622 q 417 778 274 778 q 641 700 560 778 q 722 486 722 622 l 722 346 l 236 346 l 236 285 q 284 147 236 197 q 417 97 332 97 q 525 117 479 97 q 593 174 571 136 l 718 174 q 613 36 694 86 q 417 -14 532 -14 q 192 64 274 -14 q 111 278 111 142 l 111 486 m 236 450 l 597 450 l 597 486 q 550 619 597 572 q 417 667 503 667 q 283 619 331 667 q 236 486 236 572 l 236 450 m 236 1106 l 389 1106 l 542 903 l 417 903 l 236 1106 z "},"é":{"ha":833,"x_min":111,"x_max":722,"o":"m 111 486 q 192 700 111 622 q 417 778 274 778 q 641 700 560 778 q 722 486 722 622 l 722 346 l 236 346 l 236 285 q 284 147 236 197 q 417 97 332 97 q 525 117 479 97 q 593 174 571 136 l 718 174 q 613 36 694 86 q 417 -14 532 -14 q 192 64 274 -14 q 111 278 111 142 l 111 486 m 236 450 l 597 450 l 597 486 q 550 619 597 572 q 417 667 503 667 q 283 619 331 667 q 236 486 236 572 l 236 450 m 444 903 l 319 903 l 472 1106 l 625 1106 l 444 903 z "},"ê":{"ha":833,"x_min":111,"x_max":722,"o":"m 111 486 q 192 700 111 622 q 417 778 274 778 q 641 700 560 778 q 722 486 722 622 l 722 346 l 236 346 l 236 285 q 284 147 236 197 q 417 97 332 97 q 525 117 479 97 q 593 174 571 136 l 718 174 q 613 36 694 86 q 417 -14 532 -14 q 192 64 274 -14 q 111 278 111 142 l 111 486 m 236 450 l 597 450 l 597 486 q 550 619 597 572 q 417 667 503 667 q 283 619 331 667 q 236 486 236 572 l 236 450 m 368 1104 l 465 1104 l 646 903 l 538 903 l 461 982 q 441 1004 449 996 q 428 1018 433 1013 q 419 1029 422 1025 l 415 1029 q 407 1019 413 1025 q 394 1004 401 1013 q 374 983 386 996 l 296 903 l 188 903 l 368 1104 z "},"ë":{"ha":833,"x_min":111,"x_max":722,"o":"m 111 486 q 192 700 111 622 q 417 778 274 778 q 641 700 560 778 q 722 486 722 622 l 722 346 l 236 346 l 236 285 q 284 147 236 197 q 417 97 332 97 q 525 117 479 97 q 593 174 571 136 l 718 174 q 613 36 694 86 q 417 -14 532 -14 q 192 64 274 -14 q 111 278 111 142 l 111 486 m 236 450 l 597 450 l 597 486 q 550 619 597 572 q 417 667 503 667 q 283 619 331 667 q 236 486 236 572 l 236 450 m 556 1093 q 616 1070 593 1093 q 639 1010 639 1047 q 616 949 639 972 q 556 926 593 926 q 495 949 518 926 q 472 1010 472 972 q 495 1070 472 1047 q 556 1093 518 1093 m 194 1010 q 217 1070 194 1047 q 278 1093 240 1093 q 338 1070 315 1093 q 361 1010 361 1047 q 338 949 361 972 q 278 926 315 926 q 217 949 240 926 q 194 1010 194 972 z "},"ì":{"ha":833,"x_min":125,"x_max":757,"o":"m 125 114 l 410 114 l 410 650 l 160 650 l 160 764 l 535 764 l 535 114 l 757 114 l 757 0 l 125 0 l 125 114 m 236 1106 l 389 1106 l 542 903 l 417 903 l 236 1106 z "},"í":{"ha":833,"x_min":125,"x_max":757,"o":"m 125 114 l 410 114 l 410 650 l 160 650 l 160 764 l 535 764 l 535 114 l 757 114 l 757 0 l 125 0 l 125 114 m 444 903 l 319 903 l 472 1106 l 625 1106 l 444 903 z "},"î":{"ha":833,"x_min":125,"x_max":757,"o":"m 125 114 l 410 114 l 410 650 l 160 650 l 160 764 l 535 764 l 535 114 l 757 114 l 757 0 l 125 0 l 125 114 m 368 1104 l 465 1104 l 646 903 l 538 903 l 461 982 q 441 1004 449 996 q 428 1018 433 1013 q 419 1029 422 1025 l 415 1029 q 407 1019 413 1025 q 394 1004 401 1013 q 374 983 386 996 l 296 903 l 188 903 l 368 1104 z "},"ï":{"ha":833,"x_min":125,"x_max":757,"o":"m 125 114 l 410 114 l 410 650 l 160 650 l 160 764 l 535 764 l 535 114 l 757 114 l 757 0 l 125 0 l 125 114 m 556 1093 q 616 1070 593 1093 q 639 1010 639 1047 q 616 949 639 972 q 556 926 593 926 q 495 949 518 926 q 472 1010 472 972 q 495 1070 472 1047 q 556 1093 518 1093 m 194 1010 q 217 1070 194 1047 q 278 1093 240 1093 q 338 1070 315 1093 q 361 1010 361 1047 q 338 949 361 972 q 278 926 315 926 q 217 949 240 926 q 194 1010 194 972 z "},"ò":{"ha":833,"x_min":111,"x_max":722,"o":"m 417 -14 q 290 7 346 -14 q 194 67 233 28 q 133 161 154 106 q 111 285 111 217 l 111 479 q 133 603 111 549 q 194 697 154 658 q 290 757 233 736 q 417 778 346 778 q 640 699 558 778 q 722 481 722 619 l 722 285 q 641 66 722 146 q 417 -14 560 -14 m 236 285 q 284 147 236 197 q 417 97 332 97 q 549 147 500 97 q 597 285 597 197 l 597 479 q 549 617 597 567 q 417 667 500 667 q 285 617 333 667 q 236 479 236 567 l 236 285 m 236 1106 l 389 1106 l 542 903 l 417 903 l 236 1106 z "},"ó":{"ha":833,"x_min":111,"x_max":722,"o":"m 417 -14 q 290 7 346 -14 q 194 67 233 28 q 133 161 154 106 q 111 285 111 217 l 111 479 q 133 603 111 549 q 194 697 154 658 q 290 757 233 736 q 417 778 346 778 q 640 699 558 778 q 722 481 722 619 l 722 285 q 641 66 722 146 q 417 -14 560 -14 m 236 285 q 284 147 236 197 q 417 97 332 97 q 549 147 500 97 q 597 285 597 197 l 597 479 q 549 617 597 567 q 417 667 500 667 q 285 617 333 667 q 236 479 236 567 l 236 285 m 444 903 l 319 903 l 472 1106 l 625 1106 l 444 903 z "},"ô":{"ha":833,"x_min":111,"x_max":722,"o":"m 417 -14 q 290 7 346 -14 q 194 67 233 28 q 133 161 154 106 q 111 285 111 217 l 111 479 q 133 603 111 549 q 194 697 154 658 q 290 757 233 736 q 417 778 346 778 q 640 699 558 778 q 722 481 722 619 l 722 285 q 641 66 722 146 q 417 -14 560 -14 m 236 285 q 284 147 236 197 q 417 97 332 97 q 549 147 500 97 q 597 285 597 197 l 597 479 q 549 617 597 567 q 417 667 500 667 q 285 617 333 667 q 236 479 236 567 l 236 285 m 368 1104 l 465 1104 l 646 903 l 538 903 l 461 982 q 441 1004 449 996 q 428 1018 433 1013 q 419 1029 422 1025 l 415 1029 q 407 1019 413 1025 q 394 1004 401 1013 q 374 983 386 996 l 296 903 l 188 903 l 368 1104 z "},"õ":{"ha":833,"x_min":111,"x_max":722,"o":"m 417 -14 q 290 7 346 -14 q 194 67 233 28 q 133 161 154 106 q 111 285 111 217 l 111 479 q 133 603 111 549 q 194 697 154 658 q 290 757 233 736 q 417 778 346 778 q 640 699 558 778 q 722 481 722 619 l 722 285 q 641 66 722 146 q 417 -14 560 -14 m 236 285 q 284 147 236 197 q 417 97 332 97 q 549 147 500 97 q 597 285 597 197 l 597 479 q 549 617 597 567 q 417 667 500 667 q 285 617 333 667 q 236 479 236 567 l 236 285 m 146 938 q 186 1061 146 1018 q 299 1104 226 1104 q 376 1087 346 1104 q 432 1049 407 1069 q 481 1010 457 1028 q 535 993 504 993 q 581 1013 564 993 q 597 1069 597 1033 l 597 1097 l 688 1097 l 688 1069 q 647 946 688 989 q 535 903 607 903 q 457 920 488 903 q 401 958 426 938 q 353 997 376 979 q 299 1014 331 1014 q 253 994 269 1014 q 236 938 236 974 l 236 910 l 146 910 l 146 938 z "},"ö":{"ha":833,"x_min":111,"x_max":722,"o":"m 417 -14 q 290 7 346 -14 q 194 67 233 28 q 133 161 154 106 q 111 285 111 217 l 111 479 q 133 603 111 549 q 194 697 154 658 q 290 757 233 736 q 417 778 346 778 q 640 699 558 778 q 722 481 722 619 l 722 285 q 641 66 722 146 q 417 -14 560 -14 m 236 285 q 284 147 236 197 q 417 97 332 97 q 549 147 500 97 q 597 285 597 197 l 597 479 q 549 617 597 567 q 417 667 500 667 q 285 617 333 667 q 236 479 236 567 l 236 285 m 556 1093 q 616 1070 593 1093 q 639 1010 639 1047 q 616 949 639 972 q 556 926 593 926 q 495 949 518 926 q 472 1010 472 972 q 495 1070 472 1047 q 556 1093 518 1093 m 194 1010 q 217 1070 194 1047 q 278 1093 240 1093 q 338 1070 315 1093 q 361 1010 361 1047 q 338 949 361 972 q 278 926 315 926 q 217 949 240 926 q 194 1010 194 972 z "},"š":{"ha":833,"x_min":107,"x_max":719,"o":"m 107 188 l 239 188 q 290 122 247 147 q 396 97 333 97 l 435 97 q 551 128 510 97 q 593 213 593 160 q 465 322 593 303 l 350 339 q 182 410 238 356 q 126 561 126 464 q 199 721 126 664 q 403 778 272 778 l 442 778 q 544 764 497 778 q 628 724 592 750 q 687 663 664 699 q 717 585 710 628 l 585 585 q 538 644 576 621 q 442 667 499 667 l 403 667 q 292 639 332 667 q 253 556 253 611 q 280 488 253 511 q 368 457 307 465 l 483 440 q 663 368 607 422 q 719 214 719 314 q 645 47 719 107 q 435 -14 571 -14 l 396 -14 q 197 41 275 -14 q 107 188 118 96 m 188 1104 l 296 1104 l 374 1024 q 394 1003 386 1011 q 407 989 401 994 q 415 978 413 982 l 419 978 q 428 989 422 982 q 441 1003 433 994 q 461 1025 449 1013 l 538 1104 l 646 1104 l 465 903 l 368 903 l 188 1104 z "},"ù":{"ha":833,"x_min":125,"x_max":708,"o":"m 250 764 l 250 269 q 415 96 250 96 q 583 269 583 96 l 583 764 l 708 764 l 708 269 q 633 60 708 133 q 415 -14 557 -14 q 201 60 276 -14 q 125 269 125 135 l 125 764 l 250 764 m 236 1106 l 389 1106 l 542 903 l 417 903 l 236 1106 z "},"ú":{"ha":833,"x_min":125,"x_max":708,"o":"m 250 764 l 250 269 q 415 96 250 96 q 583 269 583 96 l 583 764 l 708 764 l 708 269 q 633 60 708 133 q 415 -14 557 -14 q 201 60 276 -14 q 125 269 125 135 l 125 764 l 250 764 m 444 903 l 319 903 l 472 1106 l 625 1106 l 444 903 z "},"û":{"ha":833,"x_min":125,"x_max":708,"o":"m 250 764 l 250 269 q 415 96 250 96 q 583 269 583 96 l 583 764 l 708 764 l 708 269 q 633 60 708 133 q 415 -14 557 -14 q 201 60 276 -14 q 125 269 125 135 l 125 764 l 250 764 m 368 1104 l 465 1104 l 646 903 l 538 903 l 461 982 q 441 1004 449 996 q 428 1018 433 1013 q 419 1029 422 1025 l 415 1029 q 407 1019 413 1025 q 394 1004 401 1013 q 374 983 386 996 l 296 903 l 188 903 l 368 1104 z "},"ü":{"ha":833,"x_min":125,"x_max":708,"o":"m 250 764 l 250 269 q 415 96 250 96 q 583 269 583 96 l 583 764 l 708 764 l 708 269 q 633 60 708 133 q 415 -14 557 -14 q 201 60 276 -14 q 125 269 125 135 l 125 764 l 250 764 m 556 1093 q 616 1070 593 1093 q 639 1010 639 1047 q 616 949 639 972 q 556 926 593 926 q 495 949 518 926 q 472 1010 472 972 q 495 1070 472 1047 q 556 1093 518 1093 m 194 1010 q 217 1070 194 1047 q 278 1093 240 1093 q 338 1070 315 1093 q 361 1010 361 1047 q 338 949 361 972 q 278 926 315 926 q 217 949 240 926 q 194 1010 194 972 z "},"ý":{"ha":833,"x_min":69,"x_max":764,"o":"m 69 764 l 208 764 l 383 325 q 403 265 396 293 q 415 217 411 238 q 422 169 421 190 l 432 169 q 439 215 433 190 q 450 265 443 238 q 468 325 457 293 l 629 764 l 764 764 l 392 -236 l 258 -236 l 365 56 l 69 764 m 444 903 l 319 903 l 472 1106 l 625 1106 l 444 903 z "},"ÿ":{"ha":833,"x_min":69,"x_max":764,"o":"m 69 764 l 208 764 l 383 325 q 403 265 396 293 q 415 217 411 238 q 422 169 421 190 l 432 169 q 439 215 433 190 q 450 265 443 238 q 468 325 457 293 l 629 764 l 764 764 l 392 -236 l 258 -236 l 365 56 l 69 764 m 556 1093 q 616 1070 593 1093 q 639 1010 639 1047 q 616 949 639 972 q 556 926 593 926 q 495 949 518 926 q 472 1010 472 972 q 495 1070 472 1047 q 556 1093 518 1093 m 194 1010 q 217 1070 194 1047 q 278 1093 240 1093 q 338 1070 315 1093 q 361 1010 361 1047 q 338 949 361 972 q 278 926 315 926 q 217 949 240 926 q 194 1010 194 972 z "},"ž":{"ha":833,"x_min":111,"x_max":722,"o":"m 111 139 l 576 649 l 576 657 q 544 656 561 656 q 512 653 531 654 q 474 653 493 653 l 122 653 l 122 764 l 707 764 l 707 624 l 236 114 l 236 106 q 269 108 251 107 q 303 110 285 110 q 340 111 321 111 l 722 111 l 722 0 l 111 0 l 111 139 m 188 1104 l 296 1104 l 374 1024 q 394 1003 386 1011 q 407 989 401 994 q 415 978 413 982 l 419 978 q 428 989 422 982 q 441 1003 433 994 q 461 1025 449 1013 l 538 1104 l 646 1104 l 465 903 l 368 903 l 188 1104 z "},"Ñ":{"ha":833,"x_min":118,"x_max":715,"o":"m 276 1000 l 542 329 q 563 272 553 304 q 579 210 572 239 q 597 139 589 175 l 608 139 q 607 153 608 139 q 603 193 606 168 q 598 251 600 218 q 596 319 596 283 l 596 1000 l 715 1000 l 715 0 l 557 0 l 296 672 q 274 738 285 704 q 256 799 263 771 q 239 863 246 831 l 228 863 q 233 813 231 840 q 236 756 235 789 q 238 683 238 724 l 238 0 l 118 0 l 118 1000 l 276 1000 m 146 1160 q 186 1283 146 1240 q 299 1326 226 1326 q 376 1309 346 1326 q 432 1271 407 1292 q 481 1233 457 1250 q 535 1215 504 1215 q 581 1235 564 1215 q 597 1292 597 1256 l 597 1319 l 688 1319 l 688 1292 q 647 1168 688 1211 q 535 1125 607 1125 q 457 1142 488 1125 q 401 1181 426 1160 q 353 1219 376 1201 q 299 1236 331 1236 q 253 1216 269 1236 q 236 1160 236 1196 l 236 1132 l 146 1132 l 146 1160 z "},"Đ":{"ha":833,"x_min":49,"x_max":722,"o":"m 122 549 l 122 1000 l 401 1000 q 533 978 474 1000 q 634 916 592 956 q 699 820 676 876 q 722 696 722 764 l 722 306 q 699 181 722 238 q 634 84 676 124 q 533 22 592 44 q 401 0 474 0 l 122 0 l 122 444 l 49 444 l 49 549 l 122 549 m 417 549 l 417 444 l 247 444 l 247 111 l 401 111 q 542 165 489 111 q 596 306 596 218 l 596 696 q 542 836 596 783 q 401 889 489 889 l 247 889 l 247 549 l 417 549 z "},"Ð":{"ha":833,"x_min":49,"x_max":722,"o":"m 122 549 l 122 1000 l 401 1000 q 533 978 474 1000 q 634 916 592 956 q 699 820 676 876 q 722 696 722 764 l 722 306 q 699 181 722 238 q 634 84 676 124 q 533 22 592 44 q 401 0 474 0 l 122 0 l 122 444 l 49 444 l 49 549 l 122 549 m 417 549 l 417 444 l 247 444 l 247 111 l 401 111 q 542 165 489 111 q 596 306 596 218 l 596 696 q 542 836 596 783 q 401 889 489 889 l 247 889 l 247 549 l 417 549 z "},"þ":{"ha":833,"x_min":115,"x_max":715,"o":"m 240 1000 l 240 778 q 240 733 240 758 q 238 685 239 707 q 233 632 235 658 l 244 632 q 318 740 263 701 q 458 778 374 778 q 564 757 517 778 q 644 698 611 736 q 697 604 678 660 q 715 479 715 549 l 715 285 q 697 160 715 215 q 644 66 678 104 q 564 7 611 28 q 458 -14 517 -14 q 318 24 374 -14 q 244 132 263 63 l 233 132 l 233 -236 l 115 -236 l 115 1000 l 240 1000 m 240 285 q 287 146 240 197 q 411 94 333 94 q 542 146 494 94 q 590 285 590 197 l 590 479 q 543 619 590 569 q 411 669 496 669 q 287 618 333 669 q 240 479 240 567 l 240 285 z "},"Ø":{"ha":833,"x_min":49,"x_max":785,"o":"m 49 -56 l 150 125 q 111 285 111 194 l 111 715 q 133 839 111 783 q 194 933 154 894 q 290 993 233 972 q 417 1014 346 1014 q 525 999 476 1014 q 613 957 574 985 l 660 1042 l 785 1042 l 688 868 q 722 715 722 801 l 722 285 q 701 162 722 217 q 640 68 679 107 q 543 8 600 29 q 417 -14 486 -14 q 226 40 304 -14 l 174 -56 l 49 -56 m 551 847 q 417 903 504 903 q 285 852 333 903 q 236 715 236 801 l 236 285 l 236 281 l 551 847 m 286 147 q 417 97 336 97 q 549 148 500 97 q 597 285 597 199 l 597 706 l 286 147 z "},"ø":{"ha":833,"x_min":49,"x_max":785,"o":"m 49 -42 l 157 113 q 123 190 135 147 q 111 285 111 233 l 111 479 q 133 603 111 549 q 194 697 154 658 q 290 757 233 736 q 417 778 346 778 q 593 735 519 778 l 653 819 l 785 819 l 672 660 q 722 481 722 586 l 722 285 q 641 66 722 146 q 417 -14 560 -14 q 233 35 307 -14 l 179 -42 l 49 -42 m 301 132 q 417 97 347 97 q 549 147 500 97 q 597 285 597 197 l 597 479 q 589 542 597 513 l 301 132 m 525 636 q 417 667 479 667 q 285 617 333 667 q 236 479 236 567 l 236 285 q 242 233 236 254 l 525 636 z "},"ł":{"ha":833,"x_min":56,"x_max":764,"o":"m 56 1014 l 433 1014 l 433 629 l 653 778 l 653 667 l 433 518 l 433 222 q 461 142 433 171 q 538 114 489 114 l 764 114 l 764 0 l 538 0 q 369 59 431 0 q 308 222 308 118 l 308 433 l 139 319 l 139 431 l 308 544 l 308 900 l 56 900 l 56 1014 z "},"Ł":{"ha":833,"x_min":28,"x_max":743,"o":"m 28 431 l 146 510 l 146 1000 l 271 1000 l 271 594 l 542 778 l 542 667 l 271 483 l 271 114 l 743 114 l 743 0 l 146 0 l 146 399 l 28 319 l 28 431 z "},"Ā":{"ha":833,"x_min":61,"x_max":772,"o":"m 333 1000 l 508 1000 l 772 0 l 639 0 l 569 282 l 263 282 l 192 0 l 61 0 l 333 1000 m 544 386 l 447 782 q 435 835 440 811 q 426 879 429 860 q 421 917 424 900 l 415 917 q 408 879 413 900 q 400 835 406 860 q 388 782 394 811 l 289 386 l 544 386 m 236 1292 l 597 1292 l 597 1188 l 236 1188 l 236 1292 z "},"ā":{"ha":833,"x_min":88,"x_max":711,"o":"m 88 222 q 106 320 88 276 q 160 394 125 364 q 246 442 196 425 q 358 458 296 458 l 586 458 l 586 521 q 540 631 586 592 q 406 671 493 671 q 297 647 342 671 q 236 582 251 624 l 111 582 q 210 725 131 672 q 408 778 290 778 q 631 712 550 778 q 711 528 711 646 l 711 0 l 597 0 l 597 146 l 586 146 q 501 29 568 72 q 339 -14 435 -14 q 156 50 224 -14 q 88 222 88 114 m 213 225 q 253 125 213 161 q 367 89 293 89 q 454 101 414 89 q 524 137 494 114 q 569 190 553 160 q 586 257 586 221 l 586 361 l 361 361 q 252 325 292 361 q 213 225 213 289 m 236 1069 l 597 1069 l 597 965 l 236 965 l 236 1069 z "},"Ă":{"ha":833,"x_min":61,"x_max":772,"o":"m 333 1000 l 508 1000 l 772 0 l 639 0 l 569 282 l 263 282 l 192 0 l 61 0 l 333 1000 m 544 386 l 447 782 q 435 835 440 811 q 426 879 429 860 q 421 917 424 900 l 415 917 q 408 879 413 900 q 400 835 406 860 q 388 782 394 811 l 289 386 l 544 386 m 181 1319 l 285 1319 q 321 1247 285 1272 q 415 1222 357 1222 q 511 1247 474 1222 q 549 1319 549 1272 l 653 1319 q 635 1243 653 1278 q 585 1183 617 1208 q 510 1145 553 1158 q 417 1132 467 1132 q 324 1145 367 1132 q 249 1183 281 1158 q 199 1243 217 1208 q 181 1319 181 1278 z "},"ă":{"ha":833,"x_min":88,"x_max":711,"o":"m 88 222 q 106 320 88 276 q 160 394 125 364 q 246 442 196 425 q 358 458 296 458 l 586 458 l 586 521 q 540 631 586 592 q 406 671 493 671 q 297 647 342 671 q 236 582 251 624 l 111 582 q 210 725 131 672 q 408 778 290 778 q 631 712 550 778 q 711 528 711 646 l 711 0 l 597 0 l 597 146 l 586 146 q 501 29 568 72 q 339 -14 435 -14 q 156 50 224 -14 q 88 222 88 114 m 213 225 q 253 125 213 161 q 367 89 293 89 q 454 101 414 89 q 524 137 494 114 q 569 190 553 160 q 586 257 586 221 l 586 361 l 361 361 q 252 325 292 361 q 213 225 213 289 m 181 1097 l 285 1097 q 321 1025 285 1050 q 415 1000 357 1000 q 511 1025 474 1000 q 549 1097 549 1050 l 653 1097 q 635 1021 653 1056 q 585 961 617 986 q 510 923 553 936 q 417 910 467 910 q 324 923 367 910 q 249 961 281 936 q 199 1021 217 986 q 181 1097 181 1056 z "},"Ą":{"ha":833,"x_min":61,"x_max":806,"o":"m 333 1000 l 508 1000 l 772 0 l 639 0 l 569 282 l 263 282 l 192 0 l 61 0 l 333 1000 m 544 386 l 447 782 q 435 835 440 811 q 426 879 429 860 q 421 917 424 900 l 415 917 q 408 879 413 900 q 400 835 406 860 q 388 782 394 811 l 289 386 l 544 386 m 646 14 l 750 14 l 735 1 q 667 -69 688 -37 q 646 -129 646 -100 q 666 -177 646 -160 q 722 -194 686 -194 l 806 -194 l 806 -278 l 697 -278 q 574 -244 619 -278 q 528 -153 528 -210 q 553 -72 528 -112 q 646 14 579 -32 z "},"ą":{"ha":833,"x_min":88,"x_max":764,"o":"m 88 222 q 106 320 88 276 q 160 394 125 364 q 246 442 196 425 q 358 458 296 458 l 586 458 l 586 521 q 540 631 586 592 q 406 671 493 671 q 297 647 342 671 q 236 582 251 624 l 111 582 q 210 725 131 672 q 408 778 290 778 q 631 712 550 778 q 711 528 711 646 l 711 0 l 597 0 l 597 146 l 586 146 q 501 29 568 72 q 339 -14 435 -14 q 156 50 224 -14 q 88 222 88 114 m 213 225 q 253 125 213 161 q 367 89 293 89 q 454 101 414 89 q 524 137 494 114 q 569 190 553 160 q 586 257 586 221 l 586 361 l 361 361 q 252 325 292 361 q 213 225 213 289 m 604 14 l 708 14 l 693 1 q 625 -69 646 -37 q 604 -129 604 -100 q 624 -177 604 -160 q 681 -194 644 -194 l 764 -194 l 764 -278 l 656 -278 q 532 -244 578 -278 q 486 -153 486 -210 q 512 -72 486 -112 q 604 14 538 -32 z "},"Ć":{"ha":833,"x_min":119,"x_max":731,"o":"m 425 -14 q 298 7 354 -14 q 202 67 242 28 q 141 161 163 106 q 119 285 119 217 l 119 715 q 141 839 119 783 q 202 933 163 894 q 298 993 242 972 q 425 1014 354 1014 q 635 942 556 1014 q 731 743 715 871 l 606 743 q 549 860 597 818 q 425 903 501 903 q 293 853 342 903 q 244 715 244 803 l 244 285 q 292 147 244 197 q 425 97 340 97 q 549 140 501 97 q 606 257 597 182 l 731 257 q 635 58 715 129 q 425 -14 556 -14 m 444 1125 l 319 1125 l 472 1328 l 625 1328 l 444 1125 z "},"ć":{"ha":833,"x_min":122,"x_max":733,"o":"m 428 -14 q 301 7 357 -14 q 205 67 244 28 q 144 161 165 106 q 122 285 122 217 l 122 479 q 144 603 122 547 q 205 697 165 658 q 301 757 244 736 q 428 778 357 778 q 635 709 554 778 q 733 521 717 640 l 608 521 q 549 627 599 588 q 428 667 500 667 q 296 617 344 667 q 247 479 247 567 l 247 285 q 295 147 247 197 q 428 97 343 97 q 549 137 500 97 q 608 243 599 176 l 733 243 q 634 54 715 122 q 428 -14 553 -14 m 444 903 l 319 903 l 472 1106 l 625 1106 l 444 903 z "},"Ĉ":{"ha":833,"x_min":119,"x_max":731,"o":"m 425 -14 q 298 7 354 -14 q 202 67 242 28 q 141 161 163 106 q 119 285 119 217 l 119 715 q 141 839 119 783 q 202 933 163 894 q 298 993 242 972 q 425 1014 354 1014 q 635 942 556 1014 q 731 743 715 871 l 606 743 q 549 860 597 818 q 425 903 501 903 q 293 853 342 903 q 244 715 244 803 l 244 285 q 292 147 244 197 q 425 97 340 97 q 549 140 501 97 q 606 257 597 182 l 731 257 q 635 58 715 129 q 425 -14 556 -14 m 368 1326 l 465 1326 l 646 1125 l 538 1125 l 461 1204 q 441 1226 449 1218 q 428 1240 433 1235 q 419 1251 422 1247 l 415 1251 q 407 1242 413 1247 q 394 1226 401 1235 q 374 1206 386 1218 l 296 1125 l 188 1125 l 368 1326 z "},"ĉ":{"ha":833,"x_min":122,"x_max":733,"o":"m 428 -14 q 301 7 357 -14 q 205 67 244 28 q 144 161 165 106 q 122 285 122 217 l 122 479 q 144 603 122 547 q 205 697 165 658 q 301 757 244 736 q 428 778 357 778 q 635 709 554 778 q 733 521 717 640 l 608 521 q 549 627 599 588 q 428 667 500 667 q 296 617 344 667 q 247 479 247 567 l 247 285 q 295 147 247 197 q 428 97 343 97 q 549 137 500 97 q 608 243 599 176 l 733 243 q 634 54 715 122 q 428 -14 553 -14 m 368 1104 l 465 1104 l 646 903 l 538 903 l 461 982 q 441 1004 449 996 q 428 1018 433 1013 q 419 1029 422 1025 l 415 1029 q 407 1019 413 1025 q 394 1004 401 1013 q 374 983 386 996 l 296 903 l 188 903 l 368 1104 z "},"Ċ":{"ha":833,"x_min":119,"x_max":731,"o":"m 425 -14 q 298 7 354 -14 q 202 67 242 28 q 141 161 163 106 q 119 285 119 217 l 119 715 q 141 839 119 783 q 202 933 163 894 q 298 993 242 972 q 425 1014 354 1014 q 635 942 556 1014 q 731 743 715 871 l 606 743 q 549 860 597 818 q 425 903 501 903 q 293 853 342 903 q 244 715 244 803 l 244 285 q 292 147 244 197 q 425 97 340 97 q 549 140 501 97 q 606 257 597 182 l 731 257 q 635 58 715 129 q 425 -14 556 -14 m 389 1340 l 417 1340 q 482 1317 457 1340 q 507 1256 507 1293 q 482 1196 507 1218 q 417 1174 457 1174 l 389 1174 q 324 1195 349 1174 q 299 1256 299 1217 q 324 1317 299 1293 q 389 1340 349 1340 z "},"ċ":{"ha":833,"x_min":122,"x_max":733,"o":"m 428 -14 q 301 7 357 -14 q 205 67 244 28 q 144 161 165 106 q 122 285 122 217 l 122 479 q 144 603 122 547 q 205 697 165 658 q 301 757 244 736 q 428 778 357 778 q 635 709 554 778 q 733 521 717 640 l 608 521 q 549 627 599 588 q 428 667 500 667 q 296 617 344 667 q 247 479 247 567 l 247 285 q 295 147 247 197 q 428 97 343 97 q 549 137 500 97 q 608 243 599 176 l 733 243 q 634 54 715 122 q 428 -14 553 -14 m 389 1118 l 417 1118 q 482 1094 457 1118 q 507 1033 507 1071 q 482 974 507 996 q 417 951 457 951 l 389 951 q 324 973 349 951 q 299 1033 299 994 q 324 1094 299 1071 q 389 1118 349 1118 z "},"Č":{"ha":833,"x_min":119,"x_max":731,"o":"m 425 -14 q 298 7 354 -14 q 202 67 242 28 q 141 161 163 106 q 119 285 119 217 l 119 715 q 141 839 119 783 q 202 933 163 894 q 298 993 242 972 q 425 1014 354 1014 q 635 942 556 1014 q 731 743 715 871 l 606 743 q 549 860 597 818 q 425 903 501 903 q 293 853 342 903 q 244 715 244 803 l 244 285 q 292 147 244 197 q 425 97 340 97 q 549 140 501 97 q 606 257 597 182 l 731 257 q 635 58 715 129 q 425 -14 556 -14 m 188 1326 l 296 1326 l 374 1246 q 394 1225 386 1233 q 407 1211 401 1217 q 415 1200 413 1204 l 419 1200 q 428 1211 422 1204 q 441 1226 433 1217 q 461 1247 449 1235 l 538 1326 l 646 1326 l 465 1125 l 368 1125 l 188 1326 z "},"Ď":{"ha":833,"x_min":122,"x_max":722,"o":"m 122 1000 l 401 1000 q 533 978 474 1000 q 634 916 592 956 q 699 820 676 876 q 722 696 722 764 l 722 306 q 699 181 722 238 q 634 84 676 124 q 533 22 592 44 q 401 0 474 0 l 122 0 l 122 1000 m 247 111 l 401 111 q 542 165 489 111 q 596 306 596 218 l 596 696 q 542 836 596 783 q 401 889 489 889 l 247 889 l 247 111 m 188 1326 l 296 1326 l 374 1246 q 394 1225 386 1233 q 407 1211 401 1217 q 415 1200 413 1204 l 419 1200 q 428 1211 422 1204 q 441 1226 433 1217 q 461 1247 449 1235 l 538 1326 l 646 1326 l 465 1125 l 368 1125 l 188 1326 z "},"ď":{"ha":833,"x_min":83,"x_max":908,"o":"m 83 479 q 102 604 83 549 q 154 698 121 660 q 235 757 188 736 q 340 778 282 778 q 481 740 425 778 q 554 632 536 701 l 565 632 q 563 679 564 656 q 559 723 560 700 q 558 764 558 746 l 558 1000 l 683 1000 l 683 0 l 565 0 l 565 132 l 554 132 q 481 24 536 63 q 340 -14 425 -14 q 235 7 282 -14 q 154 66 188 28 q 102 160 121 104 q 83 285 83 215 l 83 479 m 388 94 q 512 146 465 94 q 558 285 558 197 l 558 479 q 512 618 558 567 q 388 669 465 669 q 256 619 303 669 q 208 479 208 569 l 208 285 q 256 146 208 197 q 388 94 304 94 m 783 1050 l 908 1050 l 811 847 l 714 847 l 783 1050 z "},"Ē":{"ha":833,"x_min":132,"x_max":722,"o":"m 132 0 l 132 1000 l 722 1000 l 722 886 l 257 886 l 257 572 l 674 572 l 674 458 l 257 458 l 257 114 l 722 114 l 722 0 l 132 0 m 236 1292 l 597 1292 l 597 1188 l 236 1188 l 236 1292 z "},"ē":{"ha":833,"x_min":111,"x_max":722,"o":"m 111 486 q 192 700 111 622 q 417 778 274 778 q 641 700 560 778 q 722 486 722 622 l 722 346 l 236 346 l 236 285 q 284 147 236 197 q 417 97 332 97 q 525 117 479 97 q 593 174 571 136 l 718 174 q 613 36 694 86 q 417 -14 532 -14 q 192 64 274 -14 q 111 278 111 142 l 111 486 m 236 450 l 597 450 l 597 486 q 550 619 597 572 q 417 667 503 667 q 283 619 331 667 q 236 486 236 572 l 236 450 m 236 1069 l 597 1069 l 597 965 l 236 965 l 236 1069 z "},"Ĕ":{"ha":833,"x_min":132,"x_max":722,"o":"m 132 0 l 132 1000 l 722 1000 l 722 886 l 257 886 l 257 572 l 674 572 l 674 458 l 257 458 l 257 114 l 722 114 l 722 0 l 132 0 m 181 1319 l 285 1319 q 321 1247 285 1272 q 415 1222 357 1222 q 511 1247 474 1222 q 549 1319 549 1272 l 653 1319 q 635 1243 653 1278 q 585 1183 617 1208 q 510 1145 553 1158 q 417 1132 467 1132 q 324 1145 367 1132 q 249 1183 281 1158 q 199 1243 217 1208 q 181 1319 181 1278 z "},"ĕ":{"ha":833,"x_min":111,"x_max":722,"o":"m 111 486 q 192 700 111 622 q 417 778 274 778 q 641 700 560 778 q 722 486 722 622 l 722 346 l 236 346 l 236 285 q 284 147 236 197 q 417 97 332 97 q 525 117 479 97 q 593 174 571 136 l 718 174 q 613 36 694 86 q 417 -14 532 -14 q 192 64 274 -14 q 111 278 111 142 l 111 486 m 236 450 l 597 450 l 597 486 q 550 619 597 572 q 417 667 503 667 q 283 619 331 667 q 236 486 236 572 l 236 450 m 181 1097 l 285 1097 q 321 1025 285 1050 q 415 1000 357 1000 q 511 1025 474 1000 q 549 1097 549 1050 l 653 1097 q 635 1021 653 1056 q 585 961 617 986 q 510 923 553 936 q 417 910 467 910 q 324 923 367 910 q 249 961 281 936 q 199 1021 217 986 q 181 1097 181 1056 z "},"Ė":{"ha":833,"x_min":132,"x_max":722,"o":"m 132 0 l 132 1000 l 722 1000 l 722 886 l 257 886 l 257 572 l 674 572 l 674 458 l 257 458 l 257 114 l 722 114 l 722 0 l 132 0 m 389 1340 l 417 1340 q 482 1317 457 1340 q 507 1256 507 1293 q 482 1196 507 1218 q 417 1174 457 1174 l 389 1174 q 324 1195 349 1174 q 299 1256 299 1217 q 324 1317 299 1293 q 389 1340 349 1340 z "},"ė":{"ha":833,"x_min":111,"x_max":722,"o":"m 111 486 q 192 700 111 622 q 417 778 274 778 q 641 700 560 778 q 722 486 722 622 l 722 346 l 236 346 l 236 285 q 284 147 236 197 q 417 97 332 97 q 525 117 479 97 q 593 174 571 136 l 718 174 q 613 36 694 86 q 417 -14 532 -14 q 192 64 274 -14 q 111 278 111 142 l 111 486 m 236 450 l 597 450 l 597 486 q 550 619 597 572 q 417 667 503 667 q 283 619 331 667 q 236 486 236 572 l 236 450 m 389 1118 l 417 1118 q 482 1094 457 1118 q 507 1033 507 1071 q 482 974 507 996 q 417 951 457 951 l 389 951 q 324 973 349 951 q 299 1033 299 994 q 324 1094 299 1071 q 389 1118 349 1118 z "},"Ę":{"ha":833,"x_min":132,"x_max":722,"o":"m 132 0 l 132 1000 l 722 1000 l 722 886 l 257 886 l 257 572 l 674 572 l 674 458 l 257 458 l 257 114 l 722 114 l 722 0 l 132 0 m 563 14 l 667 14 l 651 1 q 583 -69 604 -37 q 563 -129 563 -100 q 583 -177 563 -160 q 639 -194 603 -194 l 722 -194 l 722 -278 l 614 -278 q 490 -244 536 -278 q 444 -153 444 -210 q 470 -72 444 -112 q 563 14 496 -32 z "},"ę":{"ha":833,"x_min":111,"x_max":722,"o":"m 111 486 q 192 700 111 622 q 417 778 274 778 q 641 700 560 778 q 722 486 722 622 l 722 346 l 236 346 l 236 285 q 284 147 236 197 q 417 97 332 97 q 525 117 479 97 q 593 174 571 136 l 718 174 q 636 53 697 101 l 582 0 q 529 -64 546 -36 q 513 -119 513 -92 q 535 -174 513 -154 q 597 -194 557 -194 l 694 -194 l 694 -278 l 564 -278 q 495 -267 526 -278 q 442 -239 464 -257 q 409 -198 421 -221 q 397 -150 397 -175 q 413 -86 397 -118 q 458 -25 429 -54 l 474 -10 q 417 -14 447 -14 q 192 64 274 -14 q 111 278 111 142 l 111 486 m 236 450 l 597 450 l 597 486 q 550 619 597 572 q 417 667 503 667 q 283 619 331 667 q 236 486 236 572 l 236 450 z "},"Ě":{"ha":833,"x_min":132,"x_max":722,"o":"m 132 0 l 132 1000 l 722 1000 l 722 886 l 257 886 l 257 572 l 674 572 l 674 458 l 257 458 l 257 114 l 722 114 l 722 0 l 132 0 m 188 1326 l 296 1326 l 374 1246 q 394 1225 386 1233 q 407 1211 401 1217 q 415 1200 413 1204 l 419 1200 q 428 1211 422 1204 q 441 1226 433 1217 q 461 1247 449 1235 l 538 1326 l 646 1326 l 465 1125 l 368 1125 l 188 1326 z "},"ě":{"ha":833,"x_min":111,"x_max":722,"o":"m 111 486 q 192 700 111 622 q 417 778 274 778 q 641 700 560 778 q 722 486 722 622 l 722 346 l 236 346 l 236 285 q 284 147 236 197 q 417 97 332 97 q 525 117 479 97 q 593 174 571 136 l 718 174 q 613 36 694 86 q 417 -14 532 -14 q 192 64 274 -14 q 111 278 111 142 l 111 486 m 236 450 l 597 450 l 597 486 q 550 619 597 572 q 417 667 503 667 q 283 619 331 667 q 236 486 236 572 l 236 450 m 188 1104 l 296 1104 l 374 1024 q 394 1003 386 1011 q 407 989 401 994 q 415 978 413 982 l 419 978 q 428 989 422 982 q 441 1003 433 994 q 461 1025 449 1013 l 538 1104 l 646 1104 l 465 903 l 368 903 l 188 1104 z "},"Ĝ":{"ha":833,"x_min":111,"x_max":729,"o":"m 111 285 l 111 715 q 133 838 111 782 q 195 932 156 893 q 292 992 235 971 q 417 1014 349 1014 q 624 950 543 1014 q 729 764 704 886 l 601 764 q 539 866 588 829 q 417 903 490 903 q 285 853 333 903 q 236 715 236 803 l 236 285 q 285 147 236 197 q 417 97 333 97 q 549 147 500 97 q 597 285 597 197 l 597 403 l 394 403 l 394 514 l 722 514 l 722 285 q 701 161 722 217 q 640 67 679 106 q 544 7 600 28 q 417 -14 488 -14 q 290 7 347 -14 q 194 67 233 28 q 133 161 154 106 q 111 285 111 217 m 368 1326 l 465 1326 l 646 1125 l 538 1125 l 461 1204 q 441 1226 449 1218 q 428 1240 433 1235 q 419 1251 422 1247 l 415 1251 q 407 1242 413 1247 q 394 1226 401 1235 q 374 1206 386 1218 l 296 1125 l 188 1125 l 368 1326 z "},"ĝ":{"ha":833,"x_min":101,"x_max":711,"o":"m 101 486 q 119 607 101 553 q 172 699 138 661 q 254 757 206 736 q 363 778 303 778 q 504 738 446 778 q 583 625 563 699 l 593 625 l 593 764 l 711 764 l 711 49 q 632 -161 711 -86 q 410 -236 553 -236 l 222 -236 l 222 -122 l 410 -122 q 540 -78 493 -122 q 586 49 586 -33 l 586 83 l 592 215 l 583 215 q 504 102 563 142 q 363 63 446 63 q 255 83 303 63 q 173 142 207 104 q 120 233 139 179 q 101 354 101 288 l 101 486 m 229 354 q 277 219 229 268 q 408 171 325 171 q 539 219 492 171 q 586 354 586 268 l 586 486 q 539 621 586 572 q 408 669 492 669 q 277 621 325 669 q 229 486 229 572 l 229 354 m 368 1104 l 465 1104 l 646 903 l 538 903 l 461 982 q 441 1004 449 996 q 428 1018 433 1013 q 419 1029 422 1025 l 415 1029 q 407 1019 413 1025 q 394 1004 401 1013 q 374 983 386 996 l 296 903 l 188 903 l 368 1104 z "},"Ğ":{"ha":833,"x_min":111,"x_max":729,"o":"m 111 285 l 111 715 q 133 838 111 782 q 195 932 156 893 q 292 992 235 971 q 417 1014 349 1014 q 624 950 543 1014 q 729 764 704 886 l 601 764 q 539 866 588 829 q 417 903 490 903 q 285 853 333 903 q 236 715 236 803 l 236 285 q 285 147 236 197 q 417 97 333 97 q 549 147 500 97 q 597 285 597 197 l 597 403 l 394 403 l 394 514 l 722 514 l 722 285 q 701 161 722 217 q 640 67 679 106 q 544 7 600 28 q 417 -14 488 -14 q 290 7 347 -14 q 194 67 233 28 q 133 161 154 106 q 111 285 111 217 m 181 1319 l 285 1319 q 321 1247 285 1272 q 415 1222 357 1222 q 511 1247 474 1222 q 549 1319 549 1272 l 653 1319 q 635 1243 653 1278 q 585 1183 617 1208 q 510 1145 553 1158 q 417 1132 467 1132 q 324 1145 367 1132 q 249 1183 281 1158 q 199 1243 217 1208 q 181 1319 181 1278 z "},"ğ":{"ha":833,"x_min":101,"x_max":711,"o":"m 101 486 q 119 607 101 553 q 172 699 138 661 q 254 757 206 736 q 363 778 303 778 q 504 738 446 778 q 583 625 563 699 l 593 625 l 593 764 l 711 764 l 711 49 q 632 -161 711 -86 q 410 -236 553 -236 l 222 -236 l 222 -122 l 410 -122 q 540 -78 493 -122 q 586 49 586 -33 l 586 83 l 592 215 l 583 215 q 504 102 563 142 q 363 63 446 63 q 255 83 303 63 q 173 142 207 104 q 120 233 139 179 q 101 354 101 288 l 101 486 m 229 354 q 277 219 229 268 q 408 171 325 171 q 539 219 492 171 q 586 354 586 268 l 586 486 q 539 621 586 572 q 408 669 492 669 q 277 621 325 669 q 229 486 229 572 l 229 354 m 181 1097 l 285 1097 q 321 1025 285 1050 q 415 1000 357 1000 q 511 1025 474 1000 q 549 1097 549 1050 l 653 1097 q 635 1021 653 1056 q 585 961 617 986 q 510 923 553 936 q 417 910 467 910 q 324 923 367 910 q 249 961 281 936 q 199 1021 217 986 q 181 1097 181 1056 z "},"Ġ":{"ha":833,"x_min":111,"x_max":729,"o":"m 111 285 l 111 715 q 133 838 111 782 q 195 932 156 893 q 292 992 235 971 q 417 1014 349 1014 q 624 950 543 1014 q 729 764 704 886 l 601 764 q 539 866 588 829 q 417 903 490 903 q 285 853 333 903 q 236 715 236 803 l 236 285 q 285 147 236 197 q 417 97 333 97 q 549 147 500 97 q 597 285 597 197 l 597 403 l 394 403 l 394 514 l 722 514 l 722 285 q 701 161 722 217 q 640 67 679 106 q 544 7 600 28 q 417 -14 488 -14 q 290 7 347 -14 q 194 67 233 28 q 133 161 154 106 q 111 285 111 217 m 389 1340 l 417 1340 q 482 1317 457 1340 q 507 1256 507 1293 q 482 1196 507 1218 q 417 1174 457 1174 l 389 1174 q 324 1195 349 1174 q 299 1256 299 1217 q 324 1317 299 1293 q 389 1340 349 1340 z "},"ġ":{"ha":833,"x_min":101,"x_max":711,"o":"m 101 486 q 119 607 101 553 q 172 699 138 661 q 254 757 206 736 q 363 778 303 778 q 504 738 446 778 q 583 625 563 699 l 593 625 l 593 764 l 711 764 l 711 49 q 632 -161 711 -86 q 410 -236 553 -236 l 222 -236 l 222 -122 l 410 -122 q 540 -78 493 -122 q 586 49 586 -33 l 586 83 l 592 215 l 583 215 q 504 102 563 142 q 363 63 446 63 q 255 83 303 63 q 173 142 207 104 q 120 233 139 179 q 101 354 101 288 l 101 486 m 229 354 q 277 219 229 268 q 408 171 325 171 q 539 219 492 171 q 586 354 586 268 l 586 486 q 539 621 586 572 q 408 669 492 669 q 277 621 325 669 q 229 486 229 572 l 229 354 m 389 1118 l 417 1118 q 482 1094 457 1118 q 507 1033 507 1071 q 482 974 507 996 q 417 951 457 951 l 389 951 q 324 973 349 951 q 299 1033 299 994 q 324 1094 299 1071 q 389 1118 349 1118 z "},"Ĥ":{"ha":833,"x_min":125,"x_max":708,"o":"m 125 0 l 125 1000 l 250 1000 l 250 578 l 583 578 l 583 1000 l 708 1000 l 708 0 l 583 0 l 583 464 l 250 464 l 250 0 l 125 0 m 368 1326 l 465 1326 l 646 1125 l 538 1125 l 461 1204 q 441 1226 449 1218 q 428 1240 433 1235 q 419 1251 422 1247 l 415 1251 q 407 1242 413 1247 q 394 1226 401 1235 q 374 1206 386 1218 l 296 1125 l 188 1125 l 368 1326 z "},"ĥ":{"ha":833,"x_min":-21,"x_max":713,"o":"m 122 0 l 122 1000 l 247 1000 l 247 764 q 247 722 247 744 q 244 679 246 699 q 240 632 242 656 l 251 632 q 324 740 269 701 q 461 778 379 778 q 565 758 518 778 q 644 703 611 739 q 694 619 676 668 q 713 508 713 569 l 713 0 l 588 0 l 588 488 q 543 624 588 575 q 419 672 499 672 q 294 620 340 672 q 247 479 247 568 l 247 0 l 122 0 m 160 1326 l 257 1326 l 438 1125 l 329 1125 l 253 1204 q 233 1226 240 1218 q 219 1240 225 1235 q 211 1251 214 1247 l 207 1251 q 199 1242 204 1247 q 185 1226 193 1235 q 165 1206 178 1218 l 88 1125 l -21 1125 l 160 1326 z "},"Ĩ":{"ha":833,"x_min":132,"x_max":701,"o":"m 353 110 l 353 890 l 132 890 l 132 1000 l 701 1000 l 701 890 l 481 890 l 481 110 l 701 110 l 701 0 l 132 0 l 132 110 l 353 110 m 146 1160 q 186 1283 146 1240 q 299 1326 226 1326 q 376 1309 346 1326 q 432 1271 407 1292 q 481 1233 457 1250 q 535 1215 504 1215 q 581 1235 564 1215 q 597 1292 597 1256 l 597 1319 l 688 1319 l 688 1292 q 647 1168 688 1211 q 535 1125 607 1125 q 457 1142 488 1125 q 401 1181 426 1160 q 353 1219 376 1201 q 299 1236 331 1236 q 253 1216 269 1236 q 236 1160 236 1196 l 236 1132 l 146 1132 l 146 1160 z "},"ĩ":{"ha":833,"x_min":125,"x_max":757,"o":"m 125 114 l 410 114 l 410 650 l 160 650 l 160 764 l 535 764 l 535 114 l 757 114 l 757 0 l 125 0 l 125 114 m 146 938 q 186 1061 146 1018 q 299 1104 226 1104 q 376 1087 346 1104 q 432 1049 407 1069 q 481 1010 457 1028 q 535 993 504 993 q 581 1013 564 993 q 597 1069 597 1033 l 597 1097 l 688 1097 l 688 1069 q 647 946 688 989 q 535 903 607 903 q 457 920 488 903 q 401 958 426 938 q 353 997 376 979 q 299 1014 331 1014 q 253 994 269 1014 q 236 938 236 974 l 236 910 l 146 910 l 146 938 z "},"Ī":{"ha":833,"x_min":132,"x_max":701,"o":"m 353 110 l 353 890 l 132 890 l 132 1000 l 701 1000 l 701 890 l 481 890 l 481 110 l 701 110 l 701 0 l 132 0 l 132 110 l 353 110 m 236 1292 l 597 1292 l 597 1188 l 236 1188 l 236 1292 z "},"ī":{"ha":833,"x_min":125,"x_max":757,"o":"m 125 114 l 410 114 l 410 650 l 160 650 l 160 764 l 535 764 l 535 114 l 757 114 l 757 0 l 125 0 l 125 114 m 236 1069 l 597 1069 l 597 965 l 236 965 l 236 1069 z "},"Į":{"ha":833,"x_min":132,"x_max":701,"o":"m 353 110 l 353 890 l 132 890 l 132 1000 l 701 1000 l 701 890 l 481 890 l 481 110 l 701 110 l 701 0 l 132 0 l 132 110 l 353 110 m 376 14 l 481 14 l 465 1 q 397 -69 418 -37 q 376 -129 376 -100 q 397 -177 376 -160 q 453 -194 417 -194 l 536 -194 l 536 -278 l 428 -278 q 304 -244 350 -278 q 258 -153 258 -210 q 284 -72 258 -112 q 376 14 310 -32 z "},"į":{"ha":833,"x_min":132,"x_max":764,"o":"m 132 0 l 132 114 l 410 114 l 410 650 l 167 650 l 167 764 l 535 764 l 535 114 l 764 114 l 764 0 l 132 0 m 438 1063 l 465 1063 q 531 1039 506 1063 q 556 978 556 1015 q 531 918 556 940 q 465 896 506 896 l 438 896 q 372 917 397 896 q 347 978 347 939 q 372 1039 347 1015 q 438 1063 397 1063 m 429 14 l 533 14 l 518 1 q 450 -69 471 -37 q 429 -129 429 -100 q 449 -177 429 -160 q 506 -194 469 -194 l 589 -194 l 589 -278 l 481 -278 q 357 -244 403 -278 q 311 -153 311 -210 q 337 -72 311 -112 q 429 14 363 -32 z "},"İ":{"ha":833,"x_min":132,"x_max":701,"o":"m 353 110 l 353 890 l 132 890 l 132 1000 l 701 1000 l 701 890 l 481 890 l 481 110 l 701 110 l 701 0 l 132 0 l 132 110 l 353 110 m 389 1340 l 417 1340 q 482 1317 457 1340 q 507 1256 507 1293 q 482 1196 507 1218 q 417 1174 457 1174 l 389 1174 q 324 1195 349 1174 q 299 1256 299 1217 q 324 1317 299 1293 q 389 1340 349 1340 z "},"Ń":{"ha":833,"x_min":118,"x_max":715,"o":"m 276 1000 l 542 329 q 563 272 553 304 q 579 210 572 239 q 597 139 589 175 l 608 139 q 607 153 608 139 q 603 193 606 168 q 598 251 600 218 q 596 319 596 283 l 596 1000 l 715 1000 l 715 0 l 557 0 l 296 672 q 274 738 285 704 q 256 799 263 771 q 239 863 246 831 l 228 863 q 233 813 231 840 q 236 756 235 789 q 238 683 238 724 l 238 0 l 118 0 l 118 1000 l 276 1000 m 444 1125 l 319 1125 l 472 1328 l 625 1328 l 444 1125 z "},"ń":{"ha":833,"x_min":122,"x_max":713,"o":"m 122 764 l 240 764 l 240 632 l 251 632 q 324 740 269 703 q 461 778 378 778 q 567 758 521 778 q 647 701 614 738 q 696 616 679 665 q 713 508 713 567 l 713 0 l 588 0 l 588 488 q 543 624 588 575 q 419 672 499 672 q 294 620 340 672 q 247 479 247 568 l 247 0 l 122 0 l 122 764 m 444 903 l 319 903 l 472 1106 l 625 1106 l 444 903 z "},"Ň":{"ha":833,"x_min":118,"x_max":715,"o":"m 276 1000 l 542 329 q 563 272 553 304 q 579 210 572 239 q 597 139 589 175 l 608 139 q 607 153 608 139 q 603 193 606 168 q 598 251 600 218 q 596 319 596 283 l 596 1000 l 715 1000 l 715 0 l 557 0 l 296 672 q 274 738 285 704 q 256 799 263 771 q 239 863 246 831 l 228 863 q 233 813 231 840 q 236 756 235 789 q 238 683 238 724 l 238 0 l 118 0 l 118 1000 l 276 1000 m 188 1326 l 296 1326 l 374 1246 q 394 1225 386 1233 q 407 1211 401 1217 q 415 1200 413 1204 l 419 1200 q 428 1211 422 1204 q 441 1226 433 1217 q 461 1247 449 1235 l 538 1326 l 646 1326 l 465 1125 l 368 1125 l 188 1326 z "},"ň":{"ha":833,"x_min":122,"x_max":713,"o":"m 122 764 l 240 764 l 240 632 l 251 632 q 324 740 269 703 q 461 778 378 778 q 567 758 521 778 q 647 701 614 738 q 696 616 679 665 q 713 508 713 567 l 713 0 l 588 0 l 588 488 q 543 624 588 575 q 419 672 499 672 q 294 620 340 672 q 247 479 247 568 l 247 0 l 122 0 l 122 764 m 188 1104 l 296 1104 l 374 1024 q 394 1003 386 1011 q 407 989 401 994 q 415 978 413 982 l 419 978 q 428 989 422 982 q 441 1003 433 994 q 461 1025 449 1013 l 538 1104 l 646 1104 l 465 903 l 368 903 l 188 1104 z "},"Ō":{"ha":833,"x_min":111,"x_max":722,"o":"m 417 -14 q 290 7 346 -14 q 194 67 233 28 q 133 161 154 106 q 111 285 111 217 l 111 715 q 133 839 111 783 q 194 933 154 894 q 290 993 233 972 q 417 1014 346 1014 q 544 993 488 1014 q 640 933 600 972 q 701 839 679 894 q 722 715 722 783 l 722 285 q 701 162 722 217 q 640 68 679 107 q 543 8 600 29 q 417 -14 486 -14 m 236 285 q 285 148 236 199 q 417 97 333 97 q 549 148 500 97 q 597 285 597 199 l 597 715 q 549 852 597 801 q 417 903 500 903 q 285 852 333 903 q 236 715 236 801 l 236 285 m 236 1292 l 597 1292 l 597 1188 l 236 1188 l 236 1292 z "},"ō":{"ha":833,"x_min":111,"x_max":722,"o":"m 417 -14 q 290 7 346 -14 q 194 67 233 28 q 133 161 154 106 q 111 285 111 217 l 111 479 q 133 603 111 549 q 194 697 154 658 q 290 757 233 736 q 417 778 346 778 q 640 699 558 778 q 722 481 722 619 l 722 285 q 641 66 722 146 q 417 -14 560 -14 m 236 285 q 284 147 236 197 q 417 97 332 97 q 549 147 500 97 q 597 285 597 197 l 597 479 q 549 617 597 567 q 417 667 500 667 q 285 617 333 667 q 236 479 236 567 l 236 285 m 236 1069 l 597 1069 l 597 965 l 236 965 l 236 1069 z "},"Ŏ":{"ha":833,"x_min":111,"x_max":722,"o":"m 417 -14 q 290 7 346 -14 q 194 67 233 28 q 133 161 154 106 q 111 285 111 217 l 111 715 q 133 839 111 783 q 194 933 154 894 q 290 993 233 972 q 417 1014 346 1014 q 544 993 488 1014 q 640 933 600 972 q 701 839 679 894 q 722 715 722 783 l 722 285 q 701 162 722 217 q 640 68 679 107 q 543 8 600 29 q 417 -14 486 -14 m 236 285 q 285 148 236 199 q 417 97 333 97 q 549 148 500 97 q 597 285 597 199 l 597 715 q 549 852 597 801 q 417 903 500 903 q 285 852 333 903 q 236 715 236 801 l 236 285 m 181 1319 l 285 1319 q 321 1247 285 1272 q 415 1222 357 1222 q 511 1247 474 1222 q 549 1319 549 1272 l 653 1319 q 635 1243 653 1278 q 585 1183 617 1208 q 510 1145 553 1158 q 417 1132 467 1132 q 324 1145 367 1132 q 249 1183 281 1158 q 199 1243 217 1208 q 181 1319 181 1278 z "},"ŏ":{"ha":833,"x_min":111,"x_max":722,"o":"m 417 -14 q 290 7 346 -14 q 194 67 233 28 q 133 161 154 106 q 111 285 111 217 l 111 479 q 133 603 111 549 q 194 697 154 658 q 290 757 233 736 q 417 778 346 778 q 640 699 558 778 q 722 481 722 619 l 722 285 q 641 66 722 146 q 417 -14 560 -14 m 236 285 q 284 147 236 197 q 417 97 332 97 q 549 147 500 97 q 597 285 597 197 l 597 479 q 549 617 597 567 q 417 667 500 667 q 285 617 333 667 q 236 479 236 567 l 236 285 m 181 1097 l 285 1097 q 321 1025 285 1050 q 415 1000 357 1000 q 511 1025 474 1000 q 549 1097 549 1050 l 653 1097 q 635 1021 653 1056 q 585 961 617 986 q 510 923 553 936 q 417 910 467 910 q 324 923 367 910 q 249 961 281 936 q 199 1021 217 986 q 181 1097 181 1056 z "},"Ő":{"ha":833,"x_min":111,"x_max":722,"o":"m 417 -14 q 290 7 346 -14 q 194 67 233 28 q 133 161 154 106 q 111 285 111 217 l 111 715 q 133 839 111 783 q 194 933 154 894 q 290 993 233 972 q 417 1014 346 1014 q 544 993 488 1014 q 640 933 600 972 q 701 839 679 894 q 722 715 722 783 l 722 285 q 701 162 722 217 q 640 68 679 107 q 543 8 600 29 q 417 -14 486 -14 m 236 285 q 285 148 236 199 q 417 97 333 97 q 549 148 500 97 q 597 285 597 199 l 597 715 q 549 852 597 801 q 417 903 500 903 q 285 852 333 903 q 236 715 236 801 l 236 285 m 472 1328 l 319 1328 l 167 1125 l 292 1125 l 472 1328 m 750 1328 l 597 1328 l 444 1125 l 569 1125 l 750 1328 z "},"ő":{"ha":833,"x_min":111,"x_max":722,"o":"m 417 -14 q 290 7 346 -14 q 194 67 233 28 q 133 161 154 106 q 111 285 111 217 l 111 479 q 133 603 111 549 q 194 697 154 658 q 290 757 233 736 q 417 778 346 778 q 640 699 558 778 q 722 481 722 619 l 722 285 q 641 66 722 146 q 417 -14 560 -14 m 236 285 q 284 147 236 197 q 417 97 332 97 q 549 147 500 97 q 597 285 597 197 l 597 479 q 549 617 597 567 q 417 667 500 667 q 285 617 333 667 q 236 479 236 567 l 236 285 m 472 1106 l 319 1106 l 167 903 l 292 903 l 472 1106 m 750 1106 l 597 1106 l 444 903 l 569 903 l 750 1106 z "},"Ŕ":{"ha":833,"x_min":125,"x_max":760,"o":"m 125 1000 l 444 1000 q 568 979 513 1000 q 663 919 624 958 q 724 827 703 881 q 746 708 746 774 q 692 531 746 604 q 547 431 639 458 l 760 0 l 613 0 l 418 417 l 250 417 l 250 0 l 125 0 l 125 1000 m 250 528 l 444 528 q 570 577 524 528 q 617 708 617 626 q 569 840 617 790 q 444 889 522 889 l 250 889 l 250 528 m 444 1125 l 319 1125 l 472 1328 l 625 1328 l 444 1125 z "},"ŕ":{"ha":833,"x_min":156,"x_max":758,"o":"m 274 764 l 274 632 l 285 632 q 360 739 303 700 q 500 778 417 778 q 690 702 621 778 q 758 494 758 626 l 758 451 l 633 451 l 633 479 q 588 619 633 569 q 460 668 543 668 q 329 617 378 668 q 281 479 281 567 l 281 0 l 156 0 l 156 764 l 274 764 m 444 903 l 319 903 l 472 1106 l 625 1106 l 444 903 z "},"Ř":{"ha":833,"x_min":125,"x_max":760,"o":"m 125 1000 l 444 1000 q 568 979 513 1000 q 663 919 624 958 q 724 827 703 881 q 746 708 746 774 q 692 531 746 604 q 547 431 639 458 l 760 0 l 613 0 l 418 417 l 250 417 l 250 0 l 125 0 l 125 1000 m 250 528 l 444 528 q 570 577 524 528 q 617 708 617 626 q 569 840 617 790 q 444 889 522 889 l 250 889 l 250 528 m 188 1326 l 296 1326 l 374 1246 q 394 1225 386 1233 q 407 1211 401 1217 q 415 1200 413 1204 l 419 1200 q 428 1211 422 1204 q 441 1226 433 1217 q 461 1247 449 1235 l 538 1326 l 646 1326 l 465 1125 l 368 1125 l 188 1326 z "},"ř":{"ha":833,"x_min":156,"x_max":758,"o":"m 274 764 l 274 632 l 285 632 q 360 739 303 700 q 500 778 417 778 q 690 702 621 778 q 758 494 758 626 l 758 451 l 633 451 l 633 479 q 588 619 633 569 q 460 668 543 668 q 329 617 378 668 q 281 479 281 567 l 281 0 l 156 0 l 156 764 l 274 764 m 188 1104 l 296 1104 l 374 1024 q 394 1003 386 1011 q 407 989 401 994 q 415 978 413 982 l 419 978 q 428 989 422 982 q 441 1003 433 994 q 461 1025 449 1013 l 538 1104 l 646 1104 l 465 903 l 368 903 l 188 1104 z "},"Ś":{"ha":833,"x_min":97,"x_max":736,"o":"m 97 257 l 229 257 q 281 141 229 185 q 419 97 333 97 q 558 138 508 97 q 608 250 608 179 q 572 358 608 311 q 474 426 536 404 l 356 468 q 128 750 128 550 q 207 943 128 872 q 424 1014 286 1014 q 545 995 490 1014 q 640 942 600 976 q 701 858 679 907 q 724 749 722 808 l 592 749 q 545 861 592 819 q 422 903 499 903 q 299 865 344 903 q 253 761 253 826 q 286 660 253 700 q 394 592 319 619 l 518 547 q 680 434 624 510 q 736 254 736 358 q 651 58 736 129 q 417 -14 565 -14 q 288 6 346 -14 q 188 60 229 25 q 122 146 146 96 q 97 257 99 196 m 444 1125 l 319 1125 l 472 1328 l 625 1328 l 444 1125 z "},"ś":{"ha":833,"x_min":107,"x_max":719,"o":"m 107 188 l 239 188 q 290 122 247 147 q 396 97 333 97 l 435 97 q 551 128 510 97 q 593 213 593 160 q 465 322 593 303 l 350 339 q 182 410 238 356 q 126 561 126 464 q 199 721 126 664 q 403 778 272 778 l 442 778 q 544 764 497 778 q 628 724 592 750 q 687 663 664 699 q 717 585 710 628 l 585 585 q 538 644 576 621 q 442 667 499 667 l 403 667 q 292 639 332 667 q 253 556 253 611 q 280 488 253 511 q 368 457 307 465 l 483 440 q 663 368 607 422 q 719 214 719 314 q 645 47 719 107 q 435 -14 571 -14 l 396 -14 q 197 41 275 -14 q 107 188 118 96 m 444 903 l 319 903 l 472 1106 l 625 1106 l 444 903 z "},"Ŝ":{"ha":833,"x_min":97,"x_max":736,"o":"m 97 257 l 229 257 q 281 141 229 185 q 419 97 333 97 q 558 138 508 97 q 608 250 608 179 q 572 358 608 311 q 474 426 536 404 l 356 468 q 128 750 128 550 q 207 943 128 872 q 424 1014 286 1014 q 545 995 490 1014 q 640 942 600 976 q 701 858 679 907 q 724 749 722 808 l 592 749 q 545 861 592 819 q 422 903 499 903 q 299 865 344 903 q 253 761 253 826 q 286 660 253 700 q 394 592 319 619 l 518 547 q 680 434 624 510 q 736 254 736 358 q 651 58 736 129 q 417 -14 565 -14 q 288 6 346 -14 q 188 60 229 25 q 122 146 146 96 q 97 257 99 196 m 368 1326 l 465 1326 l 646 1125 l 538 1125 l 461 1204 q 441 1226 449 1218 q 428 1240 433 1235 q 419 1251 422 1247 l 415 1251 q 407 1242 413 1247 q 394 1226 401 1235 q 374 1206 386 1218 l 296 1125 l 188 1125 l 368 1326 z "},"ŝ":{"ha":833,"x_min":107,"x_max":719,"o":"m 107 188 l 239 188 q 290 122 247 147 q 396 97 333 97 l 435 97 q 551 128 510 97 q 593 213 593 160 q 465 322 593 303 l 350 339 q 182 410 238 356 q 126 561 126 464 q 199 721 126 664 q 403 778 272 778 l 442 778 q 544 764 497 778 q 628 724 592 750 q 687 663 664 699 q 717 585 710 628 l 585 585 q 538 644 576 621 q 442 667 499 667 l 403 667 q 292 639 332 667 q 253 556 253 611 q 280 488 253 511 q 368 457 307 465 l 483 440 q 663 368 607 422 q 719 214 719 314 q 645 47 719 107 q 435 -14 571 -14 l 396 -14 q 197 41 275 -14 q 107 188 118 96 m 368 1104 l 465 1104 l 646 903 l 538 903 l 461 982 q 441 1004 449 996 q 428 1018 433 1013 q 419 1029 422 1025 l 415 1029 q 407 1019 413 1025 q 394 1004 401 1013 q 374 983 386 996 l 296 903 l 188 903 l 368 1104 z "},"Ş":{"ha":833,"x_min":97,"x_max":736,"o":"m 97 257 l 229 257 q 281 141 229 185 q 419 97 333 97 q 558 138 508 97 q 608 250 608 179 q 572 358 608 311 q 474 426 536 404 l 356 468 q 128 750 128 550 q 207 943 128 872 q 424 1014 286 1014 q 545 995 490 1014 q 640 942 600 976 q 701 858 679 907 q 724 749 722 808 l 592 749 q 545 861 592 819 q 422 903 499 903 q 299 865 344 903 q 253 761 253 826 q 286 660 253 700 q 394 592 319 619 l 518 547 q 680 434 624 510 q 736 254 736 358 q 651 58 736 129 q 417 -14 565 -14 q 288 6 346 -14 q 188 60 229 25 q 122 146 146 96 q 97 257 99 196 m 285 -264 l 285 -187 l 382 -187 q 431 -176 413 -187 q 450 -146 450 -165 q 413 -109 450 -122 q 304 -96 375 -96 l 353 36 l 432 36 l 403 -49 q 486 -65 450 -53 q 544 -99 518 -76 q 569 -157 569 -121 q 524 -235 569 -206 q 403 -264 478 -264 l 285 -264 z "},"ş":{"ha":833,"x_min":107,"x_max":719,"o":"m 107 188 l 239 188 q 290 122 247 147 q 396 97 333 97 l 435 97 q 551 128 510 97 q 593 213 593 160 q 465 322 593 303 l 350 339 q 182 410 238 356 q 126 561 126 464 q 199 721 126 664 q 403 778 272 778 l 442 778 q 544 764 497 778 q 628 724 592 750 q 687 663 664 699 q 717 585 710 628 l 585 585 q 538 644 576 621 q 442 667 499 667 l 403 667 q 292 639 332 667 q 253 556 253 611 q 280 488 253 511 q 368 457 307 465 l 483 440 q 663 368 607 422 q 719 214 719 314 q 645 47 719 107 q 435 -14 571 -14 l 396 -14 q 197 41 275 -14 q 107 188 118 96 m 285 -264 l 285 -187 l 382 -187 q 431 -176 413 -187 q 450 -146 450 -165 q 413 -109 450 -122 q 304 -96 375 -96 l 353 36 l 432 36 l 403 -49 q 486 -65 450 -53 q 544 -99 518 -76 q 569 -157 569 -121 q 524 -235 569 -206 q 403 -264 478 -264 l 285 -264 z "},"Ť":{"ha":833,"x_min":63,"x_max":771,"o":"m 63 890 l 63 1000 l 771 1000 l 771 890 l 481 890 l 481 0 l 353 0 l 353 890 l 63 890 m 188 1326 l 296 1326 l 374 1246 q 394 1225 386 1233 q 407 1211 401 1217 q 415 1200 413 1204 l 419 1200 q 428 1211 422 1204 q 441 1226 433 1217 q 461 1247 449 1235 l 538 1326 l 646 1326 l 465 1125 l 368 1125 l 188 1326 z "},"Ũ":{"ha":833,"x_min":118,"x_max":715,"o":"m 417 -14 q 196 64 274 -14 q 118 278 118 142 l 118 1000 l 243 1000 l 243 278 q 288 146 243 194 q 417 97 332 97 q 545 146 500 97 q 590 278 590 194 l 590 1000 l 715 1000 l 715 278 q 638 63 715 140 q 417 -14 560 -14 m 146 1160 q 186 1283 146 1240 q 299 1326 226 1326 q 376 1309 346 1326 q 432 1271 407 1292 q 481 1233 457 1250 q 535 1215 504 1215 q 581 1235 564 1215 q 597 1292 597 1256 l 597 1319 l 688 1319 l 688 1292 q 647 1168 688 1211 q 535 1125 607 1125 q 457 1142 488 1125 q 401 1181 426 1160 q 353 1219 376 1201 q 299 1236 331 1236 q 253 1216 269 1236 q 236 1160 236 1196 l 236 1132 l 146 1132 l 146 1160 z "},"ũ":{"ha":833,"x_min":125,"x_max":708,"o":"m 250 764 l 250 269 q 415 96 250 96 q 583 269 583 96 l 583 764 l 708 764 l 708 269 q 633 60 708 133 q 415 -14 557 -14 q 201 60 276 -14 q 125 269 125 135 l 125 764 l 250 764 m 146 938 q 186 1061 146 1018 q 299 1104 226 1104 q 376 1087 346 1104 q 432 1049 407 1069 q 481 1010 457 1028 q 535 993 504 993 q 581 1013 564 993 q 597 1069 597 1033 l 597 1097 l 688 1097 l 688 1069 q 647 946 688 989 q 535 903 607 903 q 457 920 488 903 q 401 958 426 938 q 353 997 376 979 q 299 1014 331 1014 q 253 994 269 1014 q 236 938 236 974 l 236 910 l 146 910 l 146 938 z "},"Ū":{"ha":833,"x_min":118,"x_max":715,"o":"m 417 -14 q 196 64 274 -14 q 118 278 118 142 l 118 1000 l 243 1000 l 243 278 q 288 146 243 194 q 417 97 332 97 q 545 146 500 97 q 590 278 590 194 l 590 1000 l 715 1000 l 715 278 q 638 63 715 140 q 417 -14 560 -14 m 236 1292 l 597 1292 l 597 1188 l 236 1188 l 236 1292 z "},"ū":{"ha":833,"x_min":125,"x_max":708,"o":"m 250 764 l 250 269 q 415 96 250 96 q 583 269 583 96 l 583 764 l 708 764 l 708 269 q 633 60 708 133 q 415 -14 557 -14 q 201 60 276 -14 q 125 269 125 135 l 125 764 l 250 764 m 236 1069 l 597 1069 l 597 965 l 236 965 l 236 1069 z "},"Ŭ":{"ha":833,"x_min":118,"x_max":715,"o":"m 417 -14 q 196 64 274 -14 q 118 278 118 142 l 118 1000 l 243 1000 l 243 278 q 288 146 243 194 q 417 97 332 97 q 545 146 500 97 q 590 278 590 194 l 590 1000 l 715 1000 l 715 278 q 638 63 715 140 q 417 -14 560 -14 m 181 1319 l 285 1319 q 321 1247 285 1272 q 415 1222 357 1222 q 511 1247 474 1222 q 549 1319 549 1272 l 653 1319 q 635 1243 653 1278 q 585 1183 617 1208 q 510 1145 553 1158 q 417 1132 467 1132 q 324 1145 367 1132 q 249 1183 281 1158 q 199 1243 217 1208 q 181 1319 181 1278 z "},"ŭ":{"ha":833,"x_min":125,"x_max":708,"o":"m 250 764 l 250 269 q 415 96 250 96 q 583 269 583 96 l 583 764 l 708 764 l 708 269 q 633 60 708 133 q 415 -14 557 -14 q 201 60 276 -14 q 125 269 125 135 l 125 764 l 250 764 m 181 1097 l 285 1097 q 321 1025 285 1050 q 415 1000 357 1000 q 511 1025 474 1000 q 549 1097 549 1050 l 653 1097 q 635 1021 653 1056 q 585 961 617 986 q 510 923 553 936 q 417 910 467 910 q 324 923 367 910 q 249 961 281 936 q 199 1021 217 986 q 181 1097 181 1056 z "},"Ů":{"ha":833,"x_min":118,"x_max":715,"o":"m 417 -14 q 196 64 274 -14 q 118 278 118 142 l 118 1000 l 243 1000 l 243 278 q 288 146 243 194 q 417 97 332 97 q 545 146 500 97 q 590 278 590 194 l 590 1000 l 715 1000 l 715 278 q 638 63 715 140 q 417 -14 560 -14 m 417 1347 q 538 1309 492 1347 q 583 1208 583 1271 q 538 1108 583 1146 q 417 1069 492 1069 q 296 1108 342 1069 q 250 1208 250 1146 q 296 1309 250 1271 q 417 1347 342 1347 m 333 1208 q 356 1159 333 1178 q 415 1140 379 1140 q 477 1159 454 1140 q 500 1208 500 1178 q 478 1261 500 1244 q 415 1278 456 1278 q 356 1259 379 1278 q 333 1208 333 1240 z "},"ů":{"ha":833,"x_min":125,"x_max":708,"o":"m 250 764 l 250 269 q 415 96 250 96 q 583 269 583 96 l 583 764 l 708 764 l 708 269 q 633 60 708 133 q 415 -14 557 -14 q 201 60 276 -14 q 125 269 125 135 l 125 764 l 250 764 m 417 1125 q 538 1087 492 1125 q 583 986 583 1049 q 538 885 583 924 q 417 847 492 847 q 296 885 342 847 q 250 986 250 924 q 296 1087 250 1049 q 417 1125 342 1125 m 333 986 q 356 937 333 956 q 415 918 379 918 q 477 937 454 918 q 500 986 500 956 q 478 1039 500 1022 q 415 1056 456 1056 q 356 1037 379 1056 q 333 986 333 1018 z "},"Ŵ":{"ha":833,"x_min":35,"x_max":799,"o":"m 35 1000 l 153 1000 l 218 269 q 222 203 221 238 q 225 142 224 169 q 228 76 226 108 l 246 76 q 250 142 247 108 q 254 203 251 169 q 261 269 257 238 l 357 1000 l 479 1000 l 571 269 q 578 205 575 239 q 583 142 581 171 q 588 76 585 108 l 607 76 q 611 142 608 108 q 616 203 614 169 q 621 269 618 238 l 685 1000 l 799 1000 l 697 0 l 519 0 l 438 735 q 429 867 429 817 q 431 919 429 896 l 407 919 q 407 867 408 896 q 406 809 407 843 q 399 735 404 775 l 310 0 l 132 0 l 35 1000 m 368 1326 l 465 1326 l 646 1125 l 538 1125 l 461 1204 q 441 1226 449 1218 q 428 1240 433 1235 q 419 1251 422 1247 l 415 1251 q 407 1242 413 1247 q 394 1226 401 1235 q 374 1206 386 1218 l 296 1125 l 188 1125 l 368 1326 z "},"ŵ":{"ha":833,"x_min":42,"x_max":792,"o":"m 42 764 l 153 764 l 221 240 q 226 185 224 215 q 232 128 229 154 q 238 67 235 97 l 253 67 q 260 128 256 97 q 267 185 263 154 q 275 240 271 215 l 356 764 l 475 764 l 556 240 q 564 183 560 214 q 571 126 568 153 q 578 67 575 96 l 594 67 q 600 128 597 97 q 607 184 603 154 q 614 240 611 214 l 683 764 l 792 764 l 683 0 l 513 0 l 433 540 q 428 590 431 564 q 425 638 426 615 q 425 688 425 663 l 407 688 q 406 638 407 663 q 403 590 404 615 q 397 540 401 564 l 315 0 l 149 0 l 42 764 m 368 1104 l 465 1104 l 646 903 l 538 903 l 461 982 q 441 1004 449 996 q 428 1018 433 1013 q 419 1029 422 1025 l 415 1029 q 407 1019 413 1025 q 394 1004 401 1013 q 374 983 386 996 l 296 903 l 188 903 l 368 1104 z "},"Ŷ":{"ha":833,"x_min":42,"x_max":792,"o":"m 174 1000 l 379 560 q 395 521 389 540 q 407 486 401 501 q 417 450 413 468 l 422 450 q 433 486 426 468 q 444 521 438 501 q 460 560 451 540 l 658 1000 l 792 1000 l 479 347 l 479 0 l 354 0 l 354 347 l 42 1000 l 174 1000 m 368 1326 l 465 1326 l 646 1125 l 538 1125 l 461 1204 q 441 1226 449 1218 q 428 1240 433 1235 q 419 1251 422 1247 l 415 1251 q 407 1242 413 1247 q 394 1226 401 1235 q 374 1206 386 1218 l 296 1125 l 188 1125 l 368 1326 z "},"ŷ":{"ha":833,"x_min":69,"x_max":764,"o":"m 69 764 l 208 764 l 383 325 q 403 265 396 293 q 415 217 411 238 q 422 169 421 190 l 432 169 q 439 215 433 190 q 450 265 443 238 q 468 325 457 293 l 629 764 l 764 764 l 392 -236 l 258 -236 l 365 56 l 69 764 m 368 1104 l 465 1104 l 646 903 l 538 903 l 461 982 q 441 1004 449 996 q 428 1018 433 1013 q 419 1029 422 1025 l 415 1029 q 407 1019 413 1025 q 394 1004 401 1013 q 374 983 386 996 l 296 903 l 188 903 l 368 1104 z "},"Ź":{"ha":833,"x_min":118,"x_max":715,"o":"m 700 1000 l 700 888 l 243 107 l 243 104 l 340 110 l 715 110 l 715 0 l 118 0 l 118 111 l 575 892 l 575 894 l 475 890 l 129 890 l 129 1000 l 700 1000 m 444 1125 l 319 1125 l 472 1328 l 625 1328 l 444 1125 z "},"ź":{"ha":833,"x_min":111,"x_max":722,"o":"m 111 139 l 576 649 l 576 657 q 544 656 561 656 q 512 653 531 654 q 474 653 493 653 l 122 653 l 122 764 l 707 764 l 707 624 l 236 114 l 236 106 q 269 108 251 107 q 303 110 285 110 q 340 111 321 111 l 722 111 l 722 0 l 111 0 l 111 139 m 444 903 l 319 903 l 472 1106 l 625 1106 l 444 903 z "},"Ż":{"ha":833,"x_min":118,"x_max":715,"o":"m 700 1000 l 700 888 l 243 107 l 243 104 l 340 110 l 715 110 l 715 0 l 118 0 l 118 111 l 575 892 l 575 894 l 475 890 l 129 890 l 129 1000 l 700 1000 m 403 1340 l 431 1340 q 496 1317 471 1340 q 521 1256 521 1293 q 496 1196 521 1218 q 431 1174 471 1174 l 403 1174 q 338 1195 363 1174 q 313 1256 313 1217 q 338 1317 313 1293 q 403 1340 363 1340 z "},"ż":{"ha":833,"x_min":111,"x_max":722,"o":"m 111 139 l 576 649 l 576 657 q 544 656 561 656 q 512 653 531 654 q 474 653 493 653 l 122 653 l 122 764 l 707 764 l 707 624 l 236 114 l 236 106 q 269 108 251 107 q 303 110 285 110 q 340 111 321 111 l 722 111 l 722 0 l 111 0 l 111 139 m 403 1118 l 431 1118 q 496 1094 471 1118 q 521 1033 521 1071 q 496 974 521 996 q 431 951 471 951 l 403 951 q 338 973 363 951 q 313 1033 313 994 q 338 1094 313 1071 q 403 1118 363 1118 z "},"Ẁ":{"ha":833,"x_min":35,"x_max":799,"o":"m 35 1000 l 153 1000 l 218 269 q 222 203 221 238 q 225 142 224 169 q 228 76 226 108 l 246 76 q 250 142 247 108 q 254 203 251 169 q 261 269 257 238 l 357 1000 l 479 1000 l 571 269 q 578 205 575 239 q 583 142 581 171 q 588 76 585 108 l 607 76 q 611 142 608 108 q 616 203 614 169 q 621 269 618 238 l 685 1000 l 799 1000 l 697 0 l 519 0 l 438 735 q 429 867 429 817 q 431 919 429 896 l 407 919 q 407 867 408 896 q 406 809 407 843 q 399 735 404 775 l 310 0 l 132 0 l 35 1000 m 236 1328 l 389 1328 l 542 1125 l 417 1125 l 236 1328 z "},"ẁ":{"ha":833,"x_min":42,"x_max":792,"o":"m 42 764 l 153 764 l 221 240 q 226 185 224 215 q 232 128 229 154 q 238 67 235 97 l 253 67 q 260 128 256 97 q 267 185 263 154 q 275 240 271 215 l 356 764 l 475 764 l 556 240 q 564 183 560 214 q 571 126 568 153 q 578 67 575 96 l 594 67 q 600 128 597 97 q 607 184 603 154 q 614 240 611 214 l 683 764 l 792 764 l 683 0 l 513 0 l 433 540 q 428 590 431 564 q 425 638 426 615 q 425 688 425 663 l 407 688 q 406 638 407 663 q 403 590 404 615 q 397 540 401 564 l 315 0 l 149 0 l 42 764 m 236 1106 l 389 1106 l 542 903 l 417 903 l 236 1106 z "},"Ẃ":{"ha":833,"x_min":35,"x_max":799,"o":"m 35 1000 l 153 1000 l 218 269 q 222 203 221 238 q 225 142 224 169 q 228 76 226 108 l 246 76 q 250 142 247 108 q 254 203 251 169 q 261 269 257 238 l 357 1000 l 479 1000 l 571 269 q 578 205 575 239 q 583 142 581 171 q 588 76 585 108 l 607 76 q 611 142 608 108 q 616 203 614 169 q 621 269 618 238 l 685 1000 l 799 1000 l 697 0 l 519 0 l 438 735 q 429 867 429 817 q 431 919 429 896 l 407 919 q 407 867 408 896 q 406 809 407 843 q 399 735 404 775 l 310 0 l 132 0 l 35 1000 m 444 1125 l 319 1125 l 472 1328 l 625 1328 l 444 1125 z "},"ẃ":{"ha":833,"x_min":42,"x_max":792,"o":"m 42 764 l 153 764 l 221 240 q 226 185 224 215 q 232 128 229 154 q 238 67 235 97 l 253 67 q 260 128 256 97 q 267 185 263 154 q 275 240 271 215 l 356 764 l 475 764 l 556 240 q 564 183 560 214 q 571 126 568 153 q 578 67 575 96 l 594 67 q 600 128 597 97 q 607 184 603 154 q 614 240 611 214 l 683 764 l 792 764 l 683 0 l 513 0 l 433 540 q 428 590 431 564 q 425 638 426 615 q 425 688 425 663 l 407 688 q 406 638 407 663 q 403 590 404 615 q 397 540 401 564 l 315 0 l 149 0 l 42 764 m 444 903 l 319 903 l 472 1106 l 625 1106 l 444 903 z "},"Ẅ":{"ha":833,"x_min":35,"x_max":799,"o":"m 35 1000 l 153 1000 l 218 269 q 222 203 221 238 q 225 142 224 169 q 228 76 226 108 l 246 76 q 250 142 247 108 q 254 203 251 169 q 261 269 257 238 l 357 1000 l 479 1000 l 571 269 q 578 205 575 239 q 583 142 581 171 q 588 76 585 108 l 607 76 q 611 142 608 108 q 616 203 614 169 q 621 269 618 238 l 685 1000 l 799 1000 l 697 0 l 519 0 l 438 735 q 429 867 429 817 q 431 919 429 896 l 407 919 q 407 867 408 896 q 406 809 407 843 q 399 735 404 775 l 310 0 l 132 0 l 35 1000 m 556 1315 q 616 1292 593 1315 q 639 1232 639 1269 q 616 1172 639 1194 q 556 1149 593 1149 q 495 1172 518 1149 q 472 1232 472 1194 q 495 1292 472 1269 q 556 1315 518 1315 m 194 1232 q 217 1292 194 1269 q 278 1315 240 1315 q 338 1292 315 1315 q 361 1232 361 1269 q 338 1172 361 1194 q 278 1149 315 1149 q 217 1172 240 1149 q 194 1232 194 1194 z "},"ẅ":{"ha":833,"x_min":42,"x_max":792,"o":"m 42 764 l 153 764 l 221 240 q 226 185 224 215 q 232 128 229 154 q 238 67 235 97 l 253 67 q 260 128 256 97 q 267 185 263 154 q 275 240 271 215 l 356 764 l 475 764 l 556 240 q 564 183 560 214 q 571 126 568 153 q 578 67 575 96 l 594 67 q 600 128 597 97 q 607 184 603 154 q 614 240 611 214 l 683 764 l 792 764 l 683 0 l 513 0 l 433 540 q 428 590 431 564 q 425 638 426 615 q 425 688 425 663 l 407 688 q 406 638 407 663 q 403 590 404 615 q 397 540 401 564 l 315 0 l 149 0 l 42 764 m 556 1093 q 616 1070 593 1093 q 639 1010 639 1047 q 616 949 639 972 q 556 926 593 926 q 495 949 518 926 q 472 1010 472 972 q 495 1070 472 1047 q 556 1093 518 1093 m 194 1010 q 217 1070 194 1047 q 278 1093 240 1093 q 338 1070 315 1093 q 361 1010 361 1047 q 338 949 361 972 q 278 926 315 926 q 217 949 240 926 q 194 1010 194 972 z "},"Ŀ":{"ha":833,"x_min":146,"x_max":743,"o":"m 271 1000 l 271 114 l 743 114 l 743 0 l 146 0 l 146 1000 l 271 1000 m 429 485 q 462 572 429 539 q 549 604 494 604 q 635 572 603 604 q 668 485 668 539 q 635 395 668 429 q 549 361 603 361 q 462 395 494 361 q 429 485 429 429 z "},"ŀ":{"ha":833,"x_min":28,"x_max":758,"o":"m 28 900 l 28 1014 l 406 1014 l 406 222 q 433 142 406 171 q 510 114 461 114 l 736 114 l 736 0 l 510 0 q 342 59 403 0 q 281 222 281 118 l 281 900 l 28 900 m 519 485 q 552 572 519 539 q 639 604 585 604 q 726 572 693 604 q 758 485 758 539 q 726 395 758 429 q 639 361 693 361 q 552 395 585 361 q 519 485 519 429 z "},"°":{"ha":833,"x_min":208,"x_max":625,"o":"m 417 1028 q 568 973 511 1028 q 625 826 625 918 q 568 680 625 735 q 417 625 511 625 q 265 680 322 625 q 208 826 208 735 q 265 973 208 918 q 417 1028 322 1028 m 292 826 q 326 732 292 768 q 415 696 360 696 q 508 732 474 696 q 542 826 542 768 q 508 922 542 886 q 415 958 474 958 q 326 922 360 958 q 292 826 292 886 z "},"ț":{"ha":833,"x_min":83,"x_max":729,"o":"m 83 764 l 306 764 l 306 1000 l 431 1000 l 431 764 l 729 764 l 729 650 l 431 650 l 431 197 q 455 136 431 158 q 521 114 479 114 l 715 114 l 715 0 l 521 0 q 364 54 422 0 q 306 197 306 108 l 306 650 l 83 650 l 83 764 m 535 -131 l 424 -333 l 299 -333 l 382 -131 l 535 -131 z "},"Ļ":{"ha":833,"x_min":146,"x_max":743,"o":"m 271 1000 l 271 114 l 743 114 l 743 0 l 146 0 l 146 1000 l 271 1000 m 535 -131 l 424 -333 l 299 -333 l 382 -131 l 535 -131 z "},"ș":{"ha":833,"x_min":107,"x_max":719,"o":"m 107 188 l 239 188 q 290 122 247 147 q 396 97 333 97 l 435 97 q 551 128 510 97 q 593 213 593 160 q 465 322 593 303 l 350 339 q 182 410 238 356 q 126 561 126 464 q 199 721 126 664 q 403 778 272 778 l 442 778 q 544 764 497 778 q 628 724 592 750 q 687 663 664 699 q 717 585 710 628 l 585 585 q 538 644 576 621 q 442 667 499 667 l 403 667 q 292 639 332 667 q 253 556 253 611 q 280 488 253 511 q 368 457 307 465 l 483 440 q 663 368 607 422 q 719 214 719 314 q 645 47 719 107 q 435 -14 571 -14 l 396 -14 q 197 41 275 -14 q 107 188 118 96 m 519 -131 l 408 -333 l 283 -333 l 367 -131 l 519 -131 z "},"ņ":{"ha":833,"x_min":122,"x_max":713,"o":"m 122 764 l 240 764 l 240 632 l 251 632 q 324 740 269 703 q 461 778 378 778 q 567 758 521 778 q 647 701 614 738 q 696 616 679 665 q 713 508 713 567 l 713 0 l 588 0 l 588 488 q 543 624 588 575 q 419 672 499 672 q 294 620 340 672 q 247 479 247 568 l 247 0 l 122 0 l 122 764 m 519 -131 l 408 -333 l 283 -333 l 367 -131 l 519 -131 z "},"Ț":{"ha":833,"x_min":63,"x_max":771,"o":"m 63 890 l 63 1000 l 771 1000 l 771 890 l 481 890 l 481 0 l 353 0 l 353 890 l 63 890 m 535 -131 l 424 -333 l 299 -333 l 382 -131 l 535 -131 z "},"Ņ":{"ha":833,"x_min":118,"x_max":715,"o":"m 276 1000 l 542 329 q 563 272 553 304 q 579 210 572 239 q 597 139 589 175 l 608 139 q 607 153 608 139 q 603 193 606 168 q 598 251 600 218 q 596 319 596 283 l 596 1000 l 715 1000 l 715 0 l 557 0 l 296 672 q 274 738 285 704 q 256 799 263 771 q 239 863 246 831 l 228 863 q 233 813 231 840 q 236 756 235 789 q 238 683 238 724 l 238 0 l 118 0 l 118 1000 l 276 1000 m 535 -131 l 424 -333 l 299 -333 l 382 -131 l 535 -131 z "},"Ķ":{"ha":833,"x_min":125,"x_max":799,"o":"m 125 1000 l 250 1000 l 250 575 l 410 575 l 638 1000 l 785 1000 l 519 525 l 799 0 l 650 0 l 410 465 l 250 465 l 250 0 l 125 0 l 125 1000 m 535 -131 l 424 -333 l 299 -333 l 382 -131 l 535 -131 z "},"ķ":{"ha":833,"x_min":129,"x_max":785,"o":"m 129 1000 l 254 1000 l 254 444 l 404 444 l 638 764 l 781 764 l 510 394 l 785 0 l 639 0 l 406 333 l 254 333 l 254 0 l 129 0 l 129 1000 m 535 -131 l 424 -333 l 299 -333 l 382 -131 l 535 -131 z "},"Ģ":{"ha":833,"x_min":111,"x_max":729,"o":"m 111 285 l 111 715 q 133 838 111 782 q 195 932 156 893 q 292 992 235 971 q 417 1014 349 1014 q 624 950 543 1014 q 729 764 704 886 l 601 764 q 539 866 588 829 q 417 903 490 903 q 285 853 333 903 q 236 715 236 803 l 236 285 q 285 147 236 197 q 417 97 333 97 q 549 147 500 97 q 597 285 597 197 l 597 403 l 394 403 l 394 514 l 722 514 l 722 285 q 701 161 722 217 q 640 67 679 106 q 544 7 600 28 q 417 -14 488 -14 q 290 7 347 -14 q 194 67 233 28 q 133 161 154 106 q 111 285 111 217 m 535 -131 l 424 -333 l 299 -333 l 382 -131 l 535 -131 z "},"ĺ":{"ha":833,"x_min":56,"x_max":764,"o":"m 56 900 l 56 1014 l 433 1014 l 433 222 q 461 142 433 171 q 538 114 489 114 l 764 114 l 764 0 l 538 0 q 369 59 431 0 q 308 222 308 118 l 308 900 l 56 900 m 444 1125 l 319 1125 l 472 1328 l 625 1328 l 444 1125 z "},"ļ":{"ha":833,"x_min":56,"x_max":764,"o":"m 56 900 l 56 1014 l 433 1014 l 433 222 q 461 142 433 171 q 538 114 489 114 l 764 114 l 764 0 l 538 0 q 369 59 431 0 q 308 222 308 118 l 308 900 l 56 900 m 535 -131 l 424 -333 l 299 -333 l 382 -131 l 535 -131 z "},"ŗ":{"ha":833,"x_min":156,"x_max":758,"o":"m 274 764 l 274 632 l 285 632 q 360 739 303 700 q 500 778 417 778 q 690 702 621 778 q 758 494 758 626 l 758 451 l 633 451 l 633 479 q 588 619 633 569 q 460 668 543 668 q 329 617 378 668 q 281 479 281 567 l 281 0 l 156 0 l 156 764 l 274 764 m 535 -131 l 424 -333 l 299 -333 l 382 -131 l 535 -131 z "},"Ŗ":{"ha":833,"x_min":125,"x_max":760,"o":"m 125 1000 l 444 1000 q 568 979 513 1000 q 663 919 624 958 q 724 827 703 881 q 746 708 746 774 q 692 531 746 604 q 547 431 639 458 l 760 0 l 613 0 l 418 417 l 250 417 l 250 0 l 125 0 l 125 1000 m 250 528 l 444 528 q 570 577 524 528 q 617 708 617 626 q 569 840 617 790 q 444 889 522 889 l 250 889 l 250 528 m 535 -131 l 424 -333 l 299 -333 l 382 -131 l 535 -131 z "},"Ľ":{"ha":833,"x_min":146,"x_max":797,"o":"m 271 1000 l 271 114 l 743 114 l 743 0 l 146 0 l 146 1000 l 271 1000 m 617 861 l 492 861 l 644 1064 l 797 1064 l 617 861 z "},"ľ":{"ha":833,"x_min":56,"x_max":889,"o":"m 56 900 l 56 1014 l 433 1014 l 433 222 q 461 142 433 171 q 538 114 489 114 l 764 114 l 764 0 l 538 0 q 369 59 431 0 q 308 222 308 118 l 308 900 l 56 900 m 708 861 l 583 861 l 736 1064 l 889 1064 l 708 861 z "},"Ŧ":{"ha":833,"x_min":63,"x_max":771,"o":"m 63 890 l 63 1000 l 771 1000 l 771 890 l 481 890 l 481 0 l 353 0 l 353 890 l 63 890 m 236 556 l 597 556 l 597 451 l 236 451 l 236 556 z "},"ŧ":{"ha":833,"x_min":83,"x_max":729,"o":"m 83 764 l 306 764 l 306 1000 l 431 1000 l 431 764 l 729 764 l 729 650 l 431 650 l 431 197 q 455 136 431 158 q 521 114 479 114 l 715 114 l 715 0 l 521 0 q 364 54 422 0 q 306 197 306 108 l 306 650 l 83 650 l 83 764 m 194 458 l 556 458 l 556 354 l 194 354 l 194 458 z "},"ħ":{"ha":833,"x_min":28,"x_max":713,"o":"m 28 938 l 122 938 l 122 1014 l 247 1014 l 247 938 l 389 938 l 389 833 l 247 833 l 247 764 q 247 722 247 744 q 244 679 246 699 q 240 632 242 656 l 251 632 q 324 740 269 701 q 461 778 379 778 q 565 758 518 778 q 644 703 611 739 q 694 619 676 668 q 713 508 713 569 l 713 0 l 588 0 l 588 488 q 543 624 588 575 q 419 672 499 672 q 294 620 340 672 q 247 479 247 568 l 247 0 l 122 0 l 122 833 l 28 833 l 28 938 z "},"Ĺ":{"ha":833,"x_min":139,"x_max":743,"o":"m 271 1000 l 271 114 l 743 114 l 743 0 l 146 0 l 146 1000 l 271 1000 m 264 1111 l 139 1111 l 292 1314 l 444 1314 l 264 1111 z "},"©":{"ha":833,"x_min":63,"x_max":771,"o":"m 63 694 q 88 831 63 769 q 160 937 114 893 q 272 1004 207 981 q 417 1028 338 1028 q 561 1004 496 1028 q 673 937 626 981 q 745 831 719 893 q 771 694 771 769 l 771 486 q 745 350 771 411 q 673 245 719 289 q 561 177 626 201 q 417 153 496 153 q 272 177 338 153 q 160 245 207 201 q 88 350 114 289 q 63 486 63 411 l 63 694 m 417 958 q 303 940 354 958 q 216 886 253 921 q 159 803 179 851 q 139 694 139 754 l 139 486 q 159 378 139 426 q 216 294 179 329 q 303 241 253 260 q 417 222 354 222 q 531 241 479 222 q 618 294 582 260 q 674 378 654 329 q 694 486 694 426 l 694 694 q 674 803 694 754 q 618 886 654 851 q 531 940 582 921 q 417 958 479 958 m 250 681 q 297 797 250 753 q 424 840 344 840 q 596 708 560 840 l 506 708 q 474 749 496 735 q 424 764 453 764 q 363 741 386 764 q 340 681 340 718 l 340 500 q 363 440 340 463 q 424 417 386 417 q 474 431 453 417 q 506 472 496 446 l 596 472 q 424 340 560 340 q 297 384 344 340 q 250 500 250 428 l 250 681 z "},"®":{"ha":833,"x_min":63,"x_max":771,"o":"m 417 1028 q 561 1004 496 1028 q 673 937 626 981 q 745 831 719 893 q 771 694 771 769 l 771 486 q 745 350 771 411 q 673 245 719 289 q 561 177 626 201 q 417 153 496 153 q 272 177 338 153 q 160 245 207 201 q 88 350 114 289 q 63 486 63 411 l 63 694 q 88 831 63 769 q 160 937 114 893 q 272 1004 207 981 q 417 1028 338 1028 m 417 222 q 531 241 479 222 q 618 294 582 260 q 674 378 654 329 q 694 486 694 426 l 694 694 q 674 803 694 754 q 618 886 654 851 q 531 940 582 921 q 417 958 479 958 q 303 940 354 958 q 216 886 253 921 q 159 803 179 851 q 139 694 139 754 l 139 486 q 159 378 139 426 q 216 294 179 329 q 303 241 253 260 q 417 222 354 222 m 264 347 l 264 833 l 422 833 q 541 794 497 833 q 585 688 585 754 q 563 607 585 640 q 501 557 542 574 l 593 347 l 504 347 l 422 542 l 422 542 l 347 542 l 347 347 l 264 347 m 347 611 l 422 611 q 479 631 458 611 q 500 688 500 651 q 479 744 500 724 q 422 764 458 764 l 347 764 l 347 611 z "},"¡":{"ha":833,"x_min":313,"x_max":521,"o":"m 343 -69 l 372 465 l 461 465 l 490 -69 l 490 -236 l 343 -236 l 343 -69 m 313 689 q 338 749 313 726 q 403 771 363 771 l 431 771 q 496 749 471 771 q 521 690 521 728 q 496 628 521 651 q 431 604 471 604 l 403 604 q 338 628 363 604 q 313 689 313 651 z "},"¿":{"ha":833,"x_min":153,"x_max":646,"o":"m 153 56 q 172 165 153 115 q 225 251 190 214 q 308 309 260 288 q 415 333 357 331 l 415 479 l 540 479 l 540 229 l 471 229 q 329 183 381 229 q 278 56 278 138 q 329 -72 278 -26 q 472 -118 381 -118 l 646 -118 l 646 -236 l 472 -236 q 340 -216 399 -236 q 239 -158 281 -196 q 175 -65 197 -119 q 153 56 153 -11 m 465 771 l 493 771 q 558 749 533 771 q 583 690 583 728 q 558 628 583 651 q 493 604 533 604 l 465 604 q 400 628 425 604 q 375 689 375 651 q 400 749 375 726 q 465 771 425 771 z "},"ŉ":{"ha":833,"x_min":-21,"x_max":713,"o":"m 122 764 l 240 764 l 240 632 l 251 632 q 324 740 269 703 q 461 778 378 778 q 567 758 521 778 q 647 701 614 738 q 696 616 679 665 q 713 508 713 567 l 713 0 l 588 0 l 588 488 q 543 624 588 575 q 419 672 499 672 q 294 620 340 672 q 247 479 247 568 l 247 0 l 122 0 l 122 764 m 215 1015 l 104 813 l -21 813 l 63 1015 l 215 1015 z "},"Ș":{"ha":833,"x_min":97,"x_max":736,"o":"m 97 257 l 229 257 q 281 141 229 185 q 419 97 333 97 q 558 138 508 97 q 608 250 608 179 q 572 358 608 311 q 474 426 536 404 l 356 468 q 128 750 128 550 q 207 943 128 872 q 424 1014 286 1014 q 545 995 490 1014 q 640 942 600 976 q 701 858 679 907 q 724 749 722 808 l 592 749 q 545 861 592 819 q 422 903 499 903 q 299 865 344 903 q 253 761 253 826 q 286 660 253 700 q 394 592 319 619 l 518 547 q 680 434 624 510 q 736 254 736 358 q 651 58 736 129 q 417 -14 565 -14 q 288 6 346 -14 q 188 60 229 25 q 122 146 146 96 q 97 257 99 196 m 535 -131 l 424 -333 l 299 -333 l 382 -131 l 535 -131 z "},"Þ":{"ha":833,"x_min":125,"x_max":764,"o":"m 250 986 l 250 799 l 463 799 q 586 778 531 799 q 681 722 642 758 q 742 635 721 686 q 764 521 764 583 q 742 406 764 457 q 682 318 721 354 q 588 263 643 282 q 463 243 532 243 l 250 243 l 250 0 l 125 0 l 125 986 l 250 986 m 250 354 l 463 354 q 589 399 543 354 q 635 521 635 443 q 588 643 635 599 q 463 688 542 688 l 250 688 l 250 354 z "},"ȷ":{"ha":833,"x_min":118,"x_max":604,"o":"m 118 -121 l 285 -121 q 426 -68 372 -121 q 479 69 479 -15 l 479 650 l 160 650 l 160 764 l 604 764 l 604 69 q 581 -53 604 3 q 515 -151 557 -110 q 414 -214 472 -192 q 285 -236 356 -236 l 118 -236 l 118 -121 z "},"Ţ":{"ha":833,"x_min":63,"x_max":771,"o":"m 63 890 l 63 1000 l 771 1000 l 771 890 l 481 890 l 481 0 l 353 0 l 353 890 l 63 890 m 313 -264 l 313 -187 l 410 -187 q 459 -176 440 -187 q 478 -146 478 -165 q 440 -109 478 -122 q 332 -96 403 -96 l 381 36 l 460 36 l 431 -49 q 514 -65 478 -53 q 572 -99 546 -76 q 597 -157 597 -121 q 551 -235 597 -206 q 431 -264 506 -264 l 313 -264 z "},"ţ":{"ha":833,"x_min":83,"x_max":729,"o":"m 83 764 l 306 764 l 306 1000 l 431 1000 l 431 764 l 729 764 l 729 650 l 431 650 l 431 197 q 455 136 431 158 q 521 114 479 114 l 715 114 l 715 0 l 521 0 q 364 54 422 0 q 306 197 306 108 l 306 650 l 83 650 l 83 764 m 354 -264 l 354 -187 l 451 -187 q 501 -176 482 -187 q 519 -146 519 -165 q 482 -109 519 -122 q 374 -96 444 -96 l 422 36 l 501 36 l 472 -49 q 556 -65 519 -53 q 613 -99 588 -76 q 639 -157 639 -121 q 593 -235 639 -206 q 472 -264 547 -264 l 354 -264 z "},"đ":{"ha":833,"x_min":111,"x_max":806,"o":"m 111 285 l 111 479 q 130 604 111 549 q 182 698 149 660 q 263 757 215 736 q 368 778 310 778 q 508 740 453 778 q 582 632 564 701 l 593 632 q 590 679 592 656 q 587 723 588 700 q 586 764 586 746 l 586 833 l 444 833 l 444 938 l 586 938 l 586 1014 l 711 1014 l 711 938 l 806 938 l 806 833 l 711 833 l 711 0 l 593 0 l 593 132 l 582 132 q 508 24 564 63 q 368 -14 453 -14 q 263 7 310 -14 q 182 66 215 28 q 130 160 149 104 q 111 285 111 215 m 415 94 q 540 146 493 94 q 586 285 586 197 l 586 479 q 540 618 586 567 q 415 669 493 669 q 283 619 331 669 q 236 479 236 569 l 236 285 q 284 146 236 197 q 415 94 332 94 z "},"ģ":{"ha":833,"x_min":101,"x_max":711,"o":"m 101 486 q 119 607 101 553 q 172 699 138 661 q 254 757 206 736 q 363 778 303 778 q 504 738 446 778 q 583 625 563 699 l 593 625 l 593 764 l 711 764 l 711 49 q 632 -161 711 -86 q 410 -236 553 -236 l 222 -236 l 222 -122 l 410 -122 q 540 -78 493 -122 q 586 49 586 -33 l 586 83 l 592 215 l 583 215 q 504 102 563 142 q 363 63 446 63 q 255 83 303 63 q 173 142 207 104 q 120 233 139 179 q 101 354 101 288 l 101 486 m 229 354 q 277 219 229 268 q 408 171 325 171 q 539 219 492 171 q 586 354 586 268 l 586 486 q 539 621 586 572 q 408 669 492 669 q 277 621 325 669 q 229 486 229 572 l 229 354 m 299 942 l 410 1144 l 535 1144 l 451 942 l 299 942 z "},"Ħ":{"ha":833,"x_min":63,"x_max":771,"o":"m 771 833 l 771 722 l 708 722 l 708 0 l 583 0 l 583 464 l 250 464 l 250 0 l 125 0 l 125 722 l 63 722 l 63 833 l 125 833 l 125 1000 l 250 1000 l 250 833 l 583 833 l 583 1000 l 708 1000 l 708 833 l 771 833 m 250 722 l 250 578 l 583 578 l 583 722 l 250 722 z "},"Ĵ":{"ha":833,"x_min":63,"x_max":701,"o":"m 188 243 q 251 137 200 176 q 375 97 303 97 q 517 148 464 97 q 569 285 569 199 l 569 889 l 181 889 l 181 1000 l 694 1000 l 694 285 q 672 161 694 217 q 608 67 650 106 q 508 7 567 28 q 375 -14 449 -14 q 261 4 314 -14 q 167 56 208 22 q 99 138 126 90 q 63 243 72 185 l 188 243 m 424 1326 l 521 1326 l 701 1125 l 593 1125 l 517 1204 q 497 1226 504 1218 q 483 1240 489 1235 q 475 1251 478 1247 l 471 1251 q 463 1242 468 1247 q 449 1226 457 1235 q 429 1206 442 1218 l 351 1125 l 243 1125 l 424 1326 z "},"ĵ":{"ha":833,"x_min":118,"x_max":660,"o":"m 382 1104 l 479 1104 l 660 903 l 551 903 l 475 982 q 455 1004 463 996 q 442 1018 447 1013 q 433 1029 436 1025 l 429 1029 q 421 1019 426 1025 q 408 1004 415 1013 q 388 983 400 996 l 310 903 l 201 903 l 382 1104 m 118 -121 l 285 -121 q 426 -68 372 -121 q 479 69 479 -15 l 479 650 l 160 650 l 160 764 l 604 764 l 604 69 q 581 -53 604 3 q 515 -151 557 -110 q 414 -214 472 -192 q 285 -236 356 -236 l 118 -236 l 118 -121 z "},"ť":{"ha":833,"x_min":83,"x_max":806,"o":"m 83 650 l 83 764 l 306 764 l 306 1000 l 431 1000 l 431 764 l 729 764 l 729 650 l 431 650 l 431 197 q 455 136 431 158 q 521 114 479 114 l 715 114 l 715 0 l 521 0 q 364 54 422 0 q 306 197 306 108 l 306 650 l 83 650 m 611 847 l 681 1050 l 806 1050 l 708 847 l 611 847 z "},"…":{"ha":833,"x_min":83,"x_max":750,"o":"m 611 160 q 630 215 611 194 q 681 236 649 236 q 731 215 713 236 q 750 160 750 194 l 750 63 q 731 7 750 28 q 681 -14 713 -14 q 630 7 649 -14 q 611 63 611 28 l 611 160 m 417 236 q 467 215 449 236 q 486 160 486 194 l 486 63 q 467 7 486 28 q 417 -14 449 -14 q 366 7 385 -14 q 347 63 347 28 l 347 160 q 366 215 347 194 q 417 236 385 236 m 83 63 l 83 160 q 102 215 83 194 q 153 236 121 236 q 203 215 185 236 q 222 160 222 194 l 222 63 q 203 7 222 28 q 153 -14 185 -14 q 102 7 121 -14 q 83 63 83 28 z "},"¶":{"ha":833,"x_min":90,"x_max":701,"o":"m 90 764 q 109 860 90 817 q 163 935 128 904 q 246 983 197 967 q 354 1000 294 1000 l 701 1000 l 701 0 l 590 0 l 590 901 l 465 901 l 465 0 l 354 0 l 354 417 q 246 433 294 417 q 163 481 197 450 q 109 556 128 513 q 90 653 90 600 l 90 764 z "},"µ":{"ha":833,"x_min":125,"x_max":708,"o":"m 250 764 l 250 269 q 289 141 250 186 q 415 96 328 96 q 543 141 503 96 q 583 269 583 186 l 583 764 l 708 764 l 708 269 q 635 60 708 135 q 429 -14 563 -14 q 319 3 361 -14 q 254 40 278 19 q 215 93 228 63 l 210 93 q 215 82 211 93 q 222 54 218 71 q 228 18 225 38 q 233 -18 232 -1 l 249 -236 l 125 -236 l 125 764 l 250 764 z "},"Œ":{"ha":833,"x_min":56,"x_max":799,"o":"m 271 -14 q 113 57 171 -14 q 56 250 56 128 l 56 750 q 113 943 56 872 q 271 1014 171 1014 q 351 994 321 1014 q 397 951 381 975 q 424 889 415 924 l 431 889 l 431 1000 l 799 1000 l 799 886 l 553 886 l 553 574 l 764 574 l 764 460 l 553 460 l 553 114 l 799 114 l 799 0 l 431 0 l 431 111 l 424 111 q 397 49 415 76 q 351 6 381 25 q 271 -14 321 -14 m 181 250 q 214 138 181 179 q 306 97 247 97 q 397 138 364 97 q 431 250 431 179 l 431 750 q 397 862 431 821 q 306 903 364 903 q 214 862 247 903 q 181 750 181 821 l 181 250 z "},"œ":{"ha":833,"x_min":49,"x_max":785,"o":"m 49 556 q 103 718 49 658 q 250 778 157 778 q 341 760 308 778 q 389 722 374 743 q 414 667 408 697 l 419 667 q 444 722 425 697 q 493 760 461 743 q 583 778 525 778 q 731 718 676 778 q 785 556 785 658 l 785 347 l 476 347 l 476 208 q 501 124 476 156 q 569 93 526 93 q 631 115 606 93 q 663 174 656 138 l 781 174 q 714 36 767 86 q 583 -14 661 -14 q 493 3 525 -14 q 444 42 461 21 q 419 97 425 67 l 414 97 q 389 42 408 67 q 341 3 374 21 q 250 -14 308 -14 q 103 46 157 -14 q 49 208 49 106 l 49 556 m 264 671 q 193 640 219 671 q 167 556 167 608 l 167 208 q 193 124 167 156 q 264 93 219 93 q 332 124 307 93 q 357 208 357 156 l 357 556 q 332 640 357 608 q 264 671 307 671 m 667 449 l 667 556 q 640 640 667 608 q 569 671 614 671 q 501 640 526 671 q 476 556 476 608 l 476 449 l 667 449 z "},"Æ":{"ha":833,"x_min":42,"x_max":792,"o":"m 42 0 l 243 1000 l 792 1000 l 792 886 l 539 886 l 539 572 l 757 572 l 757 458 l 539 458 l 539 114 l 792 114 l 792 0 l 417 0 l 417 282 l 221 282 l 165 0 l 42 0 m 240 386 l 417 386 l 417 886 l 339 886 l 240 386 z "},"æ":{"ha":833,"x_min":49,"x_max":785,"o":"m 261 451 l 364 451 l 364 554 q 342 643 364 615 q 271 671 319 671 q 183 590 192 671 l 65 590 q 124 728 75 679 q 250 778 172 778 q 340 760 307 778 q 390 722 372 743 q 418 667 410 697 l 424 667 q 451 722 431 697 q 499 760 468 743 q 583 778 531 778 q 731 719 678 778 q 785 556 785 660 l 785 354 l 476 354 l 476 208 q 502 124 476 156 q 569 93 528 93 q 633 115 607 93 q 667 174 660 138 l 785 174 q 720 38 775 89 q 583 -14 665 -14 q 499 3 531 -14 q 450 42 467 21 q 424 97 431 67 l 418 97 q 388 42 410 67 q 333 3 368 21 q 236 -14 299 -14 q 99 38 149 -14 q 49 181 49 90 l 49 264 q 106 401 49 350 q 261 451 164 451 m 174 264 l 174 181 q 198 117 174 140 q 264 93 222 93 q 336 124 308 93 q 364 208 364 156 l 364 354 l 264 354 q 197 330 221 354 q 174 264 174 306 m 476 556 l 476 451 l 667 451 l 667 556 q 641 640 667 608 q 569 671 615 671 q 501 640 525 671 q 476 556 476 608 z "},"ß":{"ha":833,"x_min":76,"x_max":799,"o":"m 76 0 l 76 765 q 95 867 76 821 q 149 945 114 913 q 232 996 183 978 q 339 1014 281 1014 l 440 1014 q 549 996 500 1014 q 633 945 599 978 q 687 867 668 913 q 706 765 706 821 l 706 653 l 581 653 q 457 556 457 653 q 551 453 457 471 l 599 443 q 747 363 696 424 q 799 210 799 301 q 737 45 799 104 q 563 -14 675 -14 q 390 38 457 -14 q 313 181 324 89 l 444 181 q 483 119 451 140 q 563 97 514 97 q 674 207 674 97 q 578 326 674 306 l 532 336 q 331 554 331 378 q 396 709 331 654 q 581 764 461 764 q 542 865 581 826 q 440 903 504 903 l 339 903 q 239 865 276 903 q 201 764 201 826 l 201 0 l 76 0 z "},"ð":{"ha":833,"x_min":97,"x_max":736,"o":"m 97 299 q 118 424 97 368 q 178 521 139 481 q 270 583 217 561 q 390 606 324 606 q 461 594 432 606 q 510 567 490 582 q 546 528 532 550 l 565 528 q 539 561 554 540 q 506 604 525 578 q 461 667 486 631 l 378 788 l 163 688 l 163 799 l 319 872 l 222 1014 l 374 1014 l 432 924 l 640 1021 l 640 910 l 489 839 l 590 685 q 736 299 736 463 q 713 172 736 229 q 648 73 690 114 q 547 9 606 32 q 415 -14 488 -14 q 285 8 343 -14 q 185 72 226 31 q 120 170 143 113 q 97 299 97 228 m 222 299 q 275 152 222 207 q 415 97 328 97 q 558 152 504 97 q 611 299 611 207 q 558 445 611 390 q 415 500 504 500 q 275 445 328 500 q 222 299 222 390 z "},"¬":{"ha":833,"x_min":97,"x_max":736,"o":"m 97 576 l 736 576 l 736 285 l 618 285 l 618 465 l 97 465 l 97 576 z "},"™":{"ha":833,"x_min":21,"x_max":785,"o":"m 431 1014 l 542 1014 l 589 872 q 597 842 594 858 q 601 811 600 826 q 606 778 604 794 l 614 778 q 618 811 615 794 q 624 842 621 826 q 631 872 626 858 l 676 1014 l 785 1014 l 785 514 l 708 514 l 708 863 q 710 891 708 875 q 714 922 711 907 q 718 958 715 940 l 706 958 q 699 922 703 939 q 692 890 696 907 q 686 861 689 874 l 644 708 l 572 708 l 528 863 q 521 891 525 875 q 514 922 517 907 q 507 958 510 940 l 496 958 q 501 922 499 940 q 506 891 504 907 q 507 863 507 875 l 507 514 l 431 514 l 431 1014 m 382 1014 l 382 944 l 243 944 l 243 514 l 160 514 l 160 944 l 21 944 l 21 1014 l 382 1014 z "},"ƒ":{"ha":833,"x_min":0,"x_max":743,"o":"m 146 -122 q 263 -81 221 -122 q 306 35 306 -39 l 306 574 l 83 574 l 83 688 l 306 688 l 306 807 q 362 949 306 899 q 519 1000 418 1000 l 743 1000 l 743 889 l 519 889 q 431 806 431 889 l 431 688 l 743 688 l 743 574 l 431 574 l 431 35 q 410 -76 431 -26 q 353 -162 390 -126 q 263 -217 315 -197 q 146 -236 211 -236 l 0 -236 l 0 -122 l 146 -122 z "},"§":{"ha":833,"x_min":107,"x_max":726,"o":"m 107 -14 l 239 -14 q 294 -88 251 -60 q 396 -117 338 -117 l 438 -117 q 558 -84 517 -117 q 600 3 600 -51 q 460 132 600 104 l 354 153 q 258 185 301 164 q 184 237 215 207 q 136 303 153 267 q 119 382 119 340 q 133 457 119 422 q 171 518 147 492 q 227 561 194 544 q 299 582 260 578 l 299 592 q 213 615 250 594 q 152 675 179 635 q 125 790 125 715 q 198 953 125 893 q 401 1014 271 1014 l 443 1014 q 544 999 497 1014 q 628 958 592 985 q 688 895 664 932 q 718 813 711 858 l 586 813 q 536 878 575 853 q 443 903 497 903 l 401 903 q 291 872 331 903 q 251 789 251 842 q 287 711 251 744 q 386 665 322 678 l 489 644 q 585 613 542 635 q 659 560 628 590 q 707 492 690 529 q 724 414 724 456 q 710 339 724 374 q 673 278 697 304 q 615 237 649 251 q 539 222 581 222 l 539 213 q 633 183 592 207 q 667 158 650 174 q 697 122 683 143 q 718 72 710 100 q 726 7 726 43 q 651 -165 726 -101 q 438 -228 575 -228 l 396 -228 q 290 -212 339 -228 q 202 -169 240 -197 q 140 -101 164 -140 q 107 -14 115 -62 m 246 403 q 275 312 246 350 q 353 264 304 274 l 458 243 q 515 247 489 238 q 558 279 540 257 q 587 333 576 301 q 597 401 597 364 q 567 486 597 450 q 488 533 536 522 l 385 554 q 328 551 354 561 q 285 520 303 542 q 256 469 267 499 q 246 403 246 439 z "},"¤":{"ha":833,"x_min":58,"x_max":774,"o":"m 58 769 l 146 857 l 268 735 q 415 774 333 774 q 568 731 501 774 l 686 849 l 774 761 l 656 643 q 685 573 675 611 q 696 493 696 535 q 653 340 696 407 l 774 219 l 686 132 l 565 253 q 495 223 533 233 q 415 213 457 213 q 267 253 331 213 l 146 132 l 58 219 l 178 339 q 133 493 133 404 q 145 577 133 538 q 178 650 157 617 l 58 769 m 415 314 q 544 363 496 314 q 593 493 593 413 q 544 623 593 574 q 415 672 496 672 q 285 623 335 672 q 236 493 236 574 q 285 363 236 413 q 415 314 335 314 z "},"¢":{"ha":833,"x_min":122,"x_max":733,"o":"m 382 775 l 382 958 l 472 958 l 472 775 q 649 697 581 764 q 733 521 718 629 l 608 521 q 564 614 600 576 q 472 663 528 651 l 472 101 q 564 150 528 113 q 608 243 600 188 l 733 243 q 649 67 718 135 q 472 -11 579 0 l 472 -194 l 382 -194 l 382 -11 q 191 80 260 1 q 122 285 122 158 l 122 479 q 191 684 122 606 q 382 775 260 763 m 382 101 l 382 663 q 283 601 318 649 q 247 479 247 554 l 247 285 q 283 162 247 210 q 382 101 318 114 z "},"£":{"ha":833,"x_min":104,"x_max":743,"o":"m 104 139 q 181 197 147 167 q 232 256 208 224 q 256 325 256 289 q 250 389 256 363 l 104 389 l 104 500 l 210 500 q 180 550 196 526 q 150 599 164 574 q 128 654 136 625 q 119 721 119 683 q 199 928 119 856 q 417 1000 278 1000 q 635 930 556 1000 q 717 735 714 860 l 585 735 q 538 847 585 806 q 415 889 492 889 q 292 848 338 889 q 246 729 246 807 q 256 656 246 686 q 281 601 265 626 q 313 553 296 576 q 346 500 331 529 l 604 500 l 604 389 l 379 389 q 381 365 381 378 q 382 338 382 351 q 358 233 382 275 q 306 163 335 190 q 229 111 272 131 l 743 111 l 743 0 l 104 0 l 104 139 z "},"¥":{"ha":833,"x_min":42,"x_max":792,"o":"m 174 1000 l 379 588 q 394 553 388 571 q 405 519 400 535 q 413 494 410 504 q 417 479 415 483 l 422 479 q 426 494 424 483 q 434 519 429 504 q 445 553 439 535 q 460 588 451 571 l 658 1000 l 792 1000 l 532 479 l 750 479 l 750 375 l 479 375 l 479 271 l 750 271 l 750 167 l 479 167 l 479 0 l 354 0 l 354 167 l 83 167 l 83 271 l 354 271 l 354 375 l 83 375 l 83 479 l 303 479 l 42 1000 l 174 1000 z "},"ª":{"ha":833,"x_min":243,"x_max":583,"o":"m 243 744 q 282 831 243 799 q 389 863 321 863 l 514 863 l 514 903 q 490 953 514 935 q 424 972 465 972 q 363 957 388 972 q 333 917 338 942 l 264 917 q 313 999 271 969 q 424 1028 354 1028 q 541 994 499 1028 q 583 903 583 961 l 583 632 l 518 632 l 518 708 l 514 708 q 464 647 499 669 q 381 625 429 625 q 281 658 318 625 q 243 744 243 690 m 399 678 q 483 702 453 678 q 514 771 514 726 l 514 807 l 389 807 q 333 790 353 807 q 313 744 313 774 q 335 695 313 713 q 399 678 358 678 z "},"º":{"ha":833,"x_min":257,"x_max":576,"o":"m 257 875 q 301 981 257 942 q 417 1021 344 1021 q 533 981 489 1021 q 576 875 576 942 l 576 764 q 533 658 576 697 q 417 618 489 618 q 301 658 344 618 q 257 764 257 697 l 257 875 m 326 764 q 351 699 326 724 q 417 674 376 674 q 482 699 457 674 q 507 764 507 724 l 507 875 q 482 940 507 915 q 417 965 457 965 q 351 940 376 965 q 326 875 326 915 l 326 764 z "},"¹":{"ha":833,"x_min":250,"x_max":632,"o":"m 250 611 l 250 681 l 414 681 l 414 935 q 418 984 414 968 q 422 1001 422 1000 l 414 1001 q 401 988 408 996 q 387 973 394 981 q 368 956 379 965 l 282 881 l 282 978 l 379 1063 l 497 1063 l 497 681 l 632 681 l 632 611 l 250 611 z "},"²":{"ha":833,"x_min":215,"x_max":569,"o":"m 389 1069 q 515 1027 468 1069 q 563 914 563 985 q 532 829 563 871 q 443 756 501 788 l 314 683 l 314 669 q 346 675 328 672 q 378 679 360 678 q 418 681 397 681 l 569 681 l 569 611 l 215 611 l 215 700 l 382 796 q 479 911 479 851 q 454 976 479 951 q 389 1000 429 1000 q 324 976 349 1000 q 299 911 299 951 l 215 911 q 266 1026 218 983 q 389 1069 314 1069 z "},"³":{"ha":833,"x_min":215,"x_max":569,"o":"m 394 604 q 265 644 314 604 q 215 750 215 683 l 299 750 q 325 694 299 715 q 394 674 351 674 q 461 694 436 674 q 486 750 486 715 q 461 806 486 785 q 396 826 436 826 l 354 826 l 354 910 l 483 999 l 483 1008 q 456 1001 471 1004 q 425 996 442 999 q 389 993 408 993 l 250 993 l 250 1063 l 549 1063 l 549 979 l 469 918 q 448 905 460 911 q 425 894 436 899 q 531 849 492 888 q 569 750 569 811 q 522 644 569 683 q 394 604 474 604 z "},"⁰":{"ha":833,"x_min":236,"x_max":597,"o":"m 417 1069 q 551 1019 504 1069 q 597 882 597 969 l 597 792 q 551 654 597 704 q 417 604 504 604 q 283 654 329 604 q 236 792 236 704 l 236 882 q 283 1019 236 969 q 417 1069 329 1069 m 319 792 q 344 710 319 740 q 417 681 368 681 q 492 713 469 681 q 514 792 514 746 l 514 882 q 490 963 514 933 q 417 993 465 993 q 344 963 368 993 q 319 882 319 933 l 319 792 z "},"⁴":{"ha":833,"x_min":243,"x_max":571,"o":"m 418 1063 l 514 1063 l 326 800 l 326 778 l 488 778 l 488 901 l 571 901 l 571 611 l 488 611 l 488 708 l 243 708 l 243 819 l 418 1063 z "},"₀":{"ha":833,"x_min":236,"x_max":597,"o":"m 417 396 q 551 346 504 396 q 597 208 597 296 l 597 118 q 551 -19 597 31 q 417 -69 504 -69 q 283 -19 329 -69 q 236 118 236 31 l 236 208 q 283 346 236 296 q 417 396 329 396 m 319 118 q 344 37 319 67 q 417 7 368 7 q 492 40 469 7 q 514 118 514 72 l 514 208 q 490 290 514 260 q 417 319 465 319 q 344 290 368 319 q 319 208 319 260 l 319 118 z "},"₁":{"ha":833,"x_min":250,"x_max":632,"o":"m 250 -64 l 250 6 l 414 6 l 414 260 q 418 309 414 293 q 422 326 422 325 l 414 326 q 401 313 408 321 q 387 298 394 306 q 368 281 379 290 l 282 206 l 282 303 l 379 388 l 497 388 l 497 6 l 632 6 l 632 -64 l 250 -64 z "},"₂":{"ha":833,"x_min":215,"x_max":569,"o":"m 389 396 q 515 353 468 396 q 563 240 563 311 q 532 156 563 197 q 443 82 501 114 l 314 10 l 314 -4 q 346 1 328 -1 q 378 6 360 4 q 418 7 397 7 l 569 7 l 569 -62 l 215 -62 l 215 26 l 382 122 q 479 238 479 178 q 454 302 479 278 q 389 326 429 326 q 324 302 349 326 q 299 238 299 278 l 215 238 q 266 353 218 310 q 389 396 314 396 z "},"₃":{"ha":833,"x_min":215,"x_max":569,"o":"m 394 -69 q 265 -30 314 -69 q 215 76 215 10 l 299 76 q 325 21 299 42 q 394 0 351 0 q 461 21 436 0 q 486 76 486 42 q 461 132 486 111 q 396 153 436 153 l 354 153 l 354 236 l 483 325 l 483 335 q 456 328 471 331 q 425 322 442 325 q 389 319 408 319 l 250 319 l 250 389 l 549 389 l 549 306 l 469 244 q 448 231 460 238 q 425 221 436 225 q 531 176 492 214 q 569 76 569 138 q 522 -30 569 10 q 394 -69 474 -69 z "},"₄":{"ha":833,"x_min":243,"x_max":571,"o":"m 418 389 l 514 389 l 326 126 l 326 104 l 488 104 l 488 228 l 571 228 l 571 -62 l 488 -62 l 488 35 l 243 35 l 243 146 l 418 389 z "},"⁄":{"ha":833,"x_min":128,"x_max":706,"o":"m 621 986 l 706 986 l 213 0 l 128 0 l 621 986 z "},"¼":{"ha":833,"x_min":42,"x_max":751,"o":"m 42 549 l 42 618 l 206 618 l 206 872 q 210 922 206 906 q 214 939 214 938 l 206 939 q 193 925 200 933 q 178 910 186 918 q 160 893 171 903 l 74 818 l 74 915 l 171 1000 l 289 1000 l 289 618 l 424 618 l 424 592 l 621 986 l 706 986 l 213 0 l 128 0 l 403 549 l 42 549 m 424 97 l 424 208 l 599 451 l 694 451 l 507 189 l 507 167 l 668 167 l 668 290 l 751 290 l 751 0 l 668 0 l 668 97 l 424 97 z "},"½":{"ha":833,"x_min":42,"x_max":792,"o":"m 206 618 l 206 872 q 210 922 206 906 q 214 939 214 938 l 206 939 q 193 925 200 933 q 178 910 186 918 q 160 893 171 903 l 74 818 l 74 915 l 171 1000 l 289 1000 l 289 618 l 424 618 l 424 592 l 621 986 l 706 986 l 213 0 l 128 0 l 403 549 l 42 549 l 42 618 l 206 618 m 438 0 l 438 89 l 604 185 q 701 300 701 240 q 676 365 701 340 q 611 389 651 389 q 546 365 571 389 q 521 300 521 340 l 438 300 q 488 415 440 372 q 611 458 536 458 q 738 416 690 458 q 785 303 785 374 q 754 218 785 260 q 665 144 724 176 l 536 72 l 536 58 q 568 64 550 61 q 601 68 582 67 q 640 69 619 69 l 792 69 l 792 0 l 438 0 z "},"¾":{"ha":833,"x_min":7,"x_max":751,"o":"m 128 0 l 621 986 l 706 986 l 213 0 l 128 0 m 7 688 l 90 688 q 117 632 90 653 q 186 611 143 611 q 253 632 228 611 q 278 688 278 653 q 253 743 278 722 q 188 764 228 764 l 146 764 l 146 847 l 275 936 l 275 946 q 247 939 263 942 q 217 933 233 936 q 181 931 200 931 l 42 931 l 42 1000 l 340 1000 l 340 917 l 261 856 q 240 842 251 849 q 217 832 228 836 q 322 787 283 825 q 361 688 361 749 q 313 581 361 621 q 186 542 265 542 q 56 581 106 542 q 7 688 7 621 m 424 208 l 599 451 l 694 451 l 507 189 l 507 167 l 668 167 l 668 290 l 751 290 l 751 0 l 668 0 l 668 97 l 424 97 l 424 208 z "},"‰":{"ha":833,"x_min":42,"x_max":826,"o":"m 289 271 q 329 384 289 344 q 438 424 369 424 q 501 410 478 424 q 536 379 524 396 q 557 335 551 360 q 578 379 563 360 q 615 410 592 396 q 678 424 639 424 q 786 384 746 424 q 826 271 826 344 l 826 146 q 786 33 826 72 q 678 -7 746 -7 q 615 7 639 -7 q 579 38 592 21 q 558 82 564 57 q 538 38 553 57 q 501 7 524 21 q 438 -7 478 -7 q 329 33 369 -7 q 289 146 289 72 l 289 271 m 43 771 l 43 833 q 83 959 43 911 q 210 1007 122 1007 q 337 959 297 1007 q 376 833 376 911 l 376 771 q 337 645 376 693 q 210 597 297 597 q 83 645 122 597 q 43 771 43 693 m 792 688 l 792 611 l 42 389 l 42 465 l 792 688 m 368 146 q 388 84 368 104 q 443 64 408 64 q 499 85 479 64 q 519 146 519 106 l 519 271 q 499 332 519 311 q 443 353 479 353 q 388 333 408 353 q 368 271 368 313 l 368 146 m 596 146 q 616 85 596 106 q 672 64 636 64 q 727 84 707 64 q 747 146 747 104 l 747 271 q 727 333 747 313 q 672 353 707 353 q 616 332 636 353 q 596 271 596 311 l 596 146 m 126 771 q 144 702 126 731 q 210 674 161 674 q 253 682 236 674 q 278 704 269 690 q 290 735 288 718 q 293 771 293 753 l 293 833 q 276 902 293 874 q 210 931 258 931 q 144 902 161 931 q 126 833 126 874 l 126 771 z "},"†":{"ha":833,"x_min":139,"x_max":694,"o":"m 354 1153 l 479 1153 l 479 -153 l 354 -153 l 354 1153 m 139 569 l 694 569 l 694 458 l 139 458 l 139 569 z "},"‡":{"ha":833,"x_min":111,"x_max":722,"o":"m 354 1153 l 479 1153 l 479 -153 l 354 -153 l 354 1153 m 111 403 l 722 403 l 722 292 l 111 292 l 111 403 m 722 736 l 722 625 l 111 625 l 111 736 l 722 736 z "},"ĸ":{"ha":833,"x_min":129,"x_max":785,"o":"m 254 764 l 254 444 l 404 444 l 638 764 l 781 764 l 508 396 l 785 0 l 638 0 l 406 333 l 254 333 l 254 0 l 129 0 l 129 764 l 254 764 z "},"ĭ":{"ha":833,"x_min":125,"x_max":757,"o":"m 125 114 l 410 114 l 410 650 l 160 650 l 160 764 l 535 764 l 535 114 l 757 114 l 757 0 l 125 0 l 125 114 m 181 1097 l 285 1097 q 321 1025 285 1050 q 415 1000 357 1000 q 511 1025 474 1000 q 549 1097 549 1050 l 653 1097 q 635 1021 653 1056 q 585 961 617 986 q 510 923 553 936 q 417 910 467 910 q 324 923 367 910 q 249 961 281 936 q 199 1021 217 986 q 181 1097 181 1056 z "},"Ĭ":{"ha":833,"x_min":132,"x_max":701,"o":"m 353 110 l 353 890 l 132 890 l 132 1000 l 701 1000 l 701 890 l 481 890 l 481 110 l 701 110 l 701 0 l 132 0 l 132 110 l 353 110 m 194 1306 l 299 1306 q 415 1208 299 1208 q 504 1233 474 1208 q 535 1306 535 1258 l 639 1306 q 578 1169 639 1221 q 417 1118 517 1118 q 256 1169 317 1118 q 194 1306 194 1221 z "},"ſ":{"ha":833,"x_min":229,"x_max":708,"o":"m 229 779 q 246 869 229 829 q 294 939 263 910 q 368 984 325 968 q 464 1000 411 1000 l 708 1000 l 708 889 l 464 889 q 385 858 415 889 q 354 778 354 828 l 354 0 l 229 0 l 229 779 z "},"ŋ":{"ha":833,"x_min":122,"x_max":713,"o":"m 122 0 l 122 764 l 240 764 l 240 632 l 251 632 q 324 740 269 701 q 458 778 379 778 q 644 707 576 778 q 713 515 713 636 l 713 35 q 692 -76 713 -26 q 635 -162 672 -126 q 545 -217 597 -197 q 428 -236 493 -236 l 340 -236 l 340 -122 l 428 -122 q 545 -81 503 -122 q 588 35 588 -39 l 588 494 q 542 623 588 576 q 418 669 497 669 q 293 624 339 669 q 247 500 247 579 l 247 0 l 122 0 z "},"Ŋ":{"ha":833,"x_min":118,"x_max":715,"o":"m 118 0 l 118 1000 l 276 1000 l 542 399 q 563 341 553 374 q 582 279 574 308 q 600 208 592 244 l 611 208 q 609 223 611 208 q 604 263 607 238 q 599 320 601 288 q 596 389 596 353 l 596 1000 l 715 1000 l 715 35 q 695 -76 715 -26 q 638 -162 675 -126 q 548 -217 600 -197 q 431 -236 496 -236 l 333 -236 l 333 -122 l 431 -122 q 548 -81 506 -122 q 590 35 590 -39 l 296 672 q 271 736 282 703 q 253 797 260 769 q 239 863 244 831 l 228 863 q 233 813 231 840 q 236 756 235 789 q 238 683 238 724 l 238 0 l 118 0 z "},"Н":{"ha":833,"x_min":125,"x_max":708,"o":"m 125 0 l 125 1000 l 250 1000 l 250 578 l 583 578 l 583 1000 l 708 1000 l 708 0 l 583 0 l 583 464 l 250 464 l 250 0 l 125 0 z "},"О":{"ha":833,"x_min":111,"x_max":722,"o":"m 417 -14 q 290 7 346 -14 q 194 67 233 28 q 133 161 154 106 q 111 285 111 217 l 111 715 q 133 839 111 783 q 194 933 154 894 q 290 993 233 972 q 417 1014 346 1014 q 544 993 488 1014 q 640 933 600 972 q 701 839 679 894 q 722 715 722 783 l 722 285 q 701 162 722 217 q 640 68 679 107 q 543 8 600 29 q 417 -14 486 -14 m 236 285 q 285 148 236 199 q 417 97 333 97 q 549 148 500 97 q 597 285 597 199 l 597 715 q 549 852 597 801 q 417 903 500 903 q 285 852 333 903 q 236 715 236 801 l 236 285 z "},"А":{"ha":833,"x_min":61,"x_max":772,"o":"m 333 1000 l 508 1000 l 772 0 l 639 0 l 569 282 l 263 282 l 192 0 l 61 0 l 333 1000 m 544 386 l 447 782 q 435 835 440 811 q 426 879 429 860 q 421 917 424 900 l 415 917 q 408 879 413 900 q 400 835 406 860 q 388 782 394 811 l 289 386 l 544 386 z "},"В":{"ha":833,"x_min":125,"x_max":739,"o":"m 418 1000 q 640 929 560 1000 q 721 736 721 858 q 670 591 721 647 q 536 528 619 535 l 536 519 q 685 451 632 514 q 739 282 739 389 q 718 165 739 217 q 658 76 697 113 q 561 19 618 39 q 433 0 504 0 l 125 0 l 125 1000 l 418 1000 m 249 458 l 249 114 l 419 114 q 558 160 508 114 q 607 286 607 206 q 557 413 607 367 q 419 458 507 458 l 249 458 m 417 567 q 542 609 496 567 q 589 726 589 651 q 543 844 589 801 q 418 886 497 886 l 249 886 l 249 567 l 417 567 z "},"Р":{"ha":833,"x_min":125,"x_max":764,"o":"m 463 1000 q 586 979 531 1000 q 681 919 642 958 q 742 827 721 881 q 764 708 764 774 q 742 590 764 643 q 680 497 719 536 q 585 438 640 458 q 463 417 529 417 l 250 417 l 250 0 l 125 0 l 125 1000 l 463 1000 m 250 528 l 463 528 q 588 577 540 528 q 635 708 635 626 q 588 840 635 790 q 463 889 540 889 l 250 889 l 250 528 z "},"С":{"ha":833,"x_min":119,"x_max":731,"o":"m 425 -14 q 298 7 354 -14 q 202 67 242 28 q 141 161 163 106 q 119 285 119 217 l 119 715 q 141 839 119 783 q 202 933 163 894 q 298 993 242 972 q 425 1014 354 1014 q 635 942 556 1014 q 731 743 715 871 l 606 743 q 549 860 597 818 q 425 903 501 903 q 293 853 342 903 q 244 715 244 803 l 244 285 q 292 147 244 197 q 425 97 340 97 q 549 140 501 97 q 606 257 597 182 l 731 257 q 635 58 715 129 q 425 -14 556 -14 z "},"Е":{"ha":833,"x_min":132,"x_max":722,"o":"m 132 0 l 132 1000 l 722 1000 l 722 886 l 257 886 l 257 572 l 674 572 l 674 458 l 257 458 l 257 114 l 722 114 l 722 0 l 132 0 z "},"К":{"ha":833,"x_min":125,"x_max":799,"o":"m 125 1000 l 250 1000 l 250 575 l 410 575 l 638 1000 l 785 1000 l 519 525 l 799 0 l 650 0 l 410 465 l 250 465 l 250 0 l 125 0 l 125 1000 z "},"М":{"ha":833,"x_min":104,"x_max":729,"o":"m 260 1000 l 379 661 q 392 617 386 640 q 404 574 399 593 q 414 528 410 550 l 425 528 q 436 574 431 550 q 448 617 442 593 q 461 661 454 640 l 574 1000 l 729 1000 l 729 0 l 614 0 l 614 701 q 616 772 614 738 q 621 835 618 807 q 626 894 622 867 l 613 894 q 597 838 606 868 q 580 776 590 810 q 556 701 569 742 l 469 444 l 367 444 l 281 701 q 254 782 265 746 q 235 843 243 818 q 219 896 226 874 l 210 896 q 215 835 213 867 q 218 772 217 807 q 219 701 219 738 l 219 0 l 104 0 l 104 1000 l 260 1000 z "},"Х":{"ha":833,"x_min":56,"x_max":778,"o":"m 347 510 l 71 1000 l 215 1000 l 372 710 q 403 649 392 676 q 417 621 411 635 l 421 621 q 435 649 426 633 l 465 710 l 625 1000 l 763 1000 l 486 518 l 778 0 l 635 0 l 461 318 l 431 379 q 417 408 422 394 l 413 408 q 400 379 407 394 q 385 351 393 367 q 369 319 378 335 l 194 0 l 56 0 l 347 510 z "},"а":{"ha":833,"x_min":88,"x_max":711,"o":"m 88 222 q 106 320 88 276 q 160 394 125 364 q 246 442 196 425 q 358 458 296 458 l 586 458 l 586 521 q 540 631 586 592 q 406 671 493 671 q 297 647 342 671 q 236 582 251 624 l 111 582 q 210 725 131 672 q 408 778 290 778 q 631 712 550 778 q 711 528 711 646 l 711 0 l 597 0 l 597 146 l 586 146 q 501 29 568 72 q 339 -14 435 -14 q 156 50 224 -14 q 88 222 88 114 m 213 225 q 253 125 213 161 q 367 89 293 89 q 454 101 414 89 q 524 137 494 114 q 569 190 553 160 q 586 257 586 221 l 586 361 l 361 361 q 252 325 292 361 q 213 225 213 289 z "},"е":{"ha":833,"x_min":111,"x_max":722,"o":"m 111 486 q 192 700 111 622 q 417 778 274 778 q 641 700 560 778 q 722 486 722 622 l 722 346 l 236 346 l 236 285 q 284 147 236 197 q 417 97 332 97 q 525 117 479 97 q 593 174 571 136 l 718 174 q 613 36 694 86 q 417 -14 532 -14 q 192 64 274 -14 q 111 278 111 142 l 111 486 m 236 450 l 597 450 l 597 486 q 550 619 597 572 q 417 667 503 667 q 283 619 331 667 q 236 486 236 572 l 236 450 z "},"о":{"ha":833,"x_min":111,"x_max":722,"o":"m 417 -14 q 290 7 346 -14 q 194 67 233 28 q 133 161 154 106 q 111 285 111 217 l 111 479 q 133 603 111 549 q 194 697 154 658 q 290 757 233 736 q 417 778 346 778 q 640 699 558 778 q 722 481 722 619 l 722 285 q 641 66 722 146 q 417 -14 560 -14 m 236 285 q 284 147 236 197 q 417 97 332 97 q 549 147 500 97 q 597 285 597 197 l 597 479 q 549 617 597 567 q 417 667 500 667 q 285 617 333 667 q 236 479 236 567 l 236 285 z "},"с":{"ha":833,"x_min":119,"x_max":731,"o":"m 425 -14 q 298 7 354 -14 q 202 67 242 28 q 141 161 163 106 q 119 285 119 217 l 119 479 q 141 603 119 547 q 202 697 163 658 q 298 757 242 736 q 425 778 354 778 q 633 709 551 778 q 731 521 714 640 l 606 521 q 547 627 596 588 q 425 667 497 667 q 293 617 342 667 q 244 479 244 567 l 244 285 q 292 147 244 197 q 425 97 340 97 q 547 137 497 97 q 606 243 596 176 l 731 243 q 631 54 713 122 q 425 -14 550 -14 z "},"у":{"ha":833,"x_min":69,"x_max":764,"o":"m 69 764 l 208 764 l 383 325 q 403 265 396 293 q 415 217 411 238 q 422 169 421 190 l 432 169 q 439 215 433 190 q 450 265 443 238 q 468 325 457 293 l 629 764 l 764 764 l 392 -236 l 258 -236 l 365 56 l 69 764 z "},"х":{"ha":833,"x_min":67,"x_max":767,"o":"m 67 0 l 343 392 l 83 764 l 233 764 l 393 521 q 404 502 400 511 q 411 486 408 493 q 415 472 414 479 l 421 472 q 425 486 422 479 q 432 502 428 493 q 443 521 436 511 l 603 764 l 751 764 l 492 393 l 767 0 l 617 0 l 446 258 q 435 277 440 268 q 426 294 431 286 q 419 313 422 304 l 414 313 q 407 294 411 303 q 399 276 403 286 q 388 258 394 267 l 215 0 l 67 0 z "},"р":{"ha":833,"x_min":122,"x_max":722,"o":"m 122 764 l 240 764 l 240 632 l 251 632 q 325 740 269 701 q 465 778 381 778 q 571 757 524 778 q 651 698 618 736 q 703 604 685 660 q 722 479 722 549 l 722 285 q 703 160 722 215 q 651 66 685 104 q 571 7 618 28 q 465 -14 524 -14 q 325 24 381 -14 q 251 132 269 63 l 240 132 q 244 85 242 108 q 247 42 246 64 q 247 0 247 19 l 247 -236 l 122 -236 l 122 764 m 247 479 l 247 285 q 294 146 247 197 q 418 94 340 94 q 549 146 501 94 q 597 285 597 197 l 597 479 q 550 619 597 569 q 418 669 503 669 q 294 618 340 669 q 247 479 247 567 z "},"П":{"ha":833,"x_min":125,"x_max":708,"o":"m 125 0 l 125 1000 l 708 1000 l 708 0 l 583 0 l 583 886 l 250 886 l 250 0 l 125 0 z "},"Б":{"ha":833,"x_min":125,"x_max":743,"o":"m 125 1000 l 701 1000 l 701 886 l 250 886 l 250 594 l 438 594 q 563 573 507 594 q 659 513 619 551 q 721 419 699 474 q 743 297 743 364 q 721 176 743 231 q 659 82 699 121 q 563 22 619 43 q 438 0 507 0 l 125 0 l 125 1000 m 250 114 l 431 114 q 563 165 513 114 q 614 297 614 215 q 564 431 614 381 q 431 481 514 481 l 250 481 l 250 114 z "},"И":{"ha":833,"x_min":118,"x_max":715,"o":"m 118 1000 l 238 1000 l 238 319 q 235 251 238 283 q 231 193 233 218 q 226 153 228 168 q 225 139 225 139 l 235 139 q 254 210 244 175 q 273 272 263 239 q 293 329 283 304 l 556 1000 l 715 1000 l 715 0 l 596 0 l 596 683 q 597 756 596 724 q 601 813 599 789 q 606 863 603 840 l 596 863 q 578 799 588 831 q 559 738 569 771 q 536 672 549 704 l 278 0 l 118 0 l 118 1000 z "},"Т":{"ha":833,"x_min":63,"x_max":771,"o":"m 63 890 l 63 1000 l 771 1000 l 771 890 l 481 890 l 481 0 l 353 0 l 353 890 l 63 890 z "},"Г":{"ha":833,"x_min":146,"x_max":743,"o":"m 743 1000 l 743 886 l 271 886 l 271 0 l 146 0 l 146 1000 l 743 1000 z "},"Ж":{"ha":833,"x_min":7,"x_max":826,"o":"m 7 0 l 190 522 l 21 1000 l 151 1000 l 297 565 l 361 565 l 361 1000 l 472 1000 l 472 565 l 538 565 l 682 1000 l 813 1000 l 646 521 l 826 0 l 697 0 l 540 474 l 472 474 l 472 0 l 361 0 l 361 474 l 293 474 l 135 0 l 7 0 z "},"Ц":{"ha":833,"x_min":125,"x_max":799,"o":"m 250 1000 l 250 111 l 569 111 l 569 1000 l 694 1000 l 694 111 l 799 111 l 799 -194 l 688 -194 l 688 0 l 125 0 l 125 1000 l 250 1000 z "},"Щ":{"ha":833,"x_min":74,"x_max":799,"o":"m 74 0 l 74 1000 l 188 1000 l 188 106 l 361 106 l 361 1000 l 458 1000 l 458 106 l 632 106 l 632 1000 l 746 1000 l 746 106 l 799 106 l 799 -194 l 688 -194 l 688 0 l 74 0 z "},"Ш":{"ha":833,"x_min":86,"x_max":747,"o":"m 203 1000 l 203 94 l 368 94 l 368 1000 l 468 1000 l 468 94 l 632 94 l 632 1000 l 747 1000 l 747 0 l 89 0 l 86 1000 l 203 1000 z "},"З":{"ha":833,"x_min":74,"x_max":739,"o":"m 199 257 q 262 140 207 182 q 403 97 317 97 q 552 145 497 97 q 607 274 607 193 q 551 403 607 356 q 403 451 496 451 l 271 451 l 271 565 l 401 565 q 538 612 486 565 q 589 735 589 658 q 538 858 589 813 q 401 903 488 903 q 265 856 317 903 q 214 729 214 808 l 89 729 q 111 847 89 794 q 174 936 133 899 q 273 994 215 974 q 401 1014 331 1014 q 534 995 475 1014 q 635 941 593 976 q 699 856 676 906 q 721 743 721 806 q 670 590 721 650 q 536 524 619 531 l 536 515 q 684 445 629 510 q 739 274 739 381 q 715 155 739 208 q 648 64 692 101 q 542 6 604 26 q 403 -14 481 -14 q 273 5 332 -14 q 171 59 214 24 q 103 144 128 94 q 74 257 78 194 l 199 257 z "},"Й":{"ha":833,"x_min":118,"x_max":715,"o":"m 118 1000 l 238 1000 l 238 319 q 235 251 238 283 q 231 193 233 218 q 226 153 228 168 q 225 139 225 139 l 235 139 q 254 210 244 175 q 273 272 263 239 q 293 329 283 304 l 556 1000 l 715 1000 l 715 0 l 596 0 l 596 683 q 597 756 596 724 q 601 813 599 789 q 606 863 603 840 l 596 863 q 578 799 588 831 q 559 738 569 771 q 536 672 549 704 l 278 0 l 118 0 l 118 1000 m 194 1306 l 299 1306 q 415 1208 299 1208 q 504 1233 474 1208 q 535 1306 535 1258 l 639 1306 q 578 1169 639 1221 q 417 1118 517 1118 q 256 1169 317 1118 q 194 1306 194 1221 z "},"Ѕ":{"ha":833,"x_min":97,"x_max":736,"o":"m 97 257 l 229 257 q 281 141 229 185 q 419 97 333 97 q 558 138 508 97 q 608 250 608 179 q 572 358 608 311 q 474 426 536 404 l 356 468 q 128 750 128 550 q 207 943 128 872 q 424 1014 286 1014 q 545 995 490 1014 q 640 942 600 976 q 701 858 679 907 q 724 749 722 808 l 592 749 q 545 861 592 819 q 422 903 499 903 q 299 865 344 903 q 253 761 253 826 q 286 660 253 700 q 394 592 319 619 l 518 547 q 680 434 624 510 q 736 254 736 358 q 651 58 736 129 q 417 -14 565 -14 q 288 6 346 -14 q 188 60 229 25 q 122 146 146 96 q 97 257 99 196 z "},"ѕ":{"ha":833,"x_min":107,"x_max":719,"o":"m 107 188 l 239 188 q 290 122 247 147 q 396 97 333 97 l 435 97 q 551 128 510 97 q 593 213 593 160 q 465 322 593 303 l 350 339 q 182 410 238 356 q 126 561 126 464 q 199 721 126 664 q 403 778 272 778 l 442 778 q 544 764 497 778 q 628 724 592 750 q 687 663 664 699 q 717 585 710 628 l 585 585 q 538 644 576 621 q 442 667 499 667 l 403 667 q 292 639 332 667 q 253 556 253 611 q 280 488 253 511 q 368 457 307 465 l 483 440 q 663 368 607 422 q 719 214 719 314 q 645 47 719 107 q 435 -14 571 -14 l 396 -14 q 197 41 275 -14 q 107 188 118 96 z "},"і":{"ha":833,"x_min":132,"x_max":764,"o":"m 132 0 l 132 114 l 410 114 l 410 650 l 167 650 l 167 764 l 535 764 l 535 114 l 764 114 l 764 0 l 132 0 m 438 1063 l 465 1063 q 531 1039 506 1063 q 556 978 556 1015 q 531 918 556 940 q 465 896 506 896 l 438 896 q 372 917 397 896 q 347 978 347 939 q 372 1039 347 1015 q 438 1063 397 1063 z "},"Ю":{"ha":833,"x_min":28,"x_max":806,"o":"m 28 1000 l 147 1000 l 147 576 l 294 576 l 294 750 q 313 858 294 810 q 364 942 331 907 q 444 995 397 976 q 550 1014 492 1014 q 656 995 608 1014 q 736 942 703 976 q 788 858 769 907 q 806 750 806 810 l 806 250 q 788 142 806 190 q 736 58 769 93 q 656 5 703 24 q 550 -14 608 -14 q 444 5 492 -14 q 364 58 397 24 q 313 142 331 93 q 294 250 294 190 l 294 465 l 147 465 l 147 0 l 28 0 l 28 1000 m 550 906 q 451 863 488 906 q 414 750 414 821 l 414 250 q 451 137 414 179 q 550 94 488 94 q 649 137 613 94 q 686 250 686 179 l 686 750 q 649 863 686 821 q 550 906 613 906 z "},"Ь":{"ha":833,"x_min":125,"x_max":764,"o":"m 125 1000 l 250 1000 l 250 597 l 458 597 q 583 576 526 597 q 679 515 639 554 q 742 421 719 476 q 764 299 764 365 q 742 177 764 232 q 679 83 719 122 q 583 22 639 43 q 458 0 526 0 l 125 0 l 125 1000 m 451 114 q 585 165 535 114 q 635 299 635 215 q 585 433 635 382 q 451 483 535 483 l 250 483 l 250 114 l 451 114 z "},"Ы":{"ha":833,"x_min":86,"x_max":747,"o":"m 203 1000 l 203 594 l 268 594 q 470 518 400 594 q 540 317 540 442 l 540 276 q 522 163 540 214 q 469 76 504 113 q 384 20 435 40 q 268 0 333 0 l 86 0 l 86 1000 l 203 1000 m 631 0 l 631 1000 l 747 1000 l 747 0 l 631 0 m 203 111 l 268 111 q 382 157 343 111 q 421 278 421 203 l 421 317 q 382 438 421 392 q 268 483 343 483 l 203 483 l 203 111 z "},"Ъ":{"ha":833,"x_min":14,"x_max":785,"o":"m 14 1000 l 292 1000 l 292 594 l 479 594 q 605 573 549 594 q 701 513 661 551 q 763 419 740 474 q 785 297 785 364 q 763 176 785 231 q 701 82 740 121 q 605 22 661 43 q 479 0 549 0 l 167 0 l 167 886 l 14 886 l 14 1000 m 292 481 l 292 114 l 472 114 q 605 165 554 114 q 656 297 656 215 q 606 431 656 381 q 472 481 556 481 l 292 481 z "},"Я":{"ha":833,"x_min":74,"x_max":708,"o":"m 74 0 l 282 432 q 140 533 192 460 q 88 708 88 606 q 109 827 88 774 q 170 919 131 881 q 265 979 210 958 q 389 1000 321 1000 l 708 1000 l 708 0 l 583 0 l 583 417 l 411 417 l 215 0 l 74 0 m 389 528 l 583 528 l 583 889 l 389 889 q 264 840 311 889 q 217 708 217 790 q 263 577 217 626 q 389 528 310 528 z "},"Э":{"ha":833,"x_min":103,"x_max":714,"o":"m 103 743 q 198 942 118 871 q 408 1014 278 1014 q 633 936 551 1014 q 714 722 714 858 l 714 278 q 633 64 714 142 q 408 -14 551 -14 q 198 58 278 -14 q 103 257 118 129 l 228 257 q 284 140 236 182 q 408 97 332 97 q 541 147 493 97 q 589 285 589 197 l 589 451 l 244 451 l 244 563 l 589 563 l 589 715 q 540 853 589 803 q 408 903 492 903 q 284 860 332 903 q 228 743 236 818 l 103 743 z "},"Л":{"ha":833,"x_min":28,"x_max":708,"o":"m 28 110 l 53 110 q 141 165 114 110 q 169 353 168 219 l 178 1000 l 708 1000 l 708 0 l 583 0 l 583 886 l 301 886 l 294 353 q 236 79 292 165 q 60 -7 181 -7 l 28 -7 l 28 110 z "},"Д":{"ha":833,"x_min":35,"x_max":799,"o":"m 97 107 q 133 207 117 147 q 159 339 147 260 q 174 528 171 418 l 182 1000 l 701 1000 l 701 107 l 799 107 l 799 -194 l 688 -194 l 688 0 l 146 0 l 146 -194 l 35 -194 l 35 107 l 97 107 m 228 107 l 576 107 l 576 889 l 301 889 l 296 528 q 283 333 294 411 q 260 206 272 254 q 228 117 246 150 l 228 107 z "},"У":{"ha":833,"x_min":56,"x_max":778,"o":"m 56 1000 l 194 1000 l 385 518 q 405 460 397 488 q 417 410 413 432 q 424 363 421 385 l 433 363 q 439 410 435 383 q 450 458 443 431 q 468 518 457 486 l 642 1000 l 778 1000 l 399 0 l 265 0 l 368 263 l 56 1000 z "},"Ф":{"ha":833,"x_min":69,"x_max":764,"o":"m 69 676 q 90 798 69 743 q 149 891 111 853 q 240 951 186 929 q 358 972 293 972 l 358 1063 l 475 1063 l 475 972 q 594 951 540 972 q 685 891 647 929 q 743 798 722 853 q 764 676 764 743 l 764 351 q 743 233 764 286 q 684 142 722 179 q 593 83 646 104 q 475 63 540 63 l 475 -28 l 358 -28 l 358 63 q 241 83 294 63 q 149 142 188 104 q 90 233 111 179 q 69 351 69 286 l 69 676 m 647 676 q 600 815 647 763 q 475 867 553 867 l 475 168 q 600 218 553 168 q 647 351 647 268 l 647 676 m 186 351 q 233 218 186 268 q 358 168 281 168 l 358 867 q 233 815 281 867 q 186 676 186 763 l 186 351 z "},"Ч":{"ha":833,"x_min":104,"x_max":708,"o":"m 229 1000 l 229 632 q 278 510 229 556 q 410 465 326 465 q 492 472 458 465 q 546 486 525 479 q 583 507 569 496 l 583 1000 l 708 1000 l 708 0 l 583 0 l 583 313 q 584 343 583 328 q 585 371 585 358 q 586 397 585 385 q 539 376 567 385 q 478 361 515 368 q 389 354 442 354 q 181 429 257 354 q 104 632 104 504 l 104 1000 l 229 1000 z "},"н":{"ha":833,"x_min":125,"x_max":708,"o":"m 125 0 l 125 764 l 250 764 l 250 442 l 583 442 l 583 764 l 708 764 l 708 0 l 583 0 l 583 328 l 250 328 l 250 0 l 125 0 z "},"ё":{"ha":833,"x_min":111,"x_max":722,"o":"m 111 486 q 192 700 111 622 q 417 778 274 778 q 641 700 560 778 q 722 486 722 622 l 722 346 l 236 346 l 236 285 q 284 147 236 197 q 417 97 332 97 q 525 117 479 97 q 593 174 571 136 l 718 174 q 613 36 694 86 q 417 -14 532 -14 q 192 64 274 -14 q 111 278 111 142 l 111 486 m 236 450 l 597 450 l 597 486 q 550 619 597 572 q 417 667 503 667 q 283 619 331 667 q 236 486 236 572 l 236 450 m 556 1093 q 616 1070 593 1093 q 639 1010 639 1047 q 616 949 639 972 q 556 926 593 926 q 495 949 518 926 q 472 1010 472 972 q 495 1070 472 1047 q 556 1093 518 1093 m 194 1010 q 217 1070 194 1047 q 278 1093 240 1093 q 338 1070 315 1093 q 361 1010 361 1047 q 338 949 361 972 q 278 926 315 926 q 217 949 240 926 q 194 1010 194 972 z "},"и":{"ha":833,"x_min":125,"x_max":708,"o":"m 125 764 l 244 764 l 244 319 q 243 248 244 283 q 240 185 242 213 q 236 142 238 158 q 235 125 235 125 l 244 125 q 267 182 256 153 q 290 234 278 206 q 314 288 301 263 l 549 764 l 708 764 l 708 0 l 589 0 l 589 447 q 593 583 589 529 q 596 640 594 614 l 586 640 q 565 590 576 617 q 543 538 556 567 q 515 478 531 510 l 285 0 l 125 0 l 125 764 z "},"я":{"ha":833,"x_min":76,"x_max":708,"o":"m 276 294 q 140 374 189 315 q 90 524 90 433 q 164 700 90 636 q 368 764 238 764 l 708 764 l 708 0 l 583 0 l 583 285 l 406 285 l 224 0 l 76 0 l 276 294 m 218 524 q 258 430 218 464 q 368 396 297 396 l 583 396 l 583 653 l 368 653 q 258 619 297 653 q 218 524 218 585 z "},"п":{"ha":833,"x_min":125,"x_max":708,"o":"m 125 0 l 125 764 l 708 764 l 708 0 l 583 0 l 583 650 l 250 650 l 250 0 l 125 0 z "},"л":{"ha":833,"x_min":28,"x_max":708,"o":"m 28 110 l 53 110 q 106 122 85 110 q 142 160 128 133 q 162 231 156 186 q 169 339 168 275 l 178 764 l 708 764 l 708 0 l 583 0 l 583 650 l 301 650 l 294 333 q 278 177 293 242 q 236 72 264 113 q 165 12 208 31 q 60 -7 121 -7 l 28 -7 l 28 110 z "},"д":{"ha":833,"x_min":35,"x_max":799,"o":"m 97 107 q 133 186 117 139 q 159 284 147 225 q 174 422 171 343 l 182 764 l 701 764 l 701 107 l 799 107 l 799 -194 l 688 -194 l 688 0 l 146 0 l 146 -194 l 35 -194 l 35 107 l 97 107 m 232 107 l 576 107 l 576 653 l 301 653 l 296 431 q 283 282 293 342 q 263 185 274 222 q 232 117 249 142 l 232 107 z "},"г":{"ha":833,"x_min":146,"x_max":743,"o":"m 743 764 l 743 650 l 271 650 l 271 0 l 146 0 l 146 764 l 743 764 z "},"к":{"ha":833,"x_min":129,"x_max":785,"o":"m 254 764 l 254 444 l 404 444 l 638 764 l 781 764 l 508 396 l 785 0 l 638 0 l 406 333 l 254 333 l 254 0 l 129 0 l 129 764 l 254 764 z "},"м":{"ha":833,"x_min":97,"x_max":736,"o":"m 97 764 l 253 764 l 381 460 q 394 424 388 444 q 404 388 400 404 q 415 347 410 367 l 424 347 q 436 388 429 367 q 447 424 442 404 q 460 460 453 444 l 581 764 l 736 764 l 736 0 l 621 0 l 621 465 q 623 515 621 488 q 628 569 625 543 q 633 631 629 600 l 625 631 q 604 568 614 599 q 584 514 594 542 q 565 465 574 486 l 476 243 l 360 243 l 271 465 q 252 516 263 488 q 232 569 242 544 q 210 632 221 600 l 203 632 q 208 571 206 601 q 211 517 210 546 q 213 465 213 489 l 213 0 l 97 0 l 97 764 z "},"ф":{"ha":833,"x_min":69,"x_max":764,"o":"m 69 486 q 90 601 69 550 q 148 689 110 653 q 240 744 186 725 q 361 764 294 764 l 361 1000 l 472 1000 l 472 764 q 593 744 539 764 q 685 689 647 725 q 744 601 724 653 q 764 486 764 550 l 764 281 q 744 165 764 217 q 685 76 724 113 q 593 19 647 39 q 472 0 539 0 l 472 -236 l 361 -236 l 361 0 q 240 19 294 0 q 148 76 186 39 q 90 165 110 113 q 69 281 69 217 l 69 486 m 472 97 q 605 146 557 97 q 653 281 653 194 l 653 486 q 604 619 653 571 q 472 667 556 667 l 472 97 m 181 281 q 228 146 181 194 q 361 97 276 97 l 361 667 q 229 619 278 667 q 181 486 181 571 l 181 281 z "},"й":{"ha":833,"x_min":125,"x_max":708,"o":"m 125 764 l 244 764 l 244 319 q 243 248 244 283 q 240 185 242 213 q 236 142 238 158 q 235 125 235 125 l 244 125 q 267 182 256 153 q 290 234 278 206 q 314 288 301 263 l 549 764 l 708 764 l 708 0 l 589 0 l 589 447 q 593 583 589 529 q 596 640 594 614 l 586 640 q 565 590 576 617 q 543 538 556 567 q 515 478 531 510 l 285 0 l 125 0 l 125 764 m 181 1097 l 285 1097 q 321 1025 285 1050 q 415 1000 357 1000 q 511 1025 474 1000 q 549 1097 549 1050 l 653 1097 q 635 1021 653 1056 q 585 961 617 986 q 510 923 553 936 q 417 910 467 910 q 324 923 367 910 q 249 961 281 936 q 199 1021 217 986 q 181 1097 181 1056 z "},"т":{"ha":833,"x_min":63,"x_max":771,"o":"m 63 654 l 63 764 l 771 764 l 771 654 l 481 654 l 481 0 l 353 0 l 353 654 l 63 654 z "},"ж":{"ha":833,"x_min":7,"x_max":826,"o":"m 7 0 l 176 392 l 18 764 l 144 764 l 274 436 l 361 436 l 361 764 l 472 764 l 472 436 l 560 436 l 689 764 l 815 764 l 657 396 l 826 0 l 694 0 l 561 342 l 472 342 l 472 0 l 361 0 l 361 342 l 272 342 l 139 0 l 7 0 z "},"в":{"ha":833,"x_min":125,"x_max":736,"o":"m 125 0 l 125 764 l 468 764 q 653 710 588 764 q 718 561 718 657 q 676 449 718 490 q 556 403 633 407 l 556 394 q 690 348 643 393 q 736 218 736 303 q 667 57 736 114 q 472 0 599 0 l 125 0 m 249 333 l 249 110 l 472 110 q 575 139 539 110 q 611 221 611 168 q 575 304 611 275 q 472 333 539 333 l 249 333 m 249 442 l 468 442 q 560 469 526 442 q 593 547 593 497 q 560 626 593 597 q 468 654 528 654 l 249 654 l 249 442 z "},"ш":{"ha":833,"x_min":86,"x_max":747,"o":"m 197 764 l 197 97 l 364 97 l 364 764 l 472 764 l 472 97 l 639 97 l 639 764 l 747 764 l 747 0 l 89 0 l 86 764 l 197 764 z "},"щ":{"ha":833,"x_min":83,"x_max":785,"o":"m 83 0 l 83 764 l 194 764 l 194 103 l 360 103 l 360 764 l 471 764 l 471 103 l 622 103 l 622 764 l 733 764 l 733 103 l 785 103 l 785 -194 l 674 -194 l 674 0 l 83 0 z "},"ь":{"ha":833,"x_min":125,"x_max":764,"o":"m 125 764 l 250 764 l 250 483 l 493 483 q 694 421 624 483 q 764 242 764 358 q 694 63 764 126 q 493 0 624 0 l 125 0 l 125 764 m 486 114 q 597 147 558 114 q 635 242 635 179 q 597 337 635 304 q 486 369 558 369 l 250 369 l 250 114 l 486 114 z "},"ъ":{"ha":833,"x_min":0,"x_max":785,"o":"m 0 653 l 0 764 l 319 764 l 319 483 l 513 483 q 713 419 642 483 q 785 242 785 356 q 714 63 785 126 q 513 0 643 0 l 194 0 l 194 653 l 0 653 m 319 369 l 319 114 l 511 114 q 617 147 579 114 q 656 242 656 181 q 617 336 656 303 q 511 369 579 369 l 319 369 z "},"э":{"ha":833,"x_min":100,"x_max":711,"o":"m 406 -14 q 200 49 279 -14 q 100 229 121 111 l 225 229 q 287 132 239 167 q 406 97 335 97 q 538 147 490 97 q 586 285 586 197 l 586 333 l 313 333 l 313 444 l 586 444 l 586 479 q 538 617 586 567 q 406 667 489 667 q 287 632 335 667 q 225 535 239 597 l 100 535 q 200 715 121 653 q 406 778 279 778 q 630 700 549 778 q 711 486 711 622 l 711 278 q 630 64 711 142 q 406 -14 549 -14 z "},"ц":{"ha":833,"x_min":125,"x_max":799,"o":"m 250 764 l 250 111 l 569 111 l 569 764 l 694 764 l 694 111 l 799 111 l 799 -194 l 688 -194 l 688 0 l 125 0 l 125 764 l 250 764 z "},"ю":{"ha":833,"x_min":86,"x_max":750,"o":"m 86 764 l 197 764 l 197 438 l 319 438 l 319 542 q 376 715 319 651 q 533 778 433 778 q 692 715 635 778 q 750 542 750 651 l 750 222 q 692 49 750 113 q 533 -14 635 -14 q 376 49 433 -14 q 319 222 319 113 l 319 338 l 197 338 l 197 0 l 86 0 l 86 764 m 533 681 q 458 644 485 681 q 431 542 431 608 l 431 222 q 458 119 431 156 q 533 83 485 83 q 611 119 583 83 q 639 222 639 156 l 639 542 q 611 644 639 608 q 533 681 583 681 z "},"ч":{"ha":833,"x_min":104,"x_max":708,"o":"m 389 215 q 181 290 257 215 q 104 493 104 365 l 104 764 l 229 764 l 229 493 q 278 372 229 417 q 410 326 326 326 q 492 333 458 326 q 546 347 525 340 q 583 368 569 357 l 583 764 l 708 764 l 708 0 l 583 0 l 583 174 q 584 204 583 189 q 585 232 585 219 q 586 258 585 246 q 539 238 567 246 q 478 222 515 229 q 389 215 442 215 z "},"ы":{"ha":833,"x_min":86,"x_max":747,"o":"m 86 764 l 203 764 l 203 483 l 269 483 q 470 420 400 483 q 540 242 540 357 q 469 64 540 128 q 269 0 399 0 l 86 0 l 86 764 m 631 764 l 747 764 l 747 0 l 631 0 l 631 764 m 203 100 l 269 100 q 382 138 340 100 q 424 242 424 176 q 382 344 424 306 q 269 383 340 383 l 203 383 l 203 100 z "},"з":{"ha":833,"x_min":83,"x_max":729,"o":"m 374 -10 q 175 42 251 -10 q 83 181 99 93 l 215 181 q 267 123 225 144 q 374 101 308 101 l 453 101 q 559 133 521 101 q 597 217 597 165 q 560 304 597 272 q 453 336 524 336 l 263 336 l 263 444 l 449 444 q 546 475 513 444 q 579 556 579 506 q 546 635 579 607 q 450 663 513 663 l 367 663 q 270 638 310 663 q 222 576 231 613 l 90 576 q 120 656 97 619 q 180 718 143 692 q 264 759 217 744 q 367 774 311 774 l 450 774 q 642 717 574 774 q 711 563 711 661 q 667 450 711 493 q 542 401 622 407 l 542 396 q 685 343 640 389 q 729 211 729 297 q 654 49 729 108 q 453 -10 579 -10 l 374 -10 z "},"б":{"ha":833,"x_min":111,"x_max":722,"o":"m 417 -14 q 192 65 274 -14 q 111 285 111 144 l 111 604 q 137 769 111 696 q 210 894 163 843 q 326 972 257 944 q 479 1000 394 1000 l 688 1000 l 688 875 l 479 875 q 301 802 367 875 q 236 604 236 729 l 236 542 l 250 542 q 286 611 261 581 q 350 659 310 638 q 458 681 390 681 q 652 603 582 681 q 722 389 722 526 l 722 285 q 701 160 722 215 q 641 66 681 104 q 544 7 601 28 q 417 -14 488 -14 m 236 285 q 285 147 236 197 q 417 97 333 97 q 549 147 501 97 q 597 285 597 197 l 597 389 q 549 526 597 476 q 417 576 501 576 q 285 526 333 576 q 236 389 236 476 l 236 285 z "},"≠":{"ha":833,"x_min":111,"x_max":722,"o":"m 529 569 l 426 347 l 722 347 l 722 236 l 374 236 l 264 0 l 139 0 l 249 236 l 111 236 l 111 347 l 301 347 l 404 569 l 111 569 l 111 681 l 456 681 l 569 924 l 694 924 l 581 681 l 722 681 l 722 569 l 529 569 z "},"Ё":{"ha":833,"x_min":132,"x_max":722,"o":"m 132 0 l 132 1000 l 722 1000 l 722 886 l 257 886 l 257 572 l 674 572 l 674 458 l 257 458 l 257 114 l 722 114 l 722 0 l 132 0 m 556 1315 q 616 1292 593 1315 q 639 1232 639 1269 q 616 1172 639 1194 q 556 1149 593 1149 q 495 1172 518 1149 q 472 1232 472 1194 q 495 1292 472 1269 q 556 1315 518 1315 m 194 1232 q 217 1292 194 1269 q 278 1315 240 1315 q 338 1292 315 1315 q 361 1232 361 1269 q 338 1172 361 1194 q 278 1149 315 1149 q 217 1172 240 1149 q 194 1232 194 1194 z "},"І":{"ha":833,"x_min":132,"x_max":701,"o":"m 353 110 l 353 890 l 132 890 l 132 1000 l 701 1000 l 701 890 l 481 890 l 481 110 l 701 110 l 701 0 l 132 0 l 132 110 l 353 110 z "},"Ї":{"ha":833,"x_min":132,"x_max":701,"o":"m 353 110 l 353 890 l 132 890 l 132 1000 l 701 1000 l 701 890 l 481 890 l 481 110 l 701 110 l 701 0 l 132 0 l 132 110 l 353 110 m 556 1315 q 616 1292 593 1315 q 639 1232 639 1269 q 616 1172 639 1194 q 556 1149 593 1149 q 495 1172 518 1149 q 472 1232 472 1194 q 495 1292 472 1269 q 556 1315 518 1315 m 194 1232 q 217 1292 194 1269 q 278 1315 240 1315 q 338 1292 315 1315 q 361 1232 361 1269 q 338 1172 361 1194 q 278 1149 315 1149 q 217 1172 240 1149 q 194 1232 194 1194 z "},"Ј":{"ha":833,"x_min":63,"x_max":694,"o":"m 188 243 q 251 137 200 176 q 375 97 303 97 q 517 148 464 97 q 569 285 569 199 l 569 889 l 181 889 l 181 1000 l 694 1000 l 694 285 q 672 161 694 217 q 608 67 650 106 q 508 7 567 28 q 375 -14 449 -14 q 261 4 314 -14 q 167 56 208 22 q 99 138 126 90 q 63 243 72 185 l 188 243 z "},"ї":{"ha":833,"x_min":125,"x_max":757,"o":"m 556 1093 q 616 1070 593 1093 q 639 1010 639 1047 q 616 949 639 972 q 556 926 593 926 q 495 949 518 926 q 472 1010 472 972 q 495 1070 472 1047 q 556 1093 518 1093 m 194 1010 q 217 1070 194 1047 q 278 1093 240 1093 q 338 1070 315 1093 q 361 1010 361 1047 q 338 949 361 972 q 278 926 315 926 q 217 949 240 926 q 194 1010 194 972 m 125 114 l 410 114 l 410 650 l 160 650 l 160 764 l 535 764 l 535 114 l 757 114 l 757 0 l 125 0 l 125 114 z "},"ј":{"ha":833,"x_min":118,"x_max":632,"o":"m 118 -121 l 285 -121 q 426 -68 372 -121 q 479 69 479 -15 l 479 650 l 160 650 l 160 764 l 604 764 l 604 69 q 581 -53 604 3 q 515 -151 557 -110 q 414 -214 472 -192 q 285 -236 356 -236 l 118 -236 l 118 -121 m 424 978 q 449 1039 424 1015 q 514 1063 474 1063 l 542 1063 q 607 1039 582 1063 q 632 978 632 1015 q 607 918 632 940 q 542 896 582 896 l 514 896 q 449 917 474 896 q 424 978 424 939 z "},"Ґ":{"ha":833,"x_min":146,"x_max":743,"o":"m 625 1000 l 625 1146 l 743 1146 l 743 886 l 271 886 l 271 0 l 146 0 l 146 1000 l 625 1000 z "},"ґ":{"ha":833,"x_min":146,"x_max":743,"o":"m 625 764 l 625 910 l 743 910 l 743 650 l 271 650 l 271 0 l 146 0 l 146 764 l 625 764 z "},"Ѓ":{"ha":833,"x_min":146,"x_max":743,"o":"m 743 1000 l 743 886 l 271 886 l 271 0 l 146 0 l 146 1000 l 743 1000 m 389 1111 l 264 1111 l 417 1314 l 569 1314 l 389 1111 z "},"ѓ":{"ha":833,"x_min":146,"x_max":743,"o":"m 743 764 l 743 650 l 271 650 l 271 0 l 146 0 l 146 764 l 743 764 m 389 903 l 264 903 l 417 1106 l 569 1106 l 389 903 z "},"Ќ":{"ha":833,"x_min":125,"x_max":799,"o":"m 125 1000 l 250 1000 l 250 575 l 410 575 l 638 1000 l 785 1000 l 519 525 l 799 0 l 650 0 l 410 465 l 250 465 l 250 0 l 125 0 l 125 1000 m 389 1111 l 264 1111 l 417 1314 l 569 1314 l 389 1111 z "},"ќ":{"ha":833,"x_min":129,"x_max":785,"o":"m 254 764 l 254 444 l 404 444 l 638 764 l 781 764 l 508 396 l 785 0 l 638 0 l 406 333 l 254 333 l 254 0 l 129 0 l 129 764 l 254 764 m 389 903 l 264 903 l 417 1106 l 569 1106 l 389 903 z "},"Ў":{"ha":833,"x_min":56,"x_max":778,"o":"m 56 1000 l 194 1000 l 385 518 q 405 460 397 488 q 417 410 413 432 q 424 363 421 385 l 433 363 q 439 410 435 383 q 450 458 443 431 q 468 518 457 486 l 642 1000 l 778 1000 l 399 0 l 265 0 l 368 263 l 56 1000 m 194 1306 l 299 1306 q 415 1208 299 1208 q 504 1233 474 1208 q 535 1306 535 1258 l 639 1306 q 578 1169 639 1221 q 417 1118 517 1118 q 256 1169 317 1118 q 194 1306 194 1221 z "},"ў":{"ha":833,"x_min":69,"x_max":764,"o":"m 69 764 l 208 764 l 383 325 q 403 265 396 293 q 415 217 411 238 q 422 169 421 190 l 432 169 q 439 215 433 190 q 450 265 443 238 q 468 325 457 293 l 629 764 l 764 764 l 392 -236 l 258 -236 l 365 56 l 69 764 m 181 1097 l 285 1097 q 321 1025 285 1050 q 415 1000 357 1000 q 511 1025 474 1000 q 549 1097 549 1050 l 653 1097 q 635 1021 653 1056 q 585 961 617 986 q 510 923 553 936 q 417 910 467 910 q 324 923 367 910 q 249 961 281 936 q 199 1021 217 986 q 181 1097 181 1056 z "},"Џ":{"ha":833,"x_min":125,"x_max":708,"o":"m 250 1000 l 250 114 l 583 114 l 583 1000 l 708 1000 l 708 0 l 479 0 l 479 -174 l 354 -174 l 354 0 l 125 0 l 125 1000 l 250 1000 z "},"џ":{"ha":833,"x_min":125,"x_max":708,"o":"m 250 764 l 250 114 l 583 114 l 583 764 l 708 764 l 708 0 l 479 0 l 479 -174 l 354 -174 l 354 0 l 125 0 l 125 764 l 250 764 z "},"Њ":{"ha":833,"x_min":74,"x_max":806,"o":"m 185 1000 l 185 597 l 389 597 l 389 1000 l 500 1000 l 500 597 l 583 597 q 674 582 633 597 q 744 538 715 567 q 790 470 774 510 q 806 382 806 431 l 806 215 q 790 127 806 167 q 744 59 774 88 q 674 15 715 31 q 583 0 633 0 l 389 0 l 389 493 l 185 493 l 185 0 l 74 0 l 74 1000 l 185 1000 m 500 104 l 583 104 q 664 135 633 104 q 694 215 694 165 l 694 382 q 664 463 694 432 q 583 493 633 493 l 500 493 l 500 104 z "},"њ":{"ha":833,"x_min":74,"x_max":806,"o":"m 74 0 l 74 764 l 185 764 l 185 486 l 389 486 l 389 764 l 500 764 l 500 486 l 583 486 q 674 471 633 486 q 744 427 715 456 q 790 359 774 399 q 806 271 806 319 l 806 215 q 790 127 806 167 q 744 59 774 88 q 674 15 715 31 q 583 0 633 0 l 389 0 l 389 382 l 185 382 l 185 0 l 74 0 m 500 104 l 583 104 q 664 135 633 104 q 694 215 694 165 l 694 271 q 664 351 694 321 q 583 382 633 382 l 500 382 l 500 104 z "},"Љ":{"ha":833,"x_min":-7,"x_max":806,"o":"m -7 104 l 18 104 q 74 151 53 104 q 96 269 94 197 l 103 1000 l 500 1000 l 500 597 l 583 597 q 674 582 633 597 q 744 538 715 567 q 790 470 774 510 q 806 382 806 431 l 806 215 q 790 127 806 167 q 744 59 774 88 q 674 15 715 31 q 583 0 633 0 l 389 0 l 389 896 l 213 896 l 206 269 q 154 68 204 143 q 14 -7 104 -7 l -7 -7 l -7 104 m 500 104 l 583 104 q 664 135 633 104 q 694 215 694 165 l 694 382 q 664 463 694 432 q 583 493 633 493 l 500 493 l 500 104 z "},"љ":{"ha":833,"x_min":-7,"x_max":806,"o":"m 18 111 q 74 154 53 111 q 96 269 94 197 l 101 764 l 500 764 l 500 486 l 583 486 q 674 471 633 486 q 744 427 715 456 q 790 360 774 399 q 806 272 806 321 l 806 214 q 790 127 806 167 q 744 59 774 88 q 674 15 715 31 q 583 0 633 0 l 389 0 l 389 657 l 213 657 l 208 269 q 156 68 207 143 q 14 -7 104 -7 l -7 -7 l -7 111 l 18 111 m 500 383 l 500 103 l 583 103 q 664 133 633 103 q 694 214 694 164 l 694 272 q 664 353 694 322 q 583 383 633 383 l 500 383 z "},"є":{"ha":833,"x_min":122,"x_max":733,"o":"m 428 -14 q 633 49 554 -14 q 733 229 713 111 l 608 229 q 547 132 594 167 q 428 97 499 97 q 295 147 343 97 q 247 285 247 197 l 247 333 l 521 333 l 521 444 l 247 444 l 247 479 q 296 617 247 567 q 428 667 344 667 q 547 632 499 667 q 608 535 594 597 l 733 535 q 633 715 713 653 q 428 778 554 778 q 204 700 285 778 q 122 486 122 622 l 122 278 q 204 64 122 142 q 428 -14 285 -14 z "},"Є":{"ha":833,"x_min":119,"x_max":731,"o":"m 731 743 q 635 942 715 871 q 425 1014 556 1014 q 201 936 282 1014 q 119 722 119 858 l 119 278 q 201 64 119 142 q 425 -14 282 -14 q 635 58 556 -14 q 731 257 715 129 l 606 257 q 549 140 597 182 q 425 97 501 97 q 292 147 340 97 q 244 285 244 197 l 244 451 l 589 451 l 589 563 l 244 563 l 244 715 q 293 853 244 803 q 425 903 342 903 q 549 860 501 903 q 606 743 597 818 l 731 743 z "},"ћ":{"ha":833,"x_min":28,"x_max":713,"o":"m 28 868 l 122 868 l 122 1014 l 247 1014 l 247 868 l 389 868 l 389 764 l 247 764 l 247 694 q 247 652 247 675 q 244 610 246 629 q 240 563 242 586 l 251 563 q 324 670 269 632 q 461 708 379 708 q 565 689 518 708 q 644 634 611 669 q 694 549 676 599 q 713 439 713 500 l 713 0 l 588 0 l 588 418 q 543 554 588 506 q 419 603 499 603 q 294 551 340 603 q 247 410 247 499 l 247 0 l 122 0 l 122 764 l 28 764 l 28 868 z "},"ђ":{"ha":833,"x_min":28,"x_max":713,"o":"m 28 868 l 122 868 l 122 1014 l 247 1014 l 247 868 l 389 868 l 389 764 l 247 764 l 247 694 q 247 652 247 675 q 244 610 246 629 q 240 563 242 586 l 251 563 q 324 670 269 632 q 461 708 379 708 q 642 637 575 708 q 713 446 708 565 l 713 35 q 692 -76 713 -26 q 635 -162 672 -126 q 545 -217 597 -197 q 428 -236 493 -236 l 331 -236 l 331 -122 l 428 -122 q 545 -81 503 -122 q 588 35 588 -39 l 588 418 q 543 554 588 506 q 419 603 499 603 q 294 555 340 603 q 247 424 247 507 l 247 0 l 122 0 l 122 764 l 28 764 l 28 868 z "},"Ћ":{"ha":833,"x_min":0,"x_max":743,"o":"m 0 890 l 0 1000 l 444 1000 l 444 890 l 278 890 l 278 551 l 300 578 q 398 659 344 631 q 507 688 451 688 q 603 669 560 688 q 677 619 646 651 q 726 540 708 586 q 743 439 743 494 l 743 0 l 618 0 l 618 411 q 492 582 618 582 q 339 503 408 582 l 278 432 l 278 0 l 153 0 l 153 890 l 0 890 z "},"Ђ":{"ha":833,"x_min":0,"x_max":743,"o":"m 444 1000 l 444 890 l 278 890 l 278 551 l 300 578 q 398 659 344 631 q 507 688 451 688 q 603 669 560 688 q 677 619 646 651 q 726 540 708 586 q 743 439 743 494 l 743 35 q 723 -76 743 -26 q 665 -162 703 -126 q 576 -217 628 -197 q 458 -236 524 -236 l 361 -236 l 361 -122 l 458 -122 q 576 -81 533 -122 q 618 35 618 -39 l 618 411 q 492 582 618 582 q 339 503 408 582 l 278 432 l 278 0 l 153 0 l 153 890 l 0 890 l 0 1000 l 444 1000 z "},"ĳ":{"ha":833,"x_min":104,"x_max":729,"o":"m 292 -229 l 292 -115 l 410 -115 q 527 -74 485 -115 q 569 42 569 -32 l 569 764 l 694 764 l 694 42 q 674 -69 694 -19 q 617 -155 654 -119 q 527 -210 579 -190 q 410 -229 475 -229 l 292 -229 m 146 0 l 146 764 l 271 764 l 271 0 l 146 0 m 611 896 q 546 917 571 896 q 521 978 521 939 q 546 1039 521 1015 q 611 1063 571 1063 l 639 1063 q 704 1039 679 1063 q 729 978 729 1015 q 704 918 729 940 q 639 896 679 896 l 611 896 m 104 978 q 129 1039 104 1015 q 194 1063 154 1063 l 222 1063 q 288 1039 263 1063 q 313 978 313 1015 q 288 918 313 940 q 222 896 263 896 l 194 896 q 129 917 154 896 q 104 978 104 939 z "},"Ĳ":{"ha":833,"x_min":97,"x_max":743,"o":"m 444 111 q 573 155 528 111 q 618 279 618 199 l 618 889 l 417 889 l 417 1000 l 743 1000 l 743 279 q 665 72 743 144 q 444 0 588 0 l 361 0 l 361 111 l 444 111 m 225 1000 l 225 0 l 97 0 l 97 1000 l 225 1000 z "},"μ":{"ha":833,"x_min":125,"x_max":708,"o":"m 250 764 l 250 269 q 289 141 250 186 q 415 96 328 96 q 543 141 503 96 q 583 269 583 186 l 583 764 l 708 764 l 708 269 q 635 60 708 135 q 429 -14 563 -14 q 319 3 361 -14 q 254 40 278 19 q 215 93 228 63 l 210 93 q 215 82 211 93 q 222 54 218 71 q 228 18 225 38 q 233 -18 232 -1 l 249 -236 l 125 -236 l 125 764 l 250 764 z "},"∏":{"ha":833,"x_min":125,"x_max":708,"o":"m 125 0 l 125 1000 l 708 1000 l 708 0 l 583 0 l 583 886 l 250 886 l 250 0 l 125 0 z "},"∫":{"ha":833,"x_min":42,"x_max":792,"o":"m 42 -122 l 194 -122 q 312 -81 269 -122 q 354 35 354 -39 l 354 731 q 374 842 354 792 q 432 927 394 892 q 522 981 469 963 q 639 1000 575 1000 l 792 1000 l 792 886 l 639 886 q 522 845 564 886 q 479 729 479 804 l 479 35 q 459 -76 479 -26 q 401 -162 439 -126 q 312 -217 364 -197 q 194 -236 260 -236 l 42 -236 l 42 -122 z "},"Ω":{"ha":833,"x_min":69,"x_max":765,"o":"m 69 0 l 69 111 l 271 111 l 271 118 q 192 154 226 126 q 136 222 161 178 q 111 340 111 265 l 111 715 q 133 839 111 783 q 194 933 154 894 q 290 993 233 972 q 417 1014 346 1014 q 544 993 488 1014 q 640 933 600 972 q 701 839 679 894 q 722 715 722 783 l 722 340 q 697 222 722 265 q 643 154 672 178 q 563 119 607 128 l 563 111 l 765 111 l 765 0 l 472 0 l 472 153 q 563 203 528 153 q 597 333 597 254 l 597 715 q 549 852 597 801 q 417 903 500 903 q 285 852 333 903 q 236 715 236 801 l 236 333 q 271 203 236 254 q 361 153 306 153 l 361 0 l 69 0 z "},"∆":{"ha":833,"x_min":83,"x_max":750,"o":"m 83 0 l 83 104 l 333 1000 l 508 1000 l 750 104 l 750 0 l 83 0 m 625 104 l 447 782 q 435 835 440 811 q 426 878 429 860 q 421 917 424 899 l 415 917 q 410 879 413 900 q 401 835 407 860 q 388 782 396 811 l 208 104 l 625 104 z "},"∑":{"ha":833,"x_min":76,"x_max":750,"o":"m 750 1000 l 750 889 l 329 889 l 229 893 l 229 890 l 610 454 l 610 311 l 221 -126 l 221 -129 l 321 -125 l 750 -125 l 750 -236 l 76 -236 l 76 -122 l 518 381 l 76 886 l 76 1000 l 750 1000 z "},"π":{"ha":833,"x_min":28,"x_max":799,"o":"m 28 651 l 28 764 l 771 764 l 771 656 l 660 656 l 660 228 q 760 110 660 110 l 799 110 l 799 -7 l 767 -7 q 598 59 661 -7 q 535 236 535 125 l 535 650 l 264 650 l 264 0 l 139 0 l 139 651 l 28 651 z "},"√":{"ha":833,"x_min":42,"x_max":813,"o":"m 42 764 l 285 764 l 422 224 q 434 167 431 192 q 439 125 438 143 q 440 90 440 106 l 453 90 q 454 126 453 106 q 461 167 457 143 q 474 224 465 192 l 696 1014 l 813 1014 l 518 0 l 372 0 l 196 653 l 42 653 l 42 764 z "}}}
